<svg width="512" height="512" viewBox="0 0 512 512" fill="none" xmlns="http://www.w3.org/2000/svg">
<g clip-path="url(#clip0)">
<path d="M399.953 239.191C399.953 238.281 400 103.992 400 103.992L200 4L0.000110212 104V236.465C-0.0780148 319.418 41.3829 396.902 110.442 442.863L200 502.543L268.992 456.586C306.281 504.352 370.695 521.652 426.899 499C483.106 476.348 517.52 419.219 511.27 358.945C505.016 298.668 459.609 249.82 399.953 239.184V239.191ZM200 483.344L119.32 429.566C54.7071 386.57 15.9181 314.074 16.0001 236.465V113.887L200 21.8867L384 113.887V237.352C381.344 237.191 378.711 236.945 376 236.945C373.289 236.945 370.649 237.191 368 237.352C368 237.055 368 123.754 368 123.754L200 39.7617L32.0001 123.762V236.465C31.9415 308.719 68.0548 376.203 128.199 416.238L200 464.078L252.336 429.207C254.574 434.09 257.102 438.836 259.902 443.418L200 483.344ZM246.352 413.977L200 444.855L137.082 402.93C133.977 400.855 130.969 398.68 128 396.449V324.945H112V383.023C103.219 374.883 95.1876 365.965 88.0001 356.383V309.895C88.004 298.895 95.4845 289.305 106.152 286.625L160.406 273.023C162.149 290.371 174.934 304.582 192 308.145V340.945H208V308.145C225.067 304.586 237.848 290.371 239.586 273.023L275.199 281.969C242.731 317.676 231.738 367.973 246.352 413.969V413.977ZM160 172.945H182.113C194.461 172.93 206.656 170.195 217.832 164.945H220L240 191.609V224.945L213.336 244.945H186.664L160 224.945V172.945ZM144.664 156.945C146.285 146.914 152.672 138.293 161.801 133.824C179.496 125.949 199.434 124.695 217.977 130.289L219.817 132.945H232C236.418 132.945 240 136.527 240 140.945V164.945L228 148.945H214.113L212.426 149.785C203.008 154.477 192.633 156.93 182.113 156.945H144.664ZM224 256.945V268.945C224 282.199 213.254 292.945 200 292.945C186.746 292.945 176 282.199 176 268.945V256.945L181.336 260.945H218.664L224 256.945ZM240 256.633V244.945L256 232.945V140.945C256 127.688 245.254 116.945 232 116.945H226.68C215.106 109.91 186.289 108.488 165.879 114.871C142.992 120.492 127.184 141.391 128 164.945V172.945H144V232.945L160 244.945V256.594L102.258 271.113C84.461 275.555 71.9806 291.555 72.0001 309.895V331.496C56.2345 302.305 47.9845 269.645 48.0001 236.465V133.648L200 57.6484L352 133.648V236.465C352 237.383 351.945 238.297 351.938 239.207C328.606 243.379 306.781 253.602 288.641 268.855L240 256.633ZM376 492.945C309.727 492.945 256 439.219 256 372.945C256 306.668 309.727 252.945 376 252.945C442.274 252.945 496 306.668 496 372.945C495.926 439.188 442.242 492.867 376 492.945Z" fill="#111E6C"/>
<path d="M416 140.945H512V156.945H416V140.945Z" fill="#76BA1B"/>
<path d="M416 172.945H480V188.945H416V172.945Z" fill="#76BA1B"/>
<path d="M416 204.945H448V220.945H416V204.945Z" fill="#76BA1B"/>
<path d="M346.543 367.289L318.266 339.008L273.008 384.258L346.543 457.793L470.992 333.344L425.734 288.098L346.543 367.289ZM346.543 435.168L295.633 384.258L318.266 361.633L346.543 389.91L425.742 310.711L448.375 333.336L346.543 435.168Z" fill="#76BA1B"/>
</g>
<defs>
<clipPath id="clip0">
<rect width="512" height="512" fill="white"/>
</clipPath>
</defs>
</svg>
