<svg width="479" height="479" viewBox="0 0 479 479" fill="none" xmlns="http://www.w3.org/2000/svg">
<g clip-path="url(#clip0)">
<path d="M392 319.492H344V335.492H392V319.492Z" fill="#76BA1B"/>
<path d="M328 319.492H280V335.492H328V319.492Z" fill="#76BA1B"/>
<path d="M264 319.492H216V335.492H264V319.492Z" fill="#76BA1B"/>
<path d="M471.896 165.916L313.6 7.59601C309.105 3.05801 302.98 0.50801 296.592 0.51601H296.52C290.174 0.51901 284.096 3.07001 279.648 7.59601L111.728 175.492H24C10.745 175.492 0 186.237 0 199.492V423.492C0 436.747 10.745 447.492 24 447.492H142.528L166.4 471.388C170.895 475.926 177.02 478.476 183.408 478.468H183.472C189.82 478.466 195.902 475.915 200.352 471.388L224.272 447.492H408C421.255 447.492 432 436.747 432 423.492V239.764L471.856 199.908C476.405 195.455 478.973 189.361 478.984 182.996C479.008 176.582 476.454 170.428 471.896 165.916ZM370.128 86.772L281.408 175.492H213.472L336.16 52.804L370.128 86.772ZM290.976 18.876C294.019 15.759 299.013 15.699 302.131 18.743C302.176 18.787 302.221 18.831 302.264 18.876L324.848 41.492L190.84 175.492H134.352L290.976 18.876ZM189.024 460.108C187.561 461.636 185.539 462.502 183.424 462.508C181.28 462.503 179.228 461.639 177.728 460.108L165.16 447.492H201.648L189.024 460.108ZM416 423.492C416 427.91 412.418 431.492 408 431.492H24C19.582 431.492 16 427.91 16 423.492V311.492H416V423.492ZM416 295.492H16V247.492H416V295.492ZM416 231.492H16V199.492C16 195.074 19.582 191.492 24 191.492H408C412.418 191.492 416 195.074 416 199.492V231.492ZM460.584 188.556L432 217.14V199.492C432 186.237 421.255 175.492 408 175.492H304L381.408 98.084L460.552 177.228C462.089 178.734 462.954 180.796 462.952 182.948C462.95 185.06 462.096 187.082 460.584 188.556Z" fill="#111E6C"/>
<path d="M76.7281 415.708C77.8961 414.698 78.9901 413.604 80.0001 412.436C90.5791 424.758 108.756 427.099 122.112 417.86C130.732 411.833 135.906 402.01 136 391.492C136 373.819 121.673 359.492 104 359.492C102.412 359.47 100.826 359.604 99.2641 359.892L99.0561 359.948C98.9761 359.948 98.8961 359.948 98.8241 359.948C91.4951 361.166 84.8301 364.927 80.0001 370.572C68.4401 357.204 48.2311 355.739 34.8641 367.3C21.4961 378.86 20.0311 399.069 31.5921 412.436C43.1521 425.804 63.3601 427.269 76.7281 415.708ZM101.976 375.66C102.643 375.533 103.321 375.477 104 375.492C112.837 375.492 120 382.655 120 391.492C119.992 394.877 118.889 398.169 116.856 400.876C116.568 401.268 116.344 401.676 116.016 402.084C115.96 402.148 115.88 402.188 115.816 402.252C112.794 405.589 108.502 407.493 104 407.492C95.1651 407.341 88.1241 400.057 88.2751 391.222C88.4091 383.377 94.2111 376.786 101.976 375.66ZM56.0001 375.492C64.8371 375.492 72.0001 382.655 72.0001 391.492C72.0001 400.329 64.8371 407.492 56.0001 407.492C47.1631 407.492 40.0001 400.329 40.0001 391.492C40.0001 382.655 47.1631 375.492 56.0001 375.492Z" fill="#76BA1B"/>
</g>
<defs>
<clipPath id="clip0">
<rect width="478.984" height="478.984" fill="white"/>
</clipPath>
</defs>
</svg>
