<svg width="166" height="109" viewBox="0 0 166 109" fill="none" xmlns="http://www.w3.org/2000/svg">
<path d="M83.2342 57.0229C97.4061 57.0229 108.895 45.4401 108.895 31.1521C108.895 16.864 97.4061 5.28125 83.2342 5.28125C69.0623 5.28125 57.5737 16.864 57.5737 31.1521C57.5737 45.4401 69.0623 57.0229 83.2342 57.0229Z" fill="white"/>
<path fill-rule="evenodd" clip-rule="evenodd" d="M83.2342 0C100.288 0 114.133 13.9354 114.133 31.1521C114.133 48.3459 100.288 62.3042 83.2342 62.3042C66.1575 62.3042 52.3354 48.3459 52.3354 31.1521C52.3354 13.9354 66.1575 0 83.2342 0ZM83.2342 7.14388C96.3754 7.14388 107.047 17.9032 107.047 31.1521C107.047 44.401 96.3754 55.1603 83.2342 55.1603C70.0931 55.1603 59.4212 44.401 59.4212 31.1521C59.4212 17.9032 70.0931 7.14388 83.2342 7.14388Z" fill="#111E6C"/>
<path fill-rule="evenodd" clip-rule="evenodd" d="M76.4209 24.0631C76.4209 24.0631 76.4753 24.1729 76.557 24.2827C76.666 24.3651 76.8249 24.4475 76.9883 24.42C77.1517 24.42 77.3423 24.3376 77.4513 24.2278C77.533 24.1454 77.5602 24.0631 77.6147 23.8983C77.6692 23.7061 77.7781 23.459 77.9688 23.2667C78.1322 23.0791 78.4 22.9418 78.6451 22.8594C78.9175 22.8045 79.1898 22.8045 79.4077 22.832C79.6483 22.8869 79.8389 22.9693 79.9751 23.0517C80.1385 23.102 80.2475 23.1844 80.3019 23.2393C80.3564 23.2942 80.3836 23.3491 80.3564 23.3491C80.3292 23.3491 80.2202 23.2942 80.0841 23.2667C79.9479 23.2118 79.7572 23.1844 79.5711 23.1569C79.3532 23.1295 79.1353 23.1295 78.8902 23.1844C78.6451 23.2393 78.4 23.3217 78.2366 23.459C78.0505 23.5963 77.9143 23.761 77.8598 23.8708C77.7781 23.9807 77.6692 24.0905 77.6964 24.1454C77.7236 24.1729 77.8598 24.2827 77.9688 24.3376C78.1049 24.42 78.3183 24.5024 78.5362 24.5848C78.754 24.6351 79.0809 24.6351 79.3532 24.6077C79.6256 24.5848 79.9479 24.5024 80.1658 24.3926C80.4109 24.2827 80.4381 24.0631 80.5471 24.0081C80.656 23.9532 80.7377 23.9807 80.7922 24.0081C80.8739 24.0081 80.9284 24.0631 80.9556 24.0905C81.0101 24.0905 81.0101 24.0905 81.0101 23.9807C81.0101 23.8983 80.9828 23.7335 80.9011 23.5413C80.8194 23.3491 80.6832 23.102 80.7922 23.102C80.8739 23.0791 81.1417 23.2942 81.3596 23.4864C81.5502 23.7061 81.6319 23.8983 81.6592 24.2003C81.8498 26.1682 81.7954 23.8159 81.7954 23.5413C81.7954 23.2942 81.8771 23.2393 81.9043 23.1844C81.9043 23.1295 81.8498 23.102 81.7137 23.0242C81.6047 22.9693 81.3868 22.8594 81.1417 22.7221C80.9011 22.5574 80.6288 22.3652 80.3836 22.2553C80.1113 22.1455 79.8934 22.1181 79.5711 22.1181C79.2443 22.1455 78.8358 22.173 78.5089 22.3652C78.1821 22.5025 77.9143 22.8045 77.7236 23.0791C77.533 23.3766 77.424 23.6786 77.3151 23.8708C77.2062 24.0905 77.1245 24.1729 76.9883 24.2278C76.8521 24.2553 76.6887 24.2278 76.5843 24.1729C76.4753 24.1454 76.4209 24.0631 76.4209 24.0631ZM94.8276 35.2846C94.6097 36.1907 94.3691 37.8611 93.9334 39.4995C93.4704 41.115 92.8212 42.703 91.7591 43.9616C90.7014 45.1972 89.2352 46.0988 88.1776 46.648C87.1154 47.1651 86.4663 47.3299 86.6841 47.6045C86.902 47.879 88.0414 48.236 89.4531 48.5335C90.892 48.863 92.6034 49.1376 94.0968 49.1101C95.563 49.1101 96.784 48.8355 97.8417 48.2085C98.8721 47.6045 99.7164 46.7029 100.583 45.5222C101.455 44.346 102.322 42.8953 102.976 41.5818C103.625 40.2684 104.06 39.0922 104.333 38.1861C104.632 37.312 104.741 36.7353 104.687 36.4378C104.605 36.1358 104.333 36.1083 104.006 36.4104C103.706 36.7079 103.352 37.3669 103.139 37.4767C102.948 37.5591 102.894 37.1197 102.758 36.8177C102.622 36.5156 102.376 36.3829 102.077 37.1747C101.782 37.971 101.4 39.6917 100.774 41.2248C100.125 42.758 99.1989 44.1263 98.577 44.7853C97.9506 45.4169 97.6238 45.362 97.7055 45.0325C97.8144 44.703 98.3047 44.1538 98.8222 43.2522C99.3351 42.3507 99.907 41.1425 100.343 39.829C100.774 38.543 101.074 37.1747 101.101 36.4104C101.155 35.6415 100.91 35.4768 100.665 35.4493C100.447 35.3944 100.179 35.4768 99.907 35.3944C99.6347 35.312 99.3079 35.0649 99.09 35.1198C98.8766 35.2022 98.7677 35.5592 98.4681 35.6415C98.1957 35.7514 97.76 35.5317 97.4604 35.2846C97.1653 35.0374 97.0019 34.7674 96.784 34.7674C96.5934 34.7674 96.3755 35.0374 96.2393 35.1198C96.1031 35.1747 96.0487 35.0374 95.9397 34.8498C95.8353 34.6576 95.6719 34.4654 95.4813 34.4105C95.2906 34.3281 95.0455 34.4105 94.8276 35.2846ZM96.0487 39.6643C95.7536 40.2958 95.2089 41.6916 94.6369 42.8403C94.0423 43.989 93.4159 44.9226 92.8757 45.6045C92.3582 46.291 91.9225 46.7029 91.7318 46.918C91.5412 47.1651 91.5956 47.1926 91.7046 47.1926C91.8408 47.1651 92.0586 47.0827 92.4672 46.7303C92.8757 46.3734 93.4704 45.7418 93.9878 45.0874C94.5008 44.4009 94.9365 43.6641 95.2906 42.9776C95.6447 42.2683 95.8898 41.6093 96.0487 40.9777C96.2393 40.3782 96.3482 39.829 96.3755 39.4995C96.4027 39.1746 96.3483 39.0373 96.0487 39.6643ZM71.8861 35.312C71.8589 35.7788 71.7227 36.4378 71.8589 37.4767C71.9951 38.4881 72.3991 39.8839 73.2434 41.2523C74.0559 42.6207 75.277 43.9616 77.3151 45.2796C79.3805 46.5931 82.2584 47.879 84.8094 48.6433C87.3333 49.4396 89.5348 49.7417 91.1099 49.9018C92.6851 50.0941 93.6065 50.149 93.9061 50.4236C94.233 50.7256 93.9061 51.2199 93.0346 51.7645C92.1676 52.2862 90.7559 52.8857 88.8267 53.325C86.8748 53.7644 84.4281 54.039 81.8226 53.8468C79.2171 53.6546 76.4481 52.9406 73.8925 51.7095C71.3414 50.4785 68.9538 48.6982 67.2152 46.9729C65.4495 45.2247 64.3101 43.5543 63.493 41.9388C62.6533 40.3233 62.1086 38.8176 62.0813 38.0488C62.0268 37.312 62.5171 37.312 62.8984 37.3943C63.3069 37.4492 63.5747 37.5865 63.7654 37.614C63.9288 37.6415 63.956 37.5591 64.0377 37.5865C64.1195 37.614 64.2284 37.7513 64.3646 38.1311C64.528 38.543 64.6914 39.202 64.932 39.8016C65.2043 40.3782 65.5584 40.8725 65.6401 40.7626C65.749 40.6253 65.5856 39.8565 65.4495 39.1746C65.3133 38.4881 65.2043 37.8886 65.2043 37.3943C65.2043 36.8726 65.3133 36.4653 65.4495 36.3006C65.5856 36.1358 65.749 36.2456 65.8852 36.3006C66.0214 36.3555 66.1031 36.3829 66.2121 36.2182C66.321 36.0534 66.4526 35.7239 66.6705 35.5042C66.8612 35.312 67.1335 35.2297 67.3786 35.4219C67.5965 35.5866 67.7872 36.026 68.0278 36.6255C68.2456 37.257 68.4908 38.0488 68.9265 39.1471C69.385 40.2684 70.0114 41.7191 70.6651 42.8129C71.3142 43.9341 71.9951 44.7304 72.1857 44.8128C72.3446 44.8952 72.0496 44.2636 71.6683 43.3346C71.2597 42.433 70.8013 41.2523 70.5017 40.1311C70.1748 39.0098 70.0114 37.916 70.0659 37.0648C70.1204 36.2182 70.3927 35.5866 70.7195 35.1747C71.0418 34.7674 71.4504 34.6027 71.6683 34.6301C71.9134 34.6576 71.9406 34.8773 71.8861 35.312ZM74.4917 47.9065C75.1726 48.2635 76.557 49.165 78.0232 49.824C79.4894 50.4785 81.0645 50.8904 82.5852 51.1924C84.1058 51.5173 85.5947 51.737 86.6297 51.9018C87.6329 52.0665 88.1776 52.1489 88.2865 52.2862C88.3682 52.4235 88.0142 52.5608 87.1971 52.6432C86.3846 52.6981 85.0818 52.6706 83.6701 52.5059C82.2856 52.3411 80.7649 52.0665 79.3805 51.5723C77.9688 51.0551 76.7159 50.3412 75.7944 49.6867C74.9002 49.0277 74.3555 48.4511 74.0831 48.0713C73.8108 47.6868 73.8108 47.5221 74.4917 47.9065ZM74.4644 34.8223C74.1376 34.7949 73.6247 34.7949 73.1889 34.9047C72.7804 35.01 72.4808 35.2022 72.4263 35.8338C72.3446 36.4653 72.5353 37.5316 72.8893 38.5156C73.2434 39.527 73.7563 40.4606 74.41 41.2798C76.4481 43.8014 81.0101 46.0164 83.779 47.1376C83.779 47.1376 90.1022 45.4672 91.1099 42.9776C91.1916 42.8953 91.2461 42.8129 91.3278 42.7305C91.464 42.5932 91.5956 42.433 91.7318 42.2134C92.3038 41.2248 92.8212 39.3668 93.1435 37.9938C93.4431 36.6255 93.5521 35.7514 93.6065 35.2022C93.661 34.6576 93.6338 34.4654 93.3342 34.3281C93.0346 34.2183 92.4672 34.1633 91.9769 34.2183C91.6501 34.2732 90.7014 33.5592 90.7286 33.8613C90.7559 34.5203 90.1022 35.1198 90.0205 35.312C89.9433 35.4768 89.8616 35.5866 89.7527 35.6965C89.2352 36.1907 89.1807 36.4653 88.6905 37.0648C88.636 37.1747 88.1503 37.1747 88.0686 37.257C87.9869 37.312 87.9324 37.4218 87.7963 37.5591C87.6601 37.6964 87.4694 37.8611 87.3333 37.971C87.1971 38.0762 87.1154 38.1037 86.902 38.2135C86.6841 38.3234 86.3846 38.543 86.1394 38.6803C85.8943 38.7902 85.7309 38.8176 85.5947 38.9274C85.4358 39.0373 85.2724 39.202 85.0818 39.3393C84.9184 39.472 84.7277 39.5544 84.5643 39.6368C84.4009 39.6917 84.2375 39.7192 84.0514 39.7741C83.888 39.829 83.6701 39.9114 83.5339 39.9114C83.425 39.9114 83.3705 39.8839 83.0981 39.829C82.8258 39.7741 82.3673 39.7192 81.986 39.6368C81.5775 39.527 81.2506 39.4217 81.0101 39.257C80.7649 39.0922 80.6288 38.8725 80.4109 38.7627C80.2202 38.6254 80.0023 38.5979 79.7572 38.543C79.5439 38.4606 79.2715 38.3783 79.0809 38.2135C78.863 38.0762 78.6723 37.8886 78.4545 37.7238C78.2366 37.5591 77.996 37.4218 77.8053 37.312C77.6419 37.2021 77.5602 37.1197 77.5058 37.0099C77.424 36.9275 77.3968 36.8452 77.1517 36.6804C76.9338 36.5431 76.5298 36.3555 76.2302 36.0809C75.9579 35.8063 75.7672 35.4768 75.631 35.2297C75.5221 34.9825 75.4404 34.8223 75.3859 34.7125C75.3314 34.6027 75.3042 34.5478 75.2497 34.5203C74.6279 34.3556 74.7096 34.8498 74.4644 34.8223ZM72.7531 26.8822C72.8076 26.8822 72.9166 27.0469 73.08 27.1568C73.2434 27.2666 73.4613 27.3215 73.543 27.349C73.6519 27.4039 73.5974 27.4588 73.5702 27.5641C73.5157 27.6739 73.4613 27.8386 73.4613 27.9759C73.4885 28.0034 73.5157 28.0034 73.543 28.0309C73.7336 28.1956 73.8108 28.3604 73.8925 28.4977C73.9742 28.635 74.0287 28.7448 74.1648 28.7722C74.2193 28.7722 74.301 28.7448 74.3827 28.7173C74.3555 28.58 74.301 28.4427 74.2466 28.3329C74.1921 28.1956 74.1648 28.0583 74.2193 27.6739C74.2738 27.3215 74.4372 26.69 74.5189 26.1957C74.4644 26.3055 74.41 26.3879 74.3827 26.3879C74.301 26.4428 74.3555 26.1957 74.3555 25.9531C74.3555 25.7335 74.2738 25.5413 74.1104 25.3765C74.0559 25.3216 73.9742 25.2941 73.9197 25.2392C73.9197 25.2667 73.9197 25.2667 73.9197 25.2941C73.8653 25.4314 73.6791 25.6236 73.6519 25.7335C73.5974 25.8433 73.6519 25.8982 73.7336 25.9806C73.8108 26.0584 73.9197 26.1682 73.947 26.3055C74.0014 26.4154 74.0014 26.5527 73.9742 26.69C73.9197 26.7998 73.8653 26.9371 73.7609 26.9371C73.6791 26.9645 73.5702 26.8822 73.4613 26.7723C73.3523 26.6625 73.2434 26.5252 73.1344 26.2506C73.0527 25.9806 72.9983 25.5687 72.971 25.2392C72.971 25.0745 72.971 24.9372 72.9983 24.8273C72.7531 24.7175 72.5353 24.6077 72.3718 24.4475C72.1313 24.2278 71.9951 23.9807 71.9678 23.9807C71.9406 23.9807 71.9951 24.2553 72.0768 24.5299C72.1857 24.7999 72.3174 25.1019 72.4535 25.3765C72.5625 25.6511 72.6987 25.8982 72.6987 25.9806C72.6714 26.0355 72.5353 25.9257 72.3718 25.7884C72.213 25.6511 71.9951 25.5138 71.8317 25.2667C71.6955 25.047 71.5865 24.7175 71.4504 24.3651C71.3142 23.9807 71.1508 23.5688 71.0146 23.1844C70.9057 22.8045 70.8285 22.475 70.8013 22.173C70.7468 21.8435 70.7468 21.5185 70.8013 21.1616C70.8512 20.8321 70.9329 20.5026 71.0418 20.3927C71.178 20.2829 71.3142 20.4202 71.4776 20.6398C71.6683 20.887 71.8589 21.189 71.9678 21.4087C72.0496 21.5963 72.0768 21.7062 72.0496 21.5689C72.0223 21.4636 71.9406 21.1067 71.8589 20.8046C71.7772 20.4751 71.641 20.173 71.5048 19.9305C71.3687 19.7108 71.2052 19.5186 71.0691 19.3264C70.9601 19.1342 70.8512 18.942 70.8784 18.7223C70.8784 18.5072 71.0146 18.2326 71.0963 18.0679C71.178 17.8757 71.2597 17.7658 71.3142 17.5736C71.3959 17.3814 71.4504 17.1068 71.6138 16.7819C71.7227 16.5347 71.8589 15.9307 72.2674 16.1503C72.3219 16.1778 72.2674 15.6835 72.2947 15.6561C73.1344 14.4799 73.7064 14.782 74.0831 15.6057C74.0559 15.3861 74.0831 15.2213 74.0831 15.084C74.0831 14.9193 74.0559 14.8094 73.947 14.6447C73.8153 14.4799 73.6247 14.2602 73.6519 14.1001C73.6519 13.9079 73.8925 13.7431 73.9742 13.5783C74.0831 13.4136 74.0014 13.2488 74.0831 13.0292C74.1648 12.782 74.41 12.512 74.6823 12.3198C74.9274 12.1276 75.1998 12.0727 75.3314 12.0178C75.4949 11.9628 75.5493 11.9354 75.5766 12.1276C75.5766 12.3473 75.5493 12.782 75.631 12.7271C75.7127 12.6447 75.9034 12.0727 76.0668 11.7706C76.203 11.4686 76.2847 11.4137 76.4753 11.3313C76.6932 11.2489 76.9883 11.1437 77.2334 11.0613C77.4785 10.9789 77.6147 10.9514 77.7781 11.0064C77.9415 11.0887 78.1049 11.2764 78.1594 11.496C78.1866 11.3588 78.2638 11.194 78.3455 11.0887C78.4545 10.9514 78.5906 10.8691 78.6996 10.7867C78.8358 10.7318 78.9447 10.7043 79.0809 10.7043C79.2171 10.7043 79.3805 10.7318 79.5439 10.7318C79.6801 10.7043 79.7845 10.6769 79.9206 10.6219C80.0568 10.567 80.2202 10.5121 80.3836 10.5121C80.5471 10.4846 80.7377 10.5121 80.9284 10.5396C81.119 10.567 81.2779 10.6219 81.4958 10.6219C81.7136 10.6219 81.9588 10.5945 82.1222 10.5945C82.2856 10.6219 82.3673 10.7043 82.5307 10.8965C82.558 10.924 82.6124 10.9789 82.6397 11.0064C82.6124 10.9789 82.6124 10.924 82.6124 10.8691C82.5852 10.7867 82.6669 10.6494 82.7168 10.5945C82.7985 10.5121 82.8802 10.5121 83.0437 10.5121C83.2071 10.5396 83.425 10.5945 83.6973 10.5945C83.9697 10.6219 84.2647 10.5945 84.5371 10.6219C84.8094 10.6494 85.0818 10.7318 85.3814 10.8142C85.6764 10.8965 86.0033 10.9514 86.2211 11.0064C86.439 11.0338 86.548 11.0338 86.7659 11.1711C86.8748 11.2215 87.011 11.3313 87.1426 11.4686C87.1699 11.4137 87.1971 11.3588 87.2243 11.3313C87.3333 11.2215 87.5511 11.2215 87.9052 11.3038C88.2865 11.3862 88.7994 11.5235 89.1535 11.7706C89.5348 11.9903 89.7255 12.3198 89.8344 12.6768C89.9433 13.0292 89.9433 13.4411 90.0795 13.798C90.2112 14.1824 90.4835 14.4799 90.7014 14.782C90.892 15.084 91.0555 15.3861 91.1099 15.4135C91.1644 15.4684 91.1644 15.2488 91.0827 15.0291C91.0282 14.8094 90.8648 14.5897 90.7014 14.3701C90.5652 14.155 90.4018 13.9628 90.3201 13.7706C90.2656 13.6058 90.2929 13.4411 90.2384 13.2488C90.2112 13.0841 90.1022 12.8644 90.1567 12.8644C90.2112 12.837 90.4018 13.0017 90.5652 13.2488C90.7559 13.4685 90.892 13.7706 91.1916 14.0177C91.5185 14.2602 91.9497 14.5074 92.2765 14.8369C92.6034 15.1938 92.794 15.6606 92.8485 16.0679C92.9029 16.4524 92.8212 16.7544 92.8212 17.0565C92.8212 17.3539 92.9029 17.6285 92.9302 17.6011C92.9574 17.5736 92.8757 17.2441 92.9302 17.1388C92.9847 17.0565 93.1708 17.1892 93.3069 17.5736C93.4159 17.9306 93.5248 18.5621 93.6065 19.1067C93.661 19.6559 93.7155 20.1227 93.7155 20.4476C93.7155 20.7771 93.661 20.9419 93.5793 21.1066C93.5248 21.2439 93.4431 21.3812 93.3886 21.5735C93.3342 21.7611 93.2797 21.9808 93.0891 22.2828C92.9302 22.5574 92.6306 22.9144 92.331 23.1844C92.0859 23.404 91.8135 23.5688 91.6229 23.7335C91.7046 24.1454 91.868 24.7724 91.8952 24.8822C91.9225 24.9921 91.9497 25.6511 91.9225 25.7609C91.8952 25.8982 91.7863 26.063 91.5684 26.1682C91.3823 26.2781 91.0827 26.3604 90.9193 26.3604C90.892 26.4154 90.892 26.4703 90.8648 26.5252C90.8103 26.7449 90.7014 26.9096 90.6469 27.1018C90.5925 27.3215 90.5925 27.5686 90.6469 27.7288C90.6742 27.8936 90.7286 27.921 90.7286 27.921C90.7559 27.921 90.7014 27.8386 90.7286 27.7288C90.7831 27.5915 90.8648 27.4588 90.9465 27.3215C91.0555 27.2117 91.1644 27.1018 91.2189 26.992C91.2461 26.8822 91.2461 26.7723 91.3278 26.8272C91.3551 26.8547 91.3551 26.8547 91.3823 26.8822C91.4368 26.7998 91.4912 26.7449 91.5412 26.69C91.6773 26.5527 91.7318 26.4703 91.868 26.3604C91.9769 26.2232 92.1404 26.063 92.2493 25.7884C92.3582 25.5138 92.4127 25.1294 92.4944 24.8273C92.5489 24.5299 92.6306 24.3102 92.6578 24.2553C92.6851 24.2003 92.6578 24.3376 92.6851 24.6077C92.6851 24.9097 92.7395 25.349 92.7123 25.6785C92.6851 26.0355 92.6034 26.2781 92.4672 26.4703C92.3582 26.6625 92.1948 26.7998 92.0586 26.9371C91.9225 27.1018 91.7863 27.2666 91.6773 27.4588C91.7318 27.7014 91.7591 27.921 91.7046 28.1407C91.6773 28.3878 91.5684 28.635 91.5457 28.9095C91.5457 29.1796 91.6501 29.4816 91.6773 29.7287C91.7046 29.9759 91.6773 30.1681 91.6501 30.3054C91.5956 30.4701 91.5412 30.5754 91.5185 30.6852C91.4912 30.7951 91.5185 30.8774 91.5185 31.0147C91.4912 31.1795 91.464 31.3442 91.4095 31.5639C91.3823 31.7561 91.3278 31.9483 91.1916 32.1085C91.0555 32.2733 90.8648 32.4105 90.7286 32.5753C90.6197 32.7126 90.538 32.8773 90.5107 33.0146C90.4835 33.1245 90.4835 33.2069 90.429 33.1794C90.4018 33.1245 90.3201 32.9872 90.2384 32.8224C90.1567 32.6577 90.0523 32.4929 90.025 32.3007C89.9706 32.081 89.9433 31.811 89.9978 31.5914C90.025 31.3717 90.1295 31.1795 90.1295 31.0971C90.1567 31.0422 90.1022 31.0971 90.025 31.2069C89.9433 31.3442 89.8344 31.5639 89.7799 31.811C89.7255 32.0536 89.6982 32.3282 89.7799 32.6577C89.8616 32.9597 90.025 33.3441 90.075 33.6965C90.1022 34.0535 89.9978 34.4105 89.8344 34.6851C89.6982 34.9322 89.4803 35.1198 89.3169 35.312C89.1807 35.5042 89.099 35.6965 89.0446 35.8338C88.9901 35.971 88.9629 36.0809 88.8812 36.1633C88.7722 36.2731 88.6088 36.3555 88.4772 36.4378C88.341 36.4928 88.232 36.5431 88.1503 36.598C88.0959 36.6529 88.0686 36.7353 88.0686 36.6804C88.0959 36.6529 88.1231 36.5156 88.2048 36.3555C88.2865 36.1907 88.3955 35.9985 88.4227 35.8063C88.4772 35.6141 88.4772 35.4219 88.4499 35.2022C88.4499 35.0146 88.4227 34.8224 88.3955 34.8498C88.3682 34.9047 88.341 35.1747 88.2865 35.3944C88.232 35.5866 88.1503 35.6965 88.0959 35.8612C88.0142 36.026 87.9597 36.2182 87.9052 36.3829C87.878 36.5431 87.8507 36.6804 87.769 36.7902C87.7146 36.9001 87.6056 37.0099 87.4694 37.1197C87.3605 37.2021 87.2243 37.2845 87.0654 37.3943C86.8748 37.5042 86.6569 37.6415 86.3301 37.8886C85.976 38.1037 85.572 38.4606 85.2724 38.6529C84.9456 38.8176 84.755 38.8451 84.6733 38.8176C84.6188 38.7902 84.7005 38.7078 84.7822 38.5979C84.8639 38.4606 84.9456 38.2684 85.0001 38.0762C85.0273 37.8886 85.0273 37.6689 85.0001 37.4492C85.0001 37.257 84.9456 37.0648 85.0001 36.9275C85.0546 36.7628 85.1907 36.6255 85.2997 36.4928C85.4086 36.3829 85.4903 36.2731 85.4359 36.2731C85.3814 36.3006 85.1907 36.4378 85.0001 36.5706C84.8094 36.7079 84.646 36.8726 84.5643 37.0923C84.5098 37.312 84.5371 37.5865 84.5098 37.8337C84.4826 38.0762 84.4009 38.2684 84.292 38.4332C84.1876 38.5705 84.0786 38.6529 83.9152 38.7352C83.7518 38.8176 83.5339 38.8725 83.3432 38.9274C83.2343 38.9549 83.1526 38.9824 83.0981 38.9824C83.0164 39.0098 82.9347 39.0098 82.853 39.0098C82.7985 39.0098 82.7441 39.0098 82.6669 39.0098C82.5852 38.9824 82.5035 38.9549 82.4218 38.9274C82.3128 38.9 82.1767 38.8725 82.1222 38.8725C82.0677 38.9 82.0677 38.9549 81.986 38.9274C81.8771 38.9 81.6864 38.7902 81.4685 38.6803C81.2506 38.5705 81.0101 38.4332 80.8467 38.2684C80.6832 38.1037 80.6015 37.916 80.5198 37.6964C80.4381 37.5042 80.3564 37.2845 80.2475 37.1197C80.1658 36.955 80.0568 36.8177 79.8934 36.6804C79.7345 36.5431 79.5166 36.4104 79.5166 36.4928C79.5439 36.5431 79.7618 36.8177 79.8934 37.0648C80.0568 37.312 80.0841 37.5042 80.1385 37.6689C80.1658 37.8611 80.1658 37.9984 80.2475 38.1311C80.3019 38.2684 80.4381 38.3783 80.3564 38.3508C80.2747 38.3234 80.0296 38.1586 79.8389 38.0213C79.6528 37.8886 79.5166 37.7513 79.3805 37.6415C79.2443 37.5316 79.1081 37.4492 78.9719 37.3669C78.8358 37.312 78.7268 37.2296 78.6451 37.1472C78.5906 37.0923 78.5362 37.0099 78.5089 36.9824C78.4817 36.955 78.4545 36.955 78.3728 36.955C78.2956 36.955 78.1322 36.9275 77.9415 36.8177C77.7509 36.7079 77.5602 36.4928 77.4513 36.2731C77.3423 36.0534 77.3696 35.8063 77.5058 35.7239C77.6147 35.6415 77.8326 35.7239 77.9688 35.7514C78.1049 35.8063 78.1322 35.8338 78.0777 35.7514C78.0232 35.669 77.8598 35.4493 77.7236 35.3395C77.5602 35.2022 77.3968 35.1747 77.2879 35.1747C77.1517 35.1747 77.0427 35.2022 76.8793 35.1747C76.6932 35.1747 76.4209 35.1198 76.2575 35.0146C76.0668 34.9047 75.9851 34.7674 75.8762 34.6027C75.7672 34.4379 75.631 34.2732 75.6038 34.1633C75.5766 34.0535 75.631 33.9986 75.74 33.9162C75.8217 33.8338 75.9306 33.724 75.9851 33.5638C76.0668 33.3991 76.0668 33.2069 76.0668 33.0146C76.0396 32.8499 76.0123 32.6851 75.9851 32.7126C75.9306 32.7401 75.8762 32.9323 75.7944 33.0696C75.7127 33.2069 75.631 33.2618 75.5493 33.3441C75.4676 33.4265 75.4131 33.5364 75.3632 33.5638C75.3087 33.5867 75.2543 33.5364 75.1726 33.454C75.1181 33.3441 75.0092 33.2069 74.9274 33.0421C74.8185 32.8499 74.6823 32.6302 74.4917 32.3007C74.301 31.9483 74.0287 31.509 73.9742 31.0422C73.897 30.58 74.0287 30.1132 74.1376 29.7562C74.1648 29.6738 74.1921 29.5914 74.2193 29.5365C74.0831 29.4541 73.9197 29.3168 73.8153 29.1521C73.7064 28.9645 73.6791 28.7448 73.5157 28.5251C73.3251 28.278 73.0527 28.0309 72.8893 27.7837C72.7259 27.5686 72.6714 27.349 72.617 27.0744C72.5897 26.8272 72.5625 26.4977 72.5897 26.4703C72.617 26.4428 72.6714 26.6625 72.7259 26.8822H72.7531ZM83.9424 27.4039C83.9424 27.294 83.888 27.1842 83.8335 27.0195C83.779 26.8822 83.7245 26.7449 83.6973 26.635C83.6701 26.4977 83.6701 26.4154 83.6973 26.4154C83.6973 26.4154 83.7518 26.5252 83.8335 26.6625C83.9152 26.7723 84.0786 26.9096 84.2375 27.0744C84.4009 27.2391 84.5915 27.4039 84.755 27.5641C84.8911 27.7014 85.0001 27.8386 85.0818 27.9759C85.1907 28.1132 85.2724 28.278 85.2997 28.3604C85.3269 28.4702 85.2997 28.4977 85.2724 28.4977C85.218 28.4702 85.1635 28.3878 85.109 28.3054C85.0546 28.2231 85.0001 28.1682 84.9456 28.1132C84.9456 28.278 84.9456 28.4427 84.9456 28.635C84.9184 28.8272 84.8911 29.1246 84.755 29.2894C84.6188 29.4267 84.4009 29.4267 84.2375 29.3992C84.0786 29.3718 83.9969 29.3168 83.9152 29.2894C83.8335 29.2619 83.779 29.2894 83.6428 29.3718C83.5067 29.4816 83.2888 29.6464 83.1254 29.7013C82.9892 29.7562 82.9075 29.7013 82.7713 29.6189C82.6351 29.564 82.4762 29.4816 82.3401 29.4541C82.2039 29.4267 82.0949 29.4541 82.0132 29.4816C81.9043 29.5091 81.7954 29.5365 81.6319 29.5365C81.4685 29.5365 81.2506 29.5091 81.0918 29.4816C80.9556 29.4267 80.8739 29.3718 80.7922 29.3168C80.6832 29.2894 80.5743 29.2345 80.5198 29.1246C80.3292 28.8546 80.2202 28.6624 80.2475 28.4702C80.2202 28.4977 80.2202 28.4977 80.193 28.5526C80.1385 28.6075 80.0296 28.7173 79.9479 28.7997C79.8662 28.8821 79.8117 28.937 79.8117 28.8821C79.8389 28.8272 79.8934 28.6624 80.0023 28.4427C80.1385 28.2231 80.2747 27.921 80.4926 27.6739C80.7377 27.4588 81.0101 27.294 81.1962 27.0744C81.3868 26.8547 81.4958 26.5801 81.5502 26.4703C81.6047 26.3604 81.6592 26.4154 81.6319 26.6076C81.5775 26.7998 81.4685 27.1293 81.4958 27.4313C81.4958 27.7288 81.6047 27.8936 81.1962 27.9759C81.0918 28.0034 80.9828 28.0583 80.8739 28.1682C80.7922 28.278 80.7377 28.4427 80.7105 28.6075C80.6832 28.7997 80.7105 28.9919 80.7922 29.0697C80.8739 29.1246 81.0101 29.0972 81.1735 29.0423C81.3324 28.9645 81.4958 28.9095 81.6864 28.9095C81.8771 28.8821 82.0677 28.937 82.2584 29.0194C82.4762 29.0972 82.6896 29.207 82.853 29.2619C83.0164 29.2894 83.0981 29.2619 83.2343 29.1796C83.3705 29.1246 83.5067 29.0194 83.6428 28.937C83.779 28.8546 83.9152 28.8272 84.0514 28.7997C84.1558 28.7722 84.2375 28.7997 84.3464 28.7997C84.4281 28.8272 84.5371 28.8272 84.5915 28.7173C84.646 28.6075 84.646 28.3604 84.646 28.2231C84.5643 27.5915 83.9152 28.1682 83.9424 27.4039ZM87.0881 32.4655C87.1154 32.438 87.1971 32.3007 87.2516 32.136C87.3333 32.0032 87.3877 31.8659 87.4694 31.7287C87.5511 31.5914 87.6329 31.3991 87.6873 31.2069C87.7418 31.0147 87.769 30.795 87.6873 30.5754C87.6056 30.3603 87.4422 30.1406 87.3333 29.9759C87.2243 29.8111 87.1426 29.7013 87.1154 29.564C87.0881 29.4541 87.1154 29.3168 86.902 29.1246C86.7114 28.937 86.3028 28.6899 86.3573 28.6624C86.439 28.635 86.9837 28.8272 87.2243 28.8821C87.4694 28.9645 87.3877 28.8821 87.2516 28.6899C87.1426 28.4977 86.9837 28.1956 87.0881 27.9759C87.2243 27.7288 87.6601 27.5915 88.0142 27.3764C88.3682 27.1568 88.636 26.8272 88.8267 26.5252C88.9901 26.2232 89.0718 25.9531 89.0718 25.6785C89.0718 25.4314 88.9901 25.1843 89.0173 24.9372C89.0446 24.69 89.1807 24.42 89.2625 24.1729C89.3714 23.9532 89.4259 23.761 89.4259 23.5139C89.3442 23.3491 89.2897 23.1844 89.2352 22.9967C89.1263 22.5849 89.099 22.0631 89.1807 21.6238C89.2625 21.1616 89.4259 20.8046 89.5348 20.5575C89.5893 20.2829 89.5893 20.1227 89.4803 19.8207C89.3986 19.5461 89.208 19.1342 89.1807 18.7223C89.1807 18.6948 89.1807 18.6674 89.1535 18.6399C89.1263 18.7498 89.0718 18.8596 89.0173 18.9969C88.9084 19.2715 88.7994 19.5461 88.7994 19.7657C88.7722 19.9854 88.8267 20.1456 88.9356 20.3103C89.0173 20.4476 89.1263 20.6124 89.1807 20.6948C89.208 20.7771 89.1535 20.7497 88.9629 20.6398C88.7994 20.5026 88.5271 20.2829 88.341 20.0129C88.1776 19.7383 88.0959 19.4088 88.1231 19.0518C88.1503 18.7223 88.2593 18.3699 88.2865 18.0679C88.3137 17.7658 88.2593 17.5462 88.2048 17.3539C88.1503 17.1892 88.0959 17.0839 88.0142 16.9741C87.9597 16.8643 87.878 16.7544 87.8507 16.7544C87.8507 16.7819 87.9052 16.9192 87.9597 17.0565C88.0142 17.2166 88.0414 17.4089 88.0414 17.6011C88.0142 17.7933 87.9869 18.013 87.9052 18.2875C87.8235 18.5347 87.6873 18.8321 87.6329 19.0793C87.5784 19.3539 87.6056 19.5735 87.6329 19.7108C87.6873 19.8207 87.7418 19.8481 87.6601 19.7108C87.5784 19.5461 87.3605 19.244 87.2243 19.0518C87.0881 18.8321 87.0382 18.7772 86.9837 18.6445C86.9293 18.5347 86.8748 18.3699 86.902 18.0953C86.902 17.8207 86.9565 17.4638 86.9837 17.1617C87.011 16.8643 86.9837 16.6446 86.8748 16.4249C86.7386 16.2052 86.5207 16.013 86.3029 15.8757C86.0577 15.7659 85.8398 15.711 85.5947 15.6332C85.3541 15.5508 85.1363 15.4135 84.9728 15.3311C84.8367 15.2488 84.7822 15.1938 84.8367 15.2213C84.8911 15.2762 85.0273 15.3861 85.1635 15.5233C85.2997 15.6561 85.3814 15.7934 85.4359 15.8483C85.5176 15.9307 85.5176 15.9581 85.4903 15.9307C85.4359 15.9307 85.3269 15.8483 85.1635 15.7659C85.0273 15.711 84.8367 15.6332 84.5098 15.5508C84.2102 15.4684 83.8063 15.3586 83.425 15.1389C83.0437 14.9193 82.7168 14.5897 82.5852 14.1779C82.449 13.798 82.449 13.3312 82.5035 12.9193C82.4762 13.0017 82.449 13.0841 82.4218 13.139C82.2856 13.5783 82.3128 13.9353 82.4218 14.2602C82.5307 14.6172 82.7441 14.9467 82.9347 15.2488C83.1254 15.5508 83.2888 15.8208 83.316 16.1778C83.3432 16.5347 83.2343 16.9741 82.9347 17.3814C82.6079 17.8207 82.0677 18.2326 81.6047 18.5072C81.1689 18.7772 80.8194 18.942 80.7377 18.942C80.656 18.942 80.8467 18.8047 80.9828 18.6445C81.1417 18.5072 81.2234 18.3425 81.2234 18.315C81.2234 18.2601 81.1417 18.3425 81.0101 18.5072C80.8466 18.6445 80.656 18.8596 80.4381 18.9969C80.2202 19.1616 79.9751 19.244 79.7572 19.3264C79.5711 19.3813 79.3805 19.4637 79.2988 19.4637C79.2443 19.4362 79.2988 19.3539 79.4077 19.244C79.4894 19.1067 79.5984 18.9145 79.6755 18.7223C79.73 18.5347 79.73 18.3425 79.6483 18.1502C79.5711 17.9306 79.4349 17.6834 79.4077 17.656C79.3532 17.6285 79.4349 17.8207 79.4622 17.9855C79.5166 18.1502 79.5166 18.2875 79.5166 18.315C79.5166 18.3425 79.5166 18.2875 79.3805 18.1228C79.2443 17.958 78.9992 17.6834 78.754 17.4089C78.5089 17.1617 78.291 16.8917 78.1322 16.5622C77.9688 16.2602 77.8598 15.8757 77.8598 15.4684C77.8598 15.0565 77.9143 14.5897 77.9143 14.3152C77.887 14.2328 77.887 14.155 77.8598 14.1001C77.8598 14.2877 77.8598 14.5074 77.8053 14.6996C77.7236 15.1938 77.424 15.711 77.2879 16.1229C77.1245 16.5073 77.07 16.7544 77.0427 16.9741C76.9883 17.1892 76.961 17.4089 76.8793 17.6011C76.7976 17.7933 76.666 17.9855 76.5843 18.0953C76.5026 18.2326 76.4481 18.315 76.4209 18.2052C76.4209 18.0953 76.4209 17.8207 76.4209 17.7933C76.4209 17.7658 76.3936 18.013 76.2847 18.2326C76.1757 18.4523 76.0123 18.6674 75.9034 18.9145C75.8217 19.1342 75.7944 19.3539 75.8217 19.6284C75.8489 19.8756 75.9034 20.1456 75.8762 20.228C75.8762 20.2829 75.7672 20.1456 75.6583 19.958C75.5766 19.7932 75.4949 19.5735 75.4131 19.3539C75.3314 19.1342 75.277 18.9145 75.2225 18.6399C75.1998 18.3699 75.1998 18.0404 75.0636 17.7109C74.9274 17.3814 74.6823 17.0839 74.4917 16.727C74.4917 16.6995 74.4644 16.672 74.4372 16.6446C74.764 17.9031 74.873 19.3539 74.873 19.3539C74.6006 18.7772 74.8185 19.7108 74.8457 19.8481C74.9002 20.173 75.0364 20.5026 75.1726 20.8321C75.277 21.1616 75.4131 21.4636 75.4676 21.816C75.5221 22.1455 75.4949 22.5299 75.4676 22.8045C75.4131 23.0791 75.3587 23.2118 75.3314 23.3491C75.3042 23.4864 75.3042 23.5963 75.277 23.7885C75.277 23.9258 75.2497 24.0631 75.2497 24.2003C75.2497 24.3102 75.277 24.3926 75.3042 24.5024C75.4404 24.9921 75.7127 25.349 75.8762 25.6236C76.0123 25.8982 75.9851 26.0859 76.0123 26.3055C76.0396 26.5252 76.094 26.7998 76.4753 27.0469C76.8793 27.3215 77.6419 27.5641 77.9688 27.9759C78.291 28.3878 78.1821 28.937 78.2638 29.0972C78.3455 29.2894 78.6179 29.0697 78.7813 28.9645C78.9447 28.8272 78.9992 28.7997 78.9175 28.937C78.8085 29.0972 78.5906 29.4541 78.4 29.6738C78.2366 29.9209 78.1322 30.0308 78.1049 30.1681C78.0505 30.2779 78.1049 30.4427 78.1322 30.5754C78.1594 30.7401 78.1821 30.8774 78.1322 31.0147C78.1049 31.152 78.0232 31.2893 78.0232 31.4266C78.0232 31.5639 78.1049 31.7012 78.1821 31.8385C78.291 32.0032 78.4272 32.136 78.5089 32.2183C78.5362 32.2458 78.5634 32.2733 78.5634 32.2733C78.5906 32.2458 78.5906 32.1909 78.6179 32.136C78.6451 32.0307 78.6996 31.9483 78.7813 31.8385C78.863 31.7561 78.9719 31.6737 79.0264 31.5364C79.1081 31.4266 79.1353 31.2893 79.1626 31.1795C79.1898 31.0696 79.1626 31.0147 79.1353 30.9323C79.1353 30.85 79.1081 30.7401 79.0809 30.6578C79.0809 30.5479 79.0809 30.4701 79.0809 30.3877C79.1081 30.3054 79.1626 30.2505 79.1626 30.2505C79.1898 30.2505 79.1898 30.3328 79.1898 30.3877C79.2171 30.4427 79.2443 30.4976 79.2715 30.5754C79.3532 30.6578 79.4622 30.7676 79.5166 30.85C79.5711 30.9323 79.5166 31.0422 79.5439 31.0147C79.5938 30.9873 79.6755 30.8774 79.8117 30.7401C79.9479 30.6303 80.1113 30.525 80.2202 30.4976C80.3564 30.4427 80.4381 30.4427 80.4926 30.4427C80.5743 30.4152 80.6015 30.4152 80.6015 30.4701C80.6015 30.4976 80.5471 30.5754 80.4926 30.6303C80.4654 30.6852 80.4654 30.7127 80.4654 30.7127C80.4654 30.7127 80.4654 30.7127 80.5471 30.6578C80.6288 30.6303 80.7377 30.525 80.8194 30.4976C80.9011 30.4427 80.9556 30.4701 81.06 30.4152C81.1962 30.3877 81.4141 30.3328 81.5502 30.223C81.6864 30.0857 81.7954 29.8935 81.8226 29.866C81.8771 29.866 81.9043 30.0033 81.986 30.1406C82.0677 30.2779 82.2039 30.4152 82.3673 30.4427C82.5035 30.4701 82.6896 30.3603 82.7985 30.3603C82.9075 30.3328 82.962 30.4152 83.0437 30.3603C83.1254 30.3328 83.2343 30.1681 83.2888 30.1132C83.3432 30.0582 83.3432 30.0582 83.425 30.1132C83.4794 30.1406 83.5884 30.1955 83.6701 30.223C83.7518 30.2505 83.779 30.2779 83.779 30.2779C83.779 30.2779 83.7518 30.2505 83.7518 30.1955C83.7518 30.1681 83.7518 30.0857 83.779 30.0582C83.779 30.0308 83.779 30.0033 83.9424 30.0582C84.0741 30.1132 84.3464 30.2505 84.4826 30.1955C84.6188 30.1406 84.6188 29.8935 84.6188 29.8111C84.6188 29.7287 84.6733 29.7836 84.7277 29.9209C84.7822 30.0857 84.8639 30.3054 84.9728 30.4152C85.0546 30.525 85.1363 30.5525 85.1907 30.58C85.2452 30.6028 85.2724 30.6303 85.2997 30.6303C85.3269 30.6303 85.3269 30.6028 85.3541 30.4427C85.3814 30.2779 85.4086 29.9759 85.4359 30.0033C85.4631 30.0582 85.4858 30.4152 85.4858 30.6303C85.513 30.85 85.513 30.9323 85.5675 31.0147C85.6492 31.0696 85.7309 31.1795 85.8671 31.2344C85.976 31.2893 86.085 31.3442 86.085 31.2893C86.085 31.2619 85.976 31.1246 85.9488 30.9873C85.9216 30.8774 85.976 30.7127 86.0033 30.6852C86.0305 30.6852 86.0305 30.7951 86.085 30.8774C86.1394 30.9873 86.2484 31.0696 86.3573 31.152C86.4935 31.2069 86.6297 31.2893 86.7659 31.4266C86.8748 31.5364 86.952 31.7012 87.0064 31.8659C87.0337 32.0307 87.0609 32.1634 87.0609 32.3282C87.0609 32.3831 87.0881 32.438 87.0881 32.4929C87.0881 32.4929 87.0881 32.4929 87.0881 32.4655ZM90.6197 24.5299C90.6742 24.69 90.7286 24.8273 90.7559 24.9372C90.8376 25.2392 90.9193 25.4863 90.9193 25.7609C90.9465 25.8158 90.9465 25.8708 90.9465 25.9531C91.001 25.8982 91.0555 25.8433 91.1372 25.8158C91.2734 25.706 91.4095 25.6236 91.4368 25.5413C91.4368 25.4589 91.4095 25.349 91.4095 25.2392H91.3823C91.3551 25.1843 91.3006 25.1019 91.2461 25.0195C91.2189 24.9372 91.2189 24.8273 91.2189 24.7175C91.2461 24.6077 91.2733 24.5024 91.3006 24.3926C91.3278 24.2827 91.3278 24.1729 91.3278 24.0905C91.3278 24.0631 91.3006 24.0356 91.2461 23.9807C91.1372 24.0905 91.0282 24.1729 90.9465 24.2827C90.8103 24.4475 90.7286 24.6077 90.7014 24.6351C90.6469 24.6351 90.6742 24.5024 90.6469 24.4749C90.6469 24.4475 90.6469 24.4749 90.6197 24.5299ZM80.0568 31.152C79.9751 31.2069 79.8389 31.2893 79.7572 31.3991C79.5984 31.5639 79.5439 31.8385 79.5439 32.0032C79.5439 32.1634 79.6483 32.1909 79.7028 32.2733C79.7572 32.3282 79.7845 32.4105 79.7572 32.5204C79.7572 32.6577 79.73 32.795 79.7845 32.9323C79.8117 33.0696 79.9479 33.2069 80.1385 33.2892C80.3019 33.3991 80.4926 33.4814 80.6015 33.5867C80.7377 33.6691 80.8194 33.8064 80.9284 33.8613C81.0645 33.9162 81.2234 33.9162 81.3868 33.8338C81.5502 33.724 81.7136 33.5318 81.7681 33.3716C81.8226 33.1794 81.7954 33.0146 81.7137 32.8773C81.6319 32.7126 81.523 32.5753 81.4685 32.438C81.3868 32.3282 81.3868 32.1909 81.3596 32.081C81.3324 31.9758 81.3051 31.9209 81.1962 31.8659C81.0645 31.7836 80.8739 31.7287 80.9284 31.7287C81.0101 31.7287 81.3324 31.7836 81.6592 31.811C81.9588 31.8659 82.2856 31.8934 82.5307 31.8934C82.7713 31.9209 82.9619 31.9209 83.2343 31.9209C83.5067 31.9209 83.8335 31.8934 84.1013 31.8659C84.4009 31.811 84.6188 31.7287 84.646 31.7561C84.6733 31.7836 84.5371 31.8934 84.4009 31.9758C84.2647 32.081 84.1558 32.1634 84.1285 32.2733C84.1013 32.3831 84.1558 32.4929 84.2375 32.5478C84.3464 32.6302 84.4554 32.6302 84.5643 32.6302C84.6733 32.6028 84.7822 32.5753 84.8094 32.6028C84.8094 32.6302 84.7005 32.7126 84.5643 32.8224C84.4554 32.9323 84.3192 33.0696 84.2375 33.097C84.1285 33.1245 84.0241 33.0696 84.0241 33.1245C84.0241 33.1794 84.1013 33.3442 84.1558 33.4814C84.2375 33.6416 84.292 33.7515 84.4281 33.8064C84.5371 33.8338 84.7277 33.8064 84.8639 33.7515C85.0273 33.6691 85.1635 33.5592 85.3541 33.5089C85.5448 33.454 85.7854 33.4265 86.0033 33.3716C86.1939 33.3167 86.3301 33.2069 86.4118 32.9048C86.439 32.6302 86.439 32.2458 86.4935 32.0307C86.4663 32.0307 86.4663 32.0307 86.439 32.0032C86.2484 31.9209 86.0033 31.8659 85.8126 31.7836C85.622 31.7012 85.5176 31.6188 85.4359 31.509C85.3269 31.3991 85.2724 31.2893 85.1635 31.2069C85.0546 31.152 84.8911 31.152 84.7005 31.0971C84.4826 31.0422 84.2102 30.9323 83.9697 30.8774C83.7245 30.8225 83.5067 30.8225 83.2888 30.8225C83.0709 30.85 82.8802 30.9049 82.7441 30.9049C82.5852 30.9323 82.5035 30.9323 82.3945 30.8774C82.2856 30.85 82.1494 30.7951 81.9315 30.7676C81.7409 30.7676 81.4958 30.8225 81.2779 30.8774C81.0645 30.9323 80.8467 31.0147 80.6832 31.0422C80.5471 31.0971 80.4109 31.0971 80.3019 31.1246C80.2202 31.1246 80.1385 31.1246 80.0568 31.152ZM77.7781 13.9353C77.7781 13.9628 77.7781 13.9628 77.7781 13.9902C77.7781 13.9628 77.7781 13.9628 77.7781 13.9353ZM90.892 22.9144C90.9465 22.7771 91.1372 22.3103 91.3823 21.9258C91.6229 21.5735 91.9497 21.2989 92.0859 20.8595C92.2221 20.3927 92.1948 19.7932 92.0859 19.244C92.0042 18.6948 91.8408 18.2326 91.7046 17.8757C91.5412 17.5462 91.3823 17.3539 91.3006 17.1114C91.2189 16.8917 91.2189 16.6171 91.2733 16.5897C91.3278 16.5897 91.464 16.8368 91.6773 17.1892C91.9225 17.5736 92.2765 18.0679 92.4672 18.5347C92.6578 18.9694 92.6851 19.3813 92.6578 19.8207C92.6034 20.2554 92.4672 20.6948 92.2765 21.0243C92.0859 21.3538 91.868 21.5735 91.6501 21.8435C91.4368 22.0906 91.2461 22.3926 91.1099 22.6398C90.9738 22.8594 90.8648 23.0517 90.892 22.9144ZM77.8053 13.9902V14.0177V13.9902ZM77.8053 14.0177H77.8326C77.8326 14.0451 77.8598 14.0726 77.8598 14.1001C77.8598 14.0726 77.8326 14.0451 77.8326 14.0177H77.8053ZM72.9166 16.3975C72.6714 16.2327 72.4535 16.1778 72.3991 16.2876C72.3174 16.3975 72.3991 16.6446 72.5353 16.8643C72.6714 17.0839 72.8893 17.2716 73.0527 17.5187C73.1889 17.7658 73.2978 18.0679 73.434 18.315C73.543 18.5896 73.6791 18.7772 73.8925 18.9145C74.1376 19.0518 74.4644 19.1067 74.4372 19.0244C74.41 18.9145 74.0559 18.6948 73.8653 18.3425C73.6519 18.013 73.5974 17.6011 73.4885 17.2441C73.3523 16.8643 73.1344 16.5622 72.9166 16.3975ZM75.6038 13.6058C75.6038 13.7431 75.5493 13.9353 75.6038 14.1275C75.631 14.2877 75.74 14.4525 75.8762 14.5897C76.0123 14.7545 76.1485 14.8918 76.203 15.0565C76.2575 15.2213 76.203 15.4135 76.1213 15.6057C76.0668 15.7934 75.9579 15.9856 75.9034 16.2052C75.8762 16.4524 75.8489 16.727 75.8762 16.9192C75.9034 17.1114 75.9306 17.2441 75.8762 17.1114C75.8489 17.0016 75.74 16.6171 75.7127 16.2602C75.7127 15.9032 75.8217 15.5783 75.7944 15.3037C75.7672 15.0291 75.631 14.8643 75.5221 14.6996C75.4131 14.5623 75.3314 14.4525 75.3314 14.2328C75.3042 14.0451 75.4131 13.7431 75.4676 13.5783C75.5221 13.4136 75.5493 13.3861 75.5766 13.3861C75.6038 13.4136 75.631 13.4685 75.6038 13.6058ZM84.5371 11.9079C84.5371 11.9628 84.6188 12.1825 84.6188 12.3198C84.6188 12.4846 84.5371 12.5944 84.4826 12.7546C84.4009 12.9193 84.3464 13.1665 84.3737 13.3861C84.3737 13.5783 84.4826 13.7706 84.6188 13.9353C84.7277 14.1001 84.8911 14.2328 85.0546 14.3701C85.2452 14.5074 85.4631 14.6447 85.6492 14.7545C85.8398 14.8369 85.976 14.8918 85.976 14.8643C85.9488 14.8369 85.7854 14.727 85.5448 14.5348C85.3269 14.3701 85.0273 14.1504 84.8639 13.9353C84.7005 13.6882 84.646 13.496 84.6733 13.3038C84.7005 13.1115 84.8094 12.9468 84.8639 12.8095C84.9184 12.6722 84.9728 12.5395 84.9456 12.4297C84.9184 12.2924 84.8639 12.1551 84.755 12.0452C84.6733 11.9354 84.5643 11.853 84.5371 11.9079ZM80.9011 21.1341C81.1962 21.1616 81.7137 21.2165 82.2311 21.2165C82.7441 21.2165 83.2615 21.1616 83.6701 21.1066C84.0786 21.0243 84.4009 20.9419 84.5371 20.9144C84.7005 20.887 84.7005 20.9144 84.4826 21.0243C84.2647 21.1341 83.8335 21.3263 83.316 21.4362C82.7985 21.5185 82.2039 21.5185 81.7137 21.4636C81.2234 21.4087 80.8739 21.2714 80.7377 21.189C80.5743 21.1341 80.6288 21.1067 80.9011 21.1341ZM78.1049 20.53C78.3455 20.4751 78.8085 20.3378 79.2715 20.2829C79.73 20.228 80.1658 20.228 80.6015 20.2829C81.0101 20.3378 81.3868 20.4476 82.0132 20.4751C82.6079 20.5026 83.4794 20.4202 84.183 20.3103C84.8911 20.2005 85.4903 20.0129 85.8126 19.903C86.1394 19.7657 86.2484 19.7383 86.0305 19.7657C85.8126 19.7932 85.2997 19.9305 84.5643 19.958C83.8335 20.0129 82.9075 19.9854 82.1222 19.958C81.3596 19.903 80.7649 19.8481 80.2202 19.903C79.6755 19.9305 79.1626 20.0403 78.754 20.173C78.3455 20.3103 78.0232 20.4476 77.9143 20.53C77.7781 20.6124 77.8326 20.6124 78.1049 20.53ZM83.0981 23.0517C83.0709 23.0791 83.1798 23.1569 83.2615 23.2393C83.316 23.3217 83.3432 23.404 83.3432 23.4864C83.3432 23.5688 83.316 23.6786 83.316 23.7885C83.316 23.8983 83.3432 24.0081 83.3977 24.3926C83.425 24.7724 83.5067 25.4314 83.5339 25.5962C83.5611 25.7609 83.5884 25.4314 83.5884 25.047C83.5884 24.6626 83.5884 24.2553 83.5884 24.0081C83.6156 23.761 83.6701 23.6786 83.7245 23.6237C83.7518 23.5963 83.8063 23.5963 83.8063 23.6512C83.8063 23.7061 83.8063 23.8159 83.779 23.8983C83.779 23.9807 83.779 24.0631 83.8063 24.0905C83.8335 24.118 83.8607 24.118 83.9697 24.0905C84.0514 24.0631 84.183 24.0081 84.3192 24.0356C84.4554 24.0356 84.5915 24.0905 84.7822 24.1729C84.9456 24.2553 85.1635 24.3376 85.4086 24.3651C85.6492 24.42 85.9216 24.4475 86.1939 24.42C86.439 24.3926 86.6569 24.3102 86.8748 24.1454C87.0609 24.0081 87.2516 23.761 87.3333 23.6237C87.3877 23.459 87.3605 23.404 87.2788 23.3217C87.1971 23.2393 87.0609 23.102 86.902 23.0242C86.7386 22.9144 86.5207 22.8594 86.2211 22.832C85.9216 22.8045 85.5448 22.832 85.2724 22.8869C85.0001 22.9693 84.8639 23.0517 84.7822 23.1295C84.6733 23.1844 84.646 23.2118 84.7277 23.1295C84.8094 23.0517 85.0273 22.832 85.2724 22.6672C85.5176 22.5299 85.7854 22.4476 86.1122 22.4476C86.4118 22.475 86.7386 22.5574 86.9837 22.7221C87.2243 22.8594 87.3605 23.0517 87.4694 23.1844C87.5784 23.3217 87.6873 23.459 87.8235 23.459C87.9597 23.4864 88.1503 23.404 88.3137 23.2942C88.4499 23.1844 88.5543 23.0517 88.636 22.9418C88.6905 22.832 88.7177 22.7771 88.636 22.6398C88.5543 22.5025 88.3955 22.3103 88.3137 22.2004C88.2048 22.0906 88.1503 22.0631 88.2048 22.1181C88.232 22.173 88.3137 22.3377 88.3682 22.4476C88.4499 22.5849 88.4772 22.6672 88.3955 22.7771C88.2865 22.8869 88.0959 23.0242 87.9324 23.0242C87.7418 23.0242 87.6056 22.8869 87.4422 22.6947C87.2788 22.475 87.1426 22.2004 86.9565 22.0082C86.7931 21.8435 86.5752 21.7611 86.2484 21.7885C85.9216 21.816 85.5176 21.8984 85.1907 22.0082C84.8639 22.1181 84.646 22.2279 84.4554 22.2828C84.2647 22.3652 84.1013 22.3652 83.9969 22.3926C83.888 22.4201 83.8335 22.4476 83.779 22.5299C83.7245 22.6123 83.6973 22.7496 83.6428 22.832C83.5884 22.9144 83.5611 22.9693 83.425 22.9967C83.316 23.0242 83.1254 23.0242 83.0981 23.0517ZM84.5915 23.7335C84.646 23.6512 84.7822 23.4864 84.9184 23.3766C85.0546 23.2667 85.218 23.1569 85.4631 23.102C85.6764 23.0517 85.976 23.0242 86.2484 23.0791C86.4935 23.102 86.7386 23.2118 86.8748 23.2942C87.011 23.404 87.0609 23.459 87.0881 23.5139C87.1154 23.5413 87.1154 23.5688 87.0881 23.6512C87.0382 23.7061 86.9565 23.8159 86.8476 23.9258C86.7386 24.0081 86.5752 24.0905 86.3846 24.1454C86.1667 24.1729 85.8943 24.2003 85.6764 24.1729C85.4358 24.1729 85.2452 24.0905 85.0818 24.0356C84.9184 23.9807 84.755 23.9258 84.6733 23.8983C84.5643 23.8434 84.5371 23.8159 84.5915 23.7335ZM80.3836 23.8434C80.3019 23.761 80.1658 23.6237 79.9751 23.5139C79.7845 23.4315 79.5439 23.3766 79.326 23.3491C79.0809 23.3491 78.863 23.404 78.6451 23.459C78.4272 23.5413 78.2366 23.6786 78.1049 23.761C77.996 23.8708 77.9415 23.9532 77.9688 24.0081C77.996 24.0905 78.1049 24.1729 78.2366 24.2553C78.4 24.3102 78.5634 24.3651 78.754 24.3926C78.9447 24.42 79.1081 24.42 79.2988 24.3926C79.4894 24.3651 79.6801 24.3102 79.8662 24.2553C80.0296 24.2003 80.2202 24.118 80.3019 24.0356C80.4109 23.9807 80.4381 23.9258 80.3836 23.8434Z" fill="#111E6C"/>
<path d="M57.7373 17.299L58.0369 16.6994L61.7319 17.1113L61.4323 17.7108L60.6697 17.6285L60.0206 18.9145L60.5335 19.4911L60.2112 20.1227L57.7373 17.299ZM58.7178 17.4363L59.5576 18.3973L59.9933 17.5736L58.7178 17.4363ZM61.0782 12.2648L61.5412 11.7157C61.7863 11.4411 61.9997 11.2489 62.1631 11.1711C62.3265 11.0887 62.4899 11.0612 62.6806 11.0887C62.8712 11.1161 63.0346 11.1939 63.198 11.3312C63.3887 11.496 63.4931 11.6882 63.5203 11.8804C63.5748 12.1001 63.5476 12.2923 63.4386 12.512C63.3887 12.6218 63.2525 12.8094 63.0346 13.084L64.1467 14.0451L63.711 14.5348L61.0782 12.2648ZM62.5444 12.6493L62.6806 12.4845C62.7895 12.3747 62.8712 12.2648 62.8712 12.2099C62.8985 12.1275 62.9257 12.0726 62.8985 12.0177C62.8712 11.9353 62.844 11.8804 62.7895 11.8255C62.6806 11.7431 62.5716 11.7157 62.4627 11.7706C62.381 11.798 62.272 11.8804 62.1359 12.0452L61.9997 12.1825L62.5444 12.6493ZM65.395 8.02245L65.9398 7.61056L68.0823 10.3748L67.5694 10.7866L65.395 8.02245ZM70.6924 8.62197L70.7196 6.65408L69.1172 5.50081L71.0147 4.51687L71.287 5.0935L70.3383 5.58319L71.3415 6.32457L71.3143 7.55565L72.3174 7.03393L72.617 7.63802L70.6924 8.62197ZM74.4373 3.23088L76.2847 2.6817L76.4754 3.31325L75.849 3.50547L76.6116 6.2422L75.9852 6.40695L75.1999 3.67022L74.6007 3.85785L74.4373 3.23088ZM81.9316 1.83505C82.4218 1.83505 82.8258 1.99981 83.2071 2.35219C83.5612 2.6817 83.7518 3.12104 83.7791 3.64276C83.7791 4.1599 83.6157 4.59924 83.2616 4.95621C82.9348 5.3086 82.5308 5.50081 82.0133 5.52827C81.4958 5.52827 81.0646 5.36352 80.7105 5.01113C80.3565 4.65416 80.1658 4.21482 80.1658 3.72514C80.1386 3.39563 80.2203 3.06612 80.3837 2.79154C80.5199 2.51695 80.7378 2.26982 81.0101 2.10964C81.3052 1.94489 81.6048 1.83505 81.9316 1.83505ZM81.9316 2.48949C81.6048 2.48949 81.3324 2.62678 81.1463 2.84645C80.9284 3.09358 80.8195 3.36817 80.8195 3.72514C80.8467 4.10498 80.9829 4.40703 81.2507 4.6267C81.4686 4.79146 81.7137 4.87383 82.0133 4.87383C82.3129 4.87383 82.5853 4.73654 82.7986 4.51687C83.0165 4.26974 83.0982 3.99515 83.0982 3.67022C83.0982 3.31325 82.962 3.03867 82.7441 2.81899C82.5308 2.59932 82.2584 2.48949 81.9316 2.48949ZM87.3878 2.24236L89.2625 2.57186L89.1536 3.23088L88.5317 3.12104L88.0415 5.91269L87.3606 5.80286L87.878 2.98375L87.2516 2.87391L87.3878 2.24236ZM93.307 3.88531L95.0728 4.57178L94.8549 5.20334L93.6883 4.73654L93.4704 5.3086L94.6098 5.7754L94.3964 6.37949L93.2253 5.91269L92.903 6.75934L94.0424 7.22614L93.7972 7.83024L92.0315 7.14376L93.307 3.88531ZM93.0074 3.67022L92.6034 4.48941L92.1676 4.2972L92.4128 3.42309L93.0074 3.67022ZM98.5499 10.8416L99.2534 8.1872L96.9747 9.68828L96.4028 9.28098L99.4986 7.22614L100.043 7.61056L99.1173 11.2489L98.5499 10.8416ZM103.952 11.1939L104.387 11.7157L103.38 12.5669L104.142 13.4685L105.145 12.5943L105.581 13.1115L102.948 15.386L102.513 14.8917L103.679 13.8803L102.921 13.0017L101.755 13.9902L101.319 13.4959L103.952 11.1939ZM104.687 18.0678L106.639 18.0953L107.778 16.4798L108.759 18.3973L108.159 18.6948L107.674 17.7383L106.966 18.7497L105.745 18.7222L106.235 19.7382L105.663 20.0403L104.687 18.0678Z" fill="white"/>
<path d="M61.1871 43.8289C61.4049 44.2636 61.4322 44.7304 61.2688 45.2247C61.1053 45.6869 60.7785 46.0439 60.3201 46.2635C59.8843 46.4832 59.4213 46.5381 58.9356 46.3734C58.4726 46.2086 58.1185 45.9066 57.9006 45.4398C57.6827 44.9776 57.6555 44.5108 57.8189 44.0165C58.0096 43.5543 58.3092 43.2248 58.7449 43.0051C59.04 42.8403 59.3668 42.7854 59.6936 42.8129C60.0205 42.8403 60.2928 42.9227 60.5606 43.1149C60.833 43.3071 61.0509 43.5268 61.1871 43.8289ZM60.5879 44.0989C60.4562 43.8289 60.2383 43.6366 59.9388 43.5268C59.6392 43.417 59.3396 43.4444 59.04 43.6092C58.6905 43.7739 58.4726 44.044 58.3909 44.3735C58.3364 44.648 58.3636 44.9226 58.4726 45.1698C58.636 45.4398 58.8539 45.632 59.1489 45.7418C59.4485 45.8242 59.7481 45.7967 60.0477 45.6594C60.3473 45.5222 60.5334 45.3071 60.6423 45.005C60.7513 44.703 60.7513 44.4009 60.5879 44.0989ZM63.0073 46.8127L63.4113 47.2749L62.6532 49.9293L64.3918 48.4236L64.8275 48.9454L62.1902 51.2199L61.7862 50.7256L62.5443 48.0987L60.8058 49.6044L60.3745 49.0827L63.0073 46.8127ZM66.321 50.4785L66.8067 50.9178L64.9592 53.0779L65.6945 53.7369L65.286 54.2037L64.0649 53.1328L66.321 50.4785ZM69.0899 52.6706L69.6301 53.023L67.7599 55.9519L67.2152 55.5996L69.0899 52.6706ZM71.532 54.1763L72.0768 54.4188L72.4807 57.1601L73.4612 55.0504L74.0559 55.3524L72.5897 58.5285L72.0223 58.2539L71.6137 55.5446L70.665 57.6224L70.0659 57.3478L71.532 54.1763ZM76.094 56.0069L77.9142 56.556L77.7508 57.1876L76.557 56.8306L76.3664 57.4301L77.5602 57.7871L77.3968 58.3912L76.2029 58.0617L75.9306 58.9358L77.1244 59.2928L76.961 59.9243L75.1181 59.3751L76.094 56.0069ZM81.986 57.0228L82.6623 57.0503L83.8879 60.6062L83.207 60.5788L82.9347 59.8419L81.523 59.8145L81.2234 60.5238L80.547 60.4964L81.986 57.0228ZM82.2856 57.9793L81.7953 59.1555L82.7168 59.1829L82.2856 57.9793ZM88.9083 57.0503L88.5316 57.5674C88.1775 57.2974 87.7962 57.1876 87.3877 57.27C87.0609 57.3249 86.8203 57.4851 86.6296 57.7597C86.4662 58.0068 86.3845 58.3088 86.4662 58.6383C86.4935 58.8809 86.5752 59.0731 86.7113 59.2379C86.8475 59.4026 87.0109 59.5124 87.197 59.5674C87.4149 59.6497 87.6328 59.6497 87.8507 59.6223C88.0413 59.5674 88.2048 59.5124 88.3409 59.4026C88.4771 59.2928 88.636 59.1555 88.7994 58.9083L89.3169 59.2928C89.099 59.5948 88.9083 59.8145 88.6905 59.9518C88.5044 60.0891 88.232 60.1989 87.9596 60.2538C87.4149 60.3316 86.9565 60.2538 86.5479 59.9792C86.1394 59.7047 85.8943 59.2928 85.8126 58.7756C85.7309 58.4187 85.7581 58.1166 85.867 57.8146C85.976 57.5125 86.1666 57.27 86.4118 57.0503C86.6841 56.8306 86.9565 56.6933 87.306 56.6384C87.5783 56.5835 87.8507 56.5835 88.1503 56.6659C88.4226 56.7208 88.6905 56.8581 88.9083 57.0503ZM91.5956 55.627L92.222 55.3799L94.7186 58.1715L94.0695 58.4187L93.552 57.842L92.222 58.3637V59.128L91.5956 59.3751V55.627ZM92.2492 56.3638L92.222 57.6498L93.1162 57.3249L92.2492 56.3638ZM95.1271 54.039L95.808 53.6546C96.2393 53.38 96.5933 53.2427 96.8657 53.2427C97.1653 53.2152 97.4331 53.2976 97.7054 53.4623C97.9778 53.6271 98.2229 53.8742 98.4136 54.2037C98.5498 54.4188 98.6315 54.666 98.6587 54.9131C98.7132 55.1602 98.6859 55.3799 98.6315 55.5721C98.577 55.7918 98.468 55.9519 98.3591 56.1167C98.2229 56.254 97.9506 56.4462 97.5693 56.6659L96.8929 57.0778L95.1271 54.039ZM96.0214 54.2586L97.138 56.1716L97.3832 56.0069C97.651 55.8696 97.8144 55.7094 97.8961 55.5996C97.9778 55.4623 98.0323 55.2975 98.005 55.1053C98.005 54.9405 97.9506 54.7209 97.8144 54.5287C97.651 54.2037 97.4059 54.0115 97.138 53.9291C96.8657 53.8742 96.5661 53.9291 96.212 54.1488L96.0214 54.2586ZM99.0082 51.4075L100.447 50.1764L100.856 50.6707L99.9342 51.4899L100.338 51.9567L101.264 51.1375L101.673 51.6272L100.747 52.4509L101.346 53.1603L102.267 52.3411L102.703 52.8354L101.264 54.0939L99.0082 51.4075ZM101.968 48.6982L102.349 48.1811L104.769 49.0277L103.352 46.8951L103.734 46.3734L106.857 48.0438L106.448 48.5609L104.496 47.4946L105.772 49.4396L105.418 49.9018L103.248 49.1376L104.741 50.808L104.333 51.3022L101.968 48.6982ZM104.9 44.6206L105.227 43.9616L106.611 43.9341L105.799 42.8129L106.099 42.1584L107.429 43.9616L108.759 44.648L108.486 45.2521L107.129 44.5657L104.9 44.6206Z" fill="white"/>
<path d="M56.38 36.0535C56.4073 36.2183 56.4345 36.383 56.4617 36.5981C56.5162 36.7629 56.5434 36.9276 56.5707 37.1473L56.6524 37.4493L56.952 37.367L58.0641 37.1198L58.3365 37.0374L58.282 36.7354C58.2548 36.5981 58.2275 36.4654 58.2003 36.3006C58.173 36.1633 58.1458 36.026 58.1186 35.8338C58.0641 35.6691 58.0641 35.5318 58.0369 35.3945C58.0096 35.2847 57.9824 35.1199 57.9552 34.9597L57.9279 34.6302L57.6283 34.6851C57.2788 34.7401 56.9247 34.795 56.5707 34.8499L55.1045 35.065L55.1317 35.367C55.159 35.6416 55.2134 35.9162 55.2407 36.1908C55.2951 36.4379 55.3496 36.7079 55.4041 36.9825C55.4586 37.2297 55.513 37.5042 55.5675 37.7788C55.6492 38.0488 55.7037 38.296 55.7854 38.5706L55.8671 38.8726L56.1621 38.7902C56.7886 38.598 57.415 38.4333 58.0369 38.2685C58.0913 38.4058 58.1186 38.5431 58.173 38.6804C58.2275 38.9275 58.3092 39.1747 58.3909 39.3943C58.4726 39.6369 58.5816 39.8566 58.6633 40.1037C58.7178 40.241 58.7722 40.3508 58.8267 40.4881L57.306 41.1151C57.2788 41.0602 57.2516 41.0053 57.2243 40.9549C57.1699 40.7902 57.1154 40.6254 57.0337 40.4881C57.0064 40.3508 56.9247 40.1861 56.8703 40.0213L56.8158 39.8291L57.306 39.6643C57.3333 39.7467 57.3605 39.8291 57.3877 39.9115C57.4422 40.0762 57.4967 40.241 57.5739 40.4332L58.1458 40.2135C58.0913 40.0762 58.0369 39.884 57.9552 39.6918C57.9007 39.5271 57.8462 39.3394 57.7917 39.1747L57.6828 38.9001C57.1426 39.0923 56.5979 39.257 56.0305 39.4492L56.1349 39.7193C56.1894 39.9115 56.2439 40.0762 56.2983 40.2135C56.3528 40.3783 56.4073 40.5156 56.4617 40.7078C56.5434 40.8451 56.5979 41.0053 56.6524 41.17C56.7341 41.3622 56.7886 41.4995 56.8703 41.6368L56.9792 41.9114C57.8462 41.5544 58.745 41.1975 59.612 40.8451L59.5031 40.543C59.4213 40.3234 59.3124 40.1037 59.2307 39.884C59.149 39.6369 59.0446 39.4218 58.9629 39.2021C58.8812 38.955 58.8267 38.7353 58.745 38.5157C58.6633 38.2685 58.6088 38.0214 58.5271 37.8063L58.4454 37.5042C57.7373 37.6965 57.0064 37.9161 56.2983 38.1038C56.2439 37.9436 56.2166 37.8063 56.1621 37.6415C56.1077 37.367 56.0577 37.1198 56.0033 36.8452C55.9488 36.5981 55.8943 36.3555 55.8399 36.081C55.8399 35.9162 55.8126 35.7515 55.7854 35.5867L57.415 35.3396L57.4422 35.5043C57.4695 35.6691 57.4967 35.8338 57.4967 35.9437C57.5239 36.081 57.5512 36.2457 57.6011 36.4105L57.6283 36.5706L57.1154 36.7079L57.0609 36.4654C57.0337 36.3006 57.0064 36.1359 56.9792 35.9162L56.38 36.0535Z" fill="white"/>
<path d="M108.922 21.8436C108.976 22.0083 109.031 22.1731 109.113 22.3653C109.167 22.53 109.217 22.7222 109.271 22.887L109.38 23.1845L109.085 23.2943L107.996 23.6238L107.724 23.7062L107.619 23.4316C107.565 23.2943 107.537 23.1295 107.483 22.9968C107.429 22.8595 107.374 22.7222 107.32 22.5575C107.265 22.3927 107.211 22.2554 107.156 22.1181C107.129 22.0083 107.074 21.871 106.993 21.7063L106.884 21.4088L107.183 21.299C107.51 21.1617 107.832 21.0518 108.159 20.9145L109.544 20.3654L109.653 20.6399C109.762 20.8871 109.871 21.1617 109.952 21.4088C110.061 21.6513 110.143 21.8985 110.225 22.1731C110.334 22.4202 110.388 22.6948 110.47 22.9419C110.552 23.2119 110.606 23.4591 110.688 23.7336L110.765 24.0357L110.47 24.1181C109.843 24.2828 109.222 24.4476 108.568 24.6078C108.622 24.745 108.65 24.8823 108.677 25.0471C108.731 25.2942 108.786 25.5414 108.84 25.7885C108.895 26.0356 108.922 26.2782 108.949 26.5253C108.976 26.6626 109.004 26.7999 109.004 26.9372L110.633 26.7175C110.633 26.6351 110.633 26.5802 110.606 26.5253C110.606 26.3605 110.579 26.1958 110.552 26.0356C110.524 25.8709 110.497 25.7061 110.47 25.5414L110.415 25.3491L109.925 25.459C109.925 25.5414 109.952 25.6237 109.952 25.7061C109.98 25.8709 110.034 26.0631 110.061 26.2507L109.462 26.3605C109.435 26.1958 109.408 26.0356 109.353 25.8159C109.326 25.6237 109.299 25.4315 109.271 25.2668L109.194 24.9922C109.762 24.8549 110.334 24.745 110.901 24.6078L110.956 24.9098C110.983 25.102 111.037 25.2668 111.064 25.4315C111.092 25.5688 111.119 25.7336 111.146 25.9258C111.173 26.086 111.201 26.2507 111.228 26.4429C111.228 26.6351 111.255 26.7999 111.282 26.9372L111.31 27.2392C110.361 27.3765 109.435 27.5138 108.486 27.6465L108.459 27.3216C108.404 27.1019 108.377 26.8548 108.35 26.6077C108.323 26.3605 108.268 26.1134 108.241 25.8983C108.187 25.6237 108.132 25.4041 108.078 25.1844C108.023 24.9373 107.969 24.6901 107.914 24.4476L107.832 24.173C108.568 23.9808 109.299 23.7886 110.007 23.5964C109.98 23.4316 109.925 23.2668 109.898 23.1296C109.816 22.8595 109.734 22.6124 109.653 22.3653C109.571 22.1181 109.489 21.871 109.38 21.6239C109.326 21.4637 109.271 21.299 109.222 21.1617L107.674 21.7612L107.728 21.8985C107.805 22.0632 107.86 22.2005 107.887 22.3378C107.941 22.4751 107.996 22.6124 108.05 22.7772L108.105 22.9419L108.595 22.8046L108.541 22.5575C108.486 22.3927 108.404 22.228 108.35 22.0358L108.922 21.8436Z" fill="white"/>
<path d="M56.0303 28.8546C56.0303 29.0422 56.0031 29.207 56.0031 29.4267C55.9758 29.5914 55.9758 29.7836 55.9486 29.9758V30.2779L56.2436 30.3053L57.3875 30.3328L57.6826 30.3603V30.0582C57.7098 29.8935 57.7098 29.7562 57.7098 29.5914C57.7371 29.4541 57.7371 29.2894 57.7643 29.1246C57.7643 28.9644 57.7915 28.7997 57.7915 28.6898C57.8188 28.5526 57.8188 28.3878 57.846 28.223L57.9005 27.921L57.5736 27.8661C57.2241 27.8386 56.8973 27.8112 56.5432 27.7562L55.0498 27.5915L55.0226 27.8935C54.9681 28.1681 54.9409 28.4427 54.9136 28.7173C54.8864 28.9644 54.8592 29.2344 54.8319 29.509C54.8319 29.7836 54.8319 30.0582 54.8047 30.3328C54.8047 30.6028 54.8047 30.8774 54.8047 31.152V31.454H55.1315C55.7852 31.454 56.407 31.454 57.0607 31.454C57.0879 31.5913 57.0879 31.7286 57.0879 31.8934C57.0879 32.1359 57.1152 32.4105 57.1152 32.6302C57.1424 32.8773 57.1696 33.1245 57.1969 33.399C57.2241 33.5089 57.2241 33.6691 57.2513 33.8063L55.6218 34.026C55.6218 33.9436 55.5945 33.8887 55.5945 33.8063C55.5673 33.6691 55.5673 33.5089 55.54 33.3441C55.54 33.1794 55.5128 33.0146 55.5128 32.8224L55.4856 32.6302L56.0031 32.6027C56.0031 32.7126 56.0031 32.7949 56.0257 32.8773C56.0257 33.0421 56.053 33.2068 56.0802 33.4265L56.6794 33.3716C56.6522 33.2068 56.6522 33.0146 56.6249 32.8224C56.5977 32.6302 56.5977 32.438 56.5977 32.2732L56.5705 31.9758C55.9985 32.0032 55.4039 32.0307 54.8319 32.0536L54.8592 32.3556C54.8592 32.5478 54.8864 32.74 54.8864 32.8773C54.9136 33.0421 54.9136 33.2068 54.9409 33.399C54.9409 33.5592 54.9681 33.724 54.9953 33.8887C55.0226 34.0809 55.0498 34.2457 55.077 34.4104L55.1043 34.7125C56.053 34.5752 57.0062 34.4654 57.9549 34.3555L57.9005 34.026C57.8732 33.8063 57.846 33.5592 57.7915 33.3167C57.7643 33.0695 57.7643 32.8224 57.7371 32.6027C57.7098 32.3281 57.7098 32.081 57.6826 31.8659C57.6826 31.6188 57.6826 31.3717 57.6826 31.1245L57.6553 30.8225C56.9245 30.8225 56.1619 30.8225 55.4311 30.8499C55.4311 30.6852 55.4311 30.525 55.4311 30.3603C55.4311 30.0857 55.4311 29.8385 55.4583 29.564C55.4583 29.2894 55.4856 29.0194 55.5128 28.7722C55.54 28.6075 55.5673 28.4427 55.5673 28.278L57.2241 28.4702L57.1969 28.6075C57.1696 28.7722 57.1696 28.937 57.1424 29.0697C57.1424 29.207 57.1152 29.3717 57.1152 29.5365V29.7012H56.5705L56.5977 29.4541C56.5977 29.2894 56.6249 29.0972 56.6522 28.9095L56.0257 28.8546H56.0303Z" fill="white"/>
<path d="M110.443 28.8546C110.443 29.0422 110.47 29.207 110.47 29.4267C110.497 29.5914 110.497 29.7836 110.525 29.9758V30.2779L110.225 30.3053L109.086 30.3328L108.786 30.3603V30.0582C108.759 29.8935 108.759 29.7562 108.759 29.5914C108.732 29.4541 108.732 29.2894 108.704 29.1246C108.704 28.9644 108.677 28.7997 108.677 28.6898C108.65 28.5526 108.65 28.3878 108.623 28.223L108.568 27.921L108.895 27.8661C109.244 27.8386 109.571 27.8112 109.925 27.7562L111.419 27.5915L111.446 27.8935C111.501 28.1681 111.528 28.4427 111.555 28.7173C111.582 28.9644 111.609 29.2344 111.637 29.509C111.637 29.7836 111.637 30.0582 111.664 30.3328C111.664 30.6028 111.664 30.8774 111.664 31.152V31.454H111.337C110.683 31.454 110.062 31.454 109.408 31.454C109.381 31.5913 109.381 31.7286 109.381 31.8934C109.381 32.1359 109.353 32.4105 109.353 32.6302C109.326 32.8773 109.299 33.1245 109.272 33.399C109.244 33.5089 109.244 33.6691 109.217 33.8063L110.847 34.026C110.847 33.9436 110.874 33.8887 110.874 33.8063C110.901 33.6691 110.901 33.5089 110.929 33.3441C110.929 33.1794 110.956 33.0146 110.956 32.8224L110.983 32.6302L110.47 32.6027C110.47 32.7126 110.47 32.7949 110.443 32.8773C110.443 33.0421 110.416 33.2068 110.388 33.4265L109.789 33.3716C109.816 33.2068 109.816 33.0146 109.844 32.8224C109.871 32.6302 109.871 32.438 109.871 32.2732L109.898 31.9758C110.47 32.0032 111.065 32.0307 111.637 32.0536L111.609 32.3556C111.609 32.5478 111.582 32.74 111.582 32.8773C111.555 33.0421 111.555 33.2068 111.528 33.399C111.528 33.5592 111.501 33.724 111.473 33.8887C111.446 34.0809 111.419 34.2457 111.392 34.4104L111.364 34.7125C110.416 34.5752 109.462 34.4654 108.514 34.3555L108.568 34.026C108.595 33.8063 108.623 33.5592 108.677 33.3167C108.704 33.0695 108.704 32.8224 108.732 32.6027C108.759 32.3281 108.759 32.081 108.786 31.8659C108.786 31.6188 108.786 31.3717 108.786 31.1245L108.813 30.8225C109.544 30.8225 110.307 30.8225 111.038 30.8499C111.038 30.6852 111.038 30.525 111.038 30.3603C111.038 30.0857 111.037 29.8385 111.01 29.564C111.01 29.2894 110.983 29.0194 110.956 28.7722C110.929 28.6075 110.901 28.4427 110.901 28.278L109.249 28.4702L109.272 28.6075C109.299 28.7722 109.299 28.937 109.326 29.0697C109.326 29.207 109.353 29.3717 109.353 29.5365V29.7012H109.898L109.871 29.4541C109.871 29.2894 109.844 29.0972 109.816 28.9095L110.443 28.8546Z" fill="white"/>
<path d="M57.5463 21.8436C57.4964 22.0083 57.4147 22.1731 57.3602 22.3653C57.3058 22.53 57.2513 22.7222 57.1968 22.887L57.0879 23.1845L57.3875 23.2943L58.4724 23.6238L58.7447 23.7062L58.8537 23.4316C58.9081 23.2943 58.9354 23.1295 58.9853 22.9968C59.0398 22.8595 59.0942 22.7222 59.1487 22.5575C59.2032 22.3927 59.2576 22.2554 59.3121 22.1181C59.3394 22.0083 59.3938 21.871 59.4755 21.7063L59.5845 21.4088L59.2849 21.299C58.9626 21.1617 58.6358 21.0518 58.3089 20.9145L56.9245 20.3654L56.8155 20.6399C56.7066 20.8871 56.5976 21.1617 56.5159 21.4088C56.407 21.6513 56.3253 21.8985 56.2436 22.1731C56.1346 22.4202 56.0802 22.6948 56.003 22.9419C55.9213 23.2119 55.8668 23.4591 55.7851 23.7336L55.7034 24.0357L56.003 24.1181C56.6249 24.2828 57.2513 24.4476 57.9004 24.6078C57.8459 24.745 57.8187 24.8823 57.7915 25.0471C57.737 25.2942 57.6825 25.5414 57.6281 25.7885C57.5736 26.0356 57.5463 26.2782 57.5191 26.5253C57.4919 26.6626 57.4692 26.7999 57.4692 26.9372L55.8396 26.7175C55.8396 26.6351 55.8396 26.5802 55.8668 26.5253C55.8668 26.3605 55.8941 26.1958 55.9213 26.0356C55.9485 25.8709 55.9758 25.7061 56.003 25.5414L56.0529 25.3491L56.5432 25.459C56.5432 25.5414 56.5159 25.6237 56.5159 25.7061C56.4887 25.8709 56.4342 26.0631 56.407 26.2507L57.0062 26.3605C57.0334 26.1958 57.0606 26.0356 57.1151 25.8159C57.1424 25.6237 57.1696 25.4315 57.1968 25.2668L57.2785 24.9922C56.7066 24.8549 56.1346 24.745 55.5672 24.6078L55.5128 24.9098C55.4855 25.102 55.431 25.2668 55.4038 25.4315C55.3766 25.5688 55.3493 25.7336 55.3221 25.9258C55.2949 26.086 55.2676 26.2507 55.2404 26.4429C55.2404 26.6351 55.2132 26.7999 55.1859 26.9372L55.1587 27.2392C56.1074 27.3765 57.0334 27.5138 57.9821 27.6465L58.0094 27.3216C58.0638 27.1019 58.0911 26.8548 58.1183 26.6077C58.1455 26.3605 58.2 26.1134 58.2272 25.8983C58.2817 25.6237 58.3362 25.4041 58.3907 25.1844C58.4451 24.9373 58.4996 24.6901 58.5541 24.4476L58.6358 24.173C57.9004 23.9808 57.1696 23.7886 56.4615 23.5964C56.4887 23.4316 56.5432 23.2668 56.5704 23.1296C56.6521 22.8595 56.7338 22.6124 56.8155 22.3653C56.8972 22.1181 56.9789 21.871 57.0879 21.6239C57.1424 21.4637 57.1968 21.299 57.2513 21.1617L58.7992 21.7612L58.7447 21.8985C58.663 22.0632 58.6085 22.2005 58.5813 22.3378C58.5268 22.4751 58.4724 22.6124 58.4179 22.7772L58.3634 22.9419L57.8732 22.8046L57.9276 22.5575C57.9821 22.3927 58.0638 22.228 58.1183 22.0358L57.5463 21.8436Z" fill="white"/>
<path d="M110.088 36.0535C110.061 36.2183 110.034 36.383 110.007 36.5981C109.952 36.7629 109.925 36.9276 109.898 37.1473L109.816 37.4493L109.516 37.367L108.404 37.1198L108.132 37.0374L108.186 36.7354C108.214 36.5981 108.241 36.4654 108.268 36.3006C108.295 36.1633 108.323 36.026 108.35 35.8338C108.404 35.6691 108.404 35.5318 108.432 35.3945C108.459 35.2847 108.486 35.1199 108.513 34.9597L108.541 34.6302L108.84 34.6851C109.19 34.7401 109.544 34.795 109.898 34.8499L111.364 35.065L111.337 35.367C111.309 35.6416 111.255 35.9162 111.228 36.1908C111.173 36.4379 111.119 36.7079 111.064 36.9825C111.01 37.2297 110.955 37.5042 110.901 37.7788C110.819 38.0488 110.765 38.296 110.683 38.5706L110.606 38.8726L110.306 38.7902C109.68 38.598 109.058 38.4333 108.432 38.2685C108.377 38.4058 108.35 38.5431 108.295 38.6804C108.241 38.9275 108.159 39.1747 108.078 39.3943C107.996 39.6369 107.887 39.8566 107.805 40.1037C107.751 40.241 107.701 40.3508 107.646 40.4881L109.167 41.1151C109.19 41.0602 109.217 41.0053 109.244 40.9549C109.299 40.7902 109.353 40.6254 109.435 40.4881C109.462 40.3508 109.544 40.1861 109.598 40.0213L109.653 39.8291L109.167 39.6643C109.14 39.7467 109.112 39.8291 109.085 39.9115C109.031 40.0762 108.976 40.241 108.895 40.4332L108.323 40.2135C108.377 40.0762 108.432 39.884 108.513 39.6918C108.568 39.5271 108.622 39.3394 108.677 39.1747L108.786 38.9001C109.326 39.0923 109.871 39.257 110.442 39.4492L110.334 39.7193C110.279 39.9115 110.225 40.0762 110.17 40.2135C110.116 40.3783 110.061 40.5156 110.007 40.7078C109.925 40.8451 109.871 41.0053 109.816 41.17C109.734 41.3622 109.68 41.4995 109.598 41.6368L109.489 41.9114C108.622 41.5544 107.723 41.1975 106.856 40.8451L106.965 40.543C107.047 40.3234 107.156 40.1037 107.238 39.884C107.319 39.6369 107.428 39.4218 107.51 39.2021C107.592 38.955 107.646 38.7353 107.723 38.5157C107.805 38.2685 107.86 38.0214 107.941 37.8063L108.023 37.5042C108.731 37.6965 109.462 37.9161 110.17 38.1038C110.225 37.9436 110.252 37.8063 110.306 37.6415C110.361 37.367 110.415 37.1198 110.47 36.8452C110.524 36.5981 110.579 36.3555 110.629 36.081C110.629 35.9162 110.656 35.7515 110.683 35.5867L109.058 35.3396L109.031 35.5043C109.004 35.6691 108.976 35.8338 108.976 35.9437C108.949 36.081 108.922 36.2457 108.867 36.4105L108.84 36.5706L109.353 36.7079L109.408 36.4654C109.435 36.3006 109.462 36.1359 109.489 35.9162L110.088 36.0535Z" fill="white"/>
<path d="M21.4943 100.776C22.5928 100.776 23.537 101.179 24.3268 101.98C25.1167 102.781 25.5116 103.76 25.5116 104.913C25.5116 106.053 25.1212 107.023 24.3404 107.81C23.5642 108.602 22.6155 109 21.5034 109C20.3368 109 19.37 108.593 18.6028 107.778C17.8312 106.968 17.4453 106.002 17.4453 104.886C17.4453 104.14 17.6223 103.449 17.9809 102.822C18.3395 102.195 18.8343 101.696 19.4607 101.33C20.0917 100.964 20.768 100.776 21.4943 100.776ZM21.4716 102.241C20.7544 102.241 20.1553 102.492 19.6696 102.996C19.1793 103.499 18.9342 104.14 18.9342 104.913C18.9342 105.778 19.2429 106.465 19.8557 106.968C20.3368 107.362 20.8815 107.558 21.4989 107.558C22.1979 107.558 22.7926 107.302 23.2828 106.794C23.773 106.282 24.0182 105.655 24.0182 104.904C24.0182 104.158 23.773 103.531 23.2737 103.014C22.7835 102.497 22.1798 102.241 21.4716 102.241Z" fill="#111E6C"/>
<path d="M29.6875 100.973H31.0901L34.4356 106.126V100.973H35.9063V108.803H34.4946L31.1582 103.668V108.803H29.6875V100.973Z" fill="#111E6C"/>
<path d="M40.4272 100.973H41.898V107.385H44.0723V108.803H40.4272V100.973Z" fill="#111E6C"/>
<path d="M47.8535 100.973H49.3242V108.803H47.8535V100.973Z" fill="#111E6C"/>
<path d="M53.7642 100.973H55.1668L58.5122 106.126V100.973H59.9829V108.803H58.5667L55.2349 103.668V108.803H53.7642V100.973Z" fill="#111E6C"/>
<path d="M64.5264 100.973H68.766V102.437H65.9971V103.842H68.766V105.279H65.9971V107.339H68.766V108.803H64.5264V100.973Z" fill="#111E6C"/>
<path d="M81.3263 100.973H82.8152L85.802 108.803H84.2677L83.6595 107.188H80.4774L79.8555 108.803H78.3213L81.3263 100.973ZM82.0707 103.055L81.0221 105.751H83.1193L82.0707 103.055Z" fill="#111E6C"/>
<path d="M96.8508 102.346L95.8159 103.339C95.1123 102.593 94.3179 102.218 93.4373 102.218C92.6974 102.218 92.071 102.474 91.5626 102.982C91.0496 103.494 90.7954 104.121 90.7954 104.872C90.7954 105.394 90.9089 105.856 91.1359 106.259C91.3628 106.666 91.6806 106.982 92.0891 107.215C92.5022 107.444 92.9607 107.558 93.4645 107.558C93.8958 107.558 94.2861 107.481 94.6447 107.316C94.9988 107.156 95.3892 106.863 95.8159 106.437L96.8191 107.494C96.2471 108.057 95.7024 108.451 95.194 108.67C94.6856 108.89 94.1 109 93.4464 109C92.2389 109 91.2494 108.611 90.4777 107.842C89.7106 107.069 89.3247 106.08 89.3247 104.877C89.3247 104.094 89.5017 103.403 89.8513 102.794C90.2008 102.19 90.7047 101.701 91.3583 101.334C92.0074 100.964 92.711 100.776 93.4691 100.776C94.1091 100.776 94.7219 100.913 95.3166 101.188C95.9112 101.458 96.4241 101.847 96.8508 102.346Z" fill="#111E6C"/>
<path d="M103.287 100.973H104.772L107.763 108.803H106.224L105.621 107.188H102.439L101.817 108.803H100.278L103.287 100.973ZM104.032 103.055L102.979 105.751H105.08L104.032 103.055Z" fill="#111E6C"/>
<path d="M111.685 100.973H113.433C114.563 100.973 115.403 101.115 115.952 101.399C116.497 101.678 116.951 102.135 117.305 102.771C117.659 103.408 117.836 104.149 117.836 104.996C117.836 105.6 117.74 106.153 117.541 106.661C117.341 107.165 117.064 107.586 116.715 107.92C116.365 108.249 115.988 108.483 115.58 108.611C115.176 108.739 114.468 108.803 113.46 108.803H111.685V100.973ZM113.156 102.414V107.353H113.841C114.518 107.353 115.003 107.275 115.307 107.119C115.612 106.964 115.861 106.698 116.056 106.327C116.247 105.961 116.347 105.504 116.347 104.964C116.347 104.135 116.115 103.49 115.657 103.032C115.239 102.62 114.572 102.414 113.655 102.414H113.156Z" fill="#111E6C"/>
<path d="M122.021 100.973H126.261V102.437H123.492V103.842H126.261V105.279H123.492V107.339H126.261V108.803H122.021V100.973Z" fill="#111E6C"/>
<path d="M131.14 100.973H132.575L134.381 106.433L136.197 100.973H137.627L138.93 108.803H137.5L136.674 103.856L135.03 108.803H133.723L132.089 103.856L131.245 108.803H129.801L131.14 100.973Z" fill="#111E6C"/>
<path d="M142.334 100.973H143.914L145.357 103.787L146.796 100.973H148.376L146.102 105.412V108.803H144.608V105.412L142.334 100.973Z" fill="#111E6C"/>
<path d="M5.63777 76.7817H8.43396L14.04 91.4722H11.1575L10.0182 88.4425H4.04903L2.88244 91.4722H0L5.63777 76.7817ZM7.04041 80.6854L5.06582 85.7424H9.00591L7.04041 80.6854Z" fill="#111E6C"/>
<path d="M20.2222 76.7817H23.1682C24.7614 76.7817 25.9099 76.9281 26.6135 77.2256C27.317 77.5231 27.8754 78.0036 28.2794 78.6626C28.6879 79.3262 28.8876 80.1225 28.8876 81.047C28.8876 82.0767 28.6198 82.9279 28.0887 83.6052C27.5576 84.2825 26.8313 84.7585 25.9144 85.0239C25.3788 85.1795 24.3983 85.2527 22.982 85.2527V91.4722H20.2222V76.7817ZM22.982 82.5297H23.8717C24.5708 82.5297 25.0565 82.4794 25.3288 82.3833C25.6057 82.278 25.8191 82.1133 25.978 81.8844C26.1323 81.651 26.2095 81.3719 26.2095 81.0424C26.2095 80.4703 25.9916 80.0539 25.5513 79.7976C25.2335 79.6008 24.6389 79.5047 23.7719 79.5047H22.982V82.5297Z" fill="#111E6C"/>
<path d="M35.4517 76.7817H38.2116V91.4722H35.4517V76.7817Z" fill="#111E6C"/>
<path d="M43.981 91.4722L47.8348 84.1773L44.0445 76.7817H52.9733V79.523H48.4521L50.8262 84.1498L48.3886 88.7309H53.0958V91.4722H43.981Z" fill="#111E6C"/>
<path d="M58.1885 76.7817H66.2411V79.5459H63.5856V91.4722H60.7622V79.5459H58.1885V76.7817Z" fill="#111E6C"/>
<path d="M79.0465 76.4154C81.1073 76.4154 82.8776 77.1659 84.362 78.6716C85.8463 80.1727 86.5862 82.0079 86.5862 84.1725C86.5862 86.3143 85.8554 88.1312 84.3937 89.614C82.9321 91.0967 81.1527 91.8427 79.0692 91.8427C76.8813 91.8427 75.061 91.0784 73.6175 89.5545C72.1695 88.0305 71.4478 86.2182 71.4478 84.1222C71.4478 82.7172 71.7837 81.4266 72.46 80.2459C73.1318 79.0698 74.0578 78.1362 75.2335 77.4451C76.4182 76.7586 77.6893 76.4154 79.0465 76.4154ZM79.0056 79.1567C77.662 79.1567 76.5363 79.6281 75.6193 80.5754C74.7024 81.5182 74.2485 82.7172 74.2485 84.1771C74.2485 85.8018 74.825 87.0878 75.9779 88.0305C76.8722 88.7719 77.8981 89.138 79.0556 89.138C80.3674 89.138 81.4841 88.6575 82.401 87.701C83.327 86.7445 83.7855 85.5638 83.7855 84.1588C83.7855 82.7584 83.3225 81.5777 82.3919 80.6075C81.4659 79.6372 80.3356 79.1567 79.0056 79.1567Z" fill="#111E6C"/>
<path d="M91.8472 76.7817H99.9044V79.5459H97.2489V91.4722H94.4255V79.5459H91.8472V76.7817Z" fill="#111E6C"/>
<path d="M107.485 76.7815H115.438V79.5228H110.245V82.1635H115.438V84.8636H110.245V88.7307H115.438V91.472H107.485V76.7815ZM106.001 76.4154L105.579 80.2413H103.627L103.2 76.4154H106.001Z" fill="#111E6C"/>
<path d="M131.498 91.4722L127.458 80.7037L123.354 91.4722H120.408L126.037 76.7817H128.851L134.462 91.4722H131.498Z" fill="#111E6C"/>
<path d="M140.164 76.7817H142.987V82.3284H147.858V76.7817H150.658V91.4722H147.858V85.0285H142.987V91.4722H140.164V76.7817Z" fill="#111E6C"/>
<path d="M156.636 91.4722L160.49 84.1773L156.695 76.7817H165.629V79.523H161.103L163.481 84.1498L161.044 88.7309H165.747V91.4722H156.636Z" fill="#111E6C"/>
</svg>
