<svg width="227" height="59" viewBox="0 0 227 59" fill="none" xmlns="http://www.w3.org/2000/svg">
<path d="M28.814 53.1759C42.0298 53.1759 52.7433 42.3746 52.7433 29.0505C52.7433 15.7264 42.0298 4.92505 28.814 4.92505C15.5983 4.92505 4.88477 15.7264 4.88477 29.0505C4.88477 42.3746 15.5983 53.1759 28.814 53.1759Z" fill="white"/>
<path fill-rule="evenodd" clip-rule="evenodd" d="M28.8142 0C44.7176 0 57.6284 12.9952 57.6284 29.0504C57.6284 45.0842 44.7176 58.1008 28.8142 58.1008C12.8896 58.1008 0 45.0842 0 29.0504C0 12.9952 12.8896 0 28.8142 0ZM28.8142 6.66191C41.0688 6.66191 51.0206 16.6953 51.0206 29.0504C51.0206 41.4054 41.0688 51.4389 28.8142 51.4389C16.5596 51.4389 6.60775 41.4054 6.60775 29.0504C6.60775 16.6953 16.5596 6.66191 28.8142 6.66191Z" fill="#111E6C"/>
<path fill-rule="evenodd" clip-rule="evenodd" d="M22.4605 22.4396C22.4605 22.4396 22.5113 22.542 22.5875 22.6444C22.6891 22.7212 22.8372 22.7981 22.9896 22.7724C23.142 22.7724 23.3198 22.6956 23.4214 22.5932C23.4976 22.5164 23.523 22.4396 23.5738 22.2859C23.6246 22.1067 23.7262 21.8762 23.9039 21.697C24.0563 21.522 24.3061 21.394 24.5347 21.3172C24.7886 21.2659 25.0426 21.2659 25.2458 21.2915C25.4702 21.3428 25.6479 21.4196 25.7749 21.4964C25.9273 21.5433 26.0289 21.6202 26.0797 21.6714C26.1305 21.7226 26.1559 21.7738 26.1305 21.7738C26.1051 21.7738 26.0035 21.7226 25.8765 21.697C25.7495 21.6458 25.5718 21.6202 25.3982 21.5946C25.195 21.569 24.9918 21.569 24.7632 21.6202C24.5347 21.6714 24.3061 21.7482 24.1537 21.8762C23.9801 22.0043 23.8531 22.1579 23.8023 22.2603C23.7262 22.3627 23.6246 22.4652 23.65 22.5164C23.6754 22.542 23.8023 22.6444 23.9039 22.6956C24.0309 22.7724 24.2299 22.8493 24.4331 22.9261C24.6363 22.973 24.941 22.973 25.195 22.9474C25.449 22.9261 25.7495 22.8493 25.9527 22.7468C26.1813 22.6444 26.2067 22.4396 26.3083 22.3884C26.4099 22.3371 26.4861 22.3627 26.5369 22.3884C26.6131 22.3884 26.6639 22.4396 26.6893 22.4652C26.7401 22.4652 26.7401 22.4652 26.7401 22.3627C26.7401 22.2859 26.7147 22.1323 26.6385 21.953C26.5623 21.7738 26.4353 21.5433 26.5369 21.5433C26.6131 21.522 26.8628 21.7226 27.066 21.9018C27.2438 22.1067 27.32 22.2859 27.3454 22.5676C27.5232 24.4027 27.4724 22.2091 27.4724 21.953C27.4724 21.7226 27.5486 21.6714 27.574 21.6202C27.574 21.569 27.5232 21.5433 27.3962 21.4708C27.2946 21.4196 27.0914 21.3172 26.8628 21.1891C26.6385 21.0355 26.3845 20.8562 26.1559 20.7538C25.9019 20.6514 25.6987 20.6258 25.3982 20.6258C25.0934 20.6514 24.7124 20.677 24.4077 20.8562C24.1029 20.9843 23.8531 21.2659 23.6754 21.522C23.4976 21.7994 23.396 22.0811 23.2944 22.2603C23.1928 22.4652 23.1166 22.542 22.9896 22.5932C22.8626 22.6188 22.7102 22.5932 22.6129 22.542C22.5113 22.5164 22.4605 22.4396 22.4605 22.4396ZM39.6254 32.904C39.4222 33.749 39.1978 35.3067 38.7915 36.8346C38.3597 38.3411 37.7544 39.822 36.7639 40.9956C35.7776 42.1479 34.4103 42.9886 33.424 43.5008C32.4335 43.983 31.8282 44.1367 32.0313 44.3927C32.2345 44.6488 33.297 44.9817 34.6135 45.2591C35.9554 45.5664 37.5512 45.8224 38.9439 45.7968C40.3111 45.7968 41.4498 45.5407 42.4361 44.9561C43.397 44.3927 44.1843 43.552 44.9929 42.4509C45.8056 41.3541 46.6141 40.0012 47.2237 38.7764C47.829 37.5516 48.2354 36.4548 48.4893 35.6098C48.7687 34.7946 48.8703 34.2569 48.8195 33.9795C48.7433 33.6978 48.4893 33.6722 48.1846 33.9539C47.9052 34.2313 47.575 34.8458 47.376 34.9483C47.1983 35.0251 47.1475 34.6154 47.0205 34.3337C46.8935 34.052 46.6649 33.9283 46.3855 34.6666C46.1104 35.4092 45.7548 37.0138 45.1706 38.4435C44.5653 39.8732 43.7018 41.1493 43.1219 41.7638C42.5377 42.3528 42.2329 42.3015 42.3091 41.9943C42.4107 41.687 42.8679 41.1749 43.3504 40.3341C43.8288 39.4934 44.3621 38.3667 44.7685 37.1419C45.1706 35.9426 45.45 34.6666 45.4754 33.9539C45.5262 33.2369 45.2976 33.0833 45.069 33.0577C44.8659 33.0064 44.6161 33.0833 44.3621 33.0064C44.1082 32.9296 43.8034 32.6992 43.6002 32.7504C43.4012 32.8272 43.2996 33.1601 43.0203 33.2369C42.7663 33.3393 42.3599 33.1345 42.0805 32.904C41.8054 32.6736 41.653 32.4218 41.4498 32.4218C41.272 32.4218 41.0688 32.6736 40.9419 32.7504C40.8149 32.8016 40.7641 32.6736 40.6625 32.4986C40.5651 32.3193 40.4127 32.1401 40.2349 32.0889C40.0572 32.0121 39.8286 32.0889 39.6254 32.904ZM40.7641 36.9882C40.4889 37.5772 39.981 38.8788 39.4476 39.95C38.8931 41.0212 38.3089 41.8918 37.8052 42.5277C37.3226 43.1679 36.9163 43.552 36.7385 43.7526C36.5607 43.983 36.6115 44.0086 36.7131 44.0086C36.8401 43.983 37.0432 43.9062 37.4242 43.5776C37.8052 43.2447 38.3597 42.6558 38.8423 42.0455C39.3206 41.4053 39.727 40.7182 40.0572 40.0781C40.3873 39.4166 40.6159 38.802 40.7641 38.2131C40.9419 37.654 41.0434 37.1419 41.0688 36.8346C41.0942 36.5316 41.0434 36.4036 40.7641 36.9882ZM18.2317 32.9296C18.2063 33.3649 18.0793 33.9795 18.2063 34.9483C18.3333 35.8914 18.71 37.1931 19.4974 38.4691C20.2551 39.7452 21.3938 40.9956 23.2944 42.2247C25.2204 43.4496 27.9041 44.6488 30.2831 45.3615C32.6367 46.1041 34.6897 46.3858 36.1585 46.5351C37.6274 46.7144 38.4867 46.7656 38.7661 47.0216C39.0709 47.3033 38.7661 47.7642 37.9533 48.2721C37.1448 48.7586 35.8284 49.3177 34.0293 49.7274C32.2091 50.1371 29.9275 50.3931 27.4978 50.2139C25.068 50.0347 22.4859 49.3689 20.1027 48.2209C17.7237 47.0729 15.4972 45.4127 13.8759 43.8038C12.2293 42.1735 11.1668 40.6158 10.4048 39.1093C9.62172 37.6028 9.11376 36.1987 9.08836 35.4817C9.03757 34.7946 9.49473 34.7946 9.85031 34.8714C10.2313 34.9227 10.481 35.0507 10.6588 35.0763C10.8112 35.1019 10.8366 35.0251 10.9128 35.0507C10.989 35.0763 11.0906 35.2043 11.2176 35.5585C11.37 35.9426 11.5224 36.5572 11.7467 37.1163C12.0007 37.654 12.3309 38.1149 12.4071 38.0125C12.5086 37.8845 12.3563 37.1675 12.2293 36.5316C12.1023 35.8914 12.0007 35.3324 12.0007 34.8714C12.0007 34.3849 12.1023 34.0051 12.2293 33.8515C12.3563 33.6978 12.5086 33.8002 12.6356 33.8515C12.7626 33.9027 12.8388 33.9283 12.9404 33.7746C13.042 33.621 13.1648 33.3137 13.3679 33.1089C13.5457 32.9296 13.7997 32.8528 14.0283 33.0321C14.2315 33.1857 14.4093 33.5954 14.6336 34.1545C14.8368 34.7434 15.0654 35.4817 15.4718 36.506C15.8993 37.5516 16.4835 38.9044 17.093 39.9244C17.6983 40.97 18.3333 41.7126 18.5111 41.7894C18.6592 41.8662 18.3841 41.2773 18.0285 40.4109C17.6475 39.5702 17.22 38.4691 16.9406 37.4235C16.6358 36.3779 16.4835 35.358 16.5342 34.5642C16.585 33.7746 16.839 33.1857 17.1438 32.8016C17.4443 32.4218 17.8253 32.2681 18.0285 32.2937C18.2571 32.3193 18.2825 32.5242 18.2317 32.9296ZM20.6614 44.6744C21.2964 45.0073 22.5875 45.848 23.9547 46.4626C25.322 47.0729 26.7909 47.457 28.2089 47.7386C29.627 48.0416 31.0154 48.2465 31.9805 48.4001C32.916 48.5538 33.424 48.6306 33.5256 48.7586C33.6018 48.8866 33.2716 49.0147 32.5097 49.0915C31.752 49.1427 30.5371 49.1171 29.2206 48.9635C27.9295 48.8098 26.5115 48.5538 25.2204 48.0928C23.9039 47.6106 22.7356 46.9448 21.8763 46.3345C21.0424 45.72 20.5345 45.1823 20.2805 44.828C20.0265 44.4695 20.0265 44.3159 20.6614 44.6744ZM20.636 32.473C20.3313 32.4474 19.8529 32.4474 19.4466 32.5498C19.0656 32.648 18.7862 32.8272 18.7354 33.4161C18.6592 34.0051 18.837 34.9995 19.1672 35.917C19.4974 36.8602 19.9757 37.7308 20.5853 38.4947C22.4859 40.8463 26.7401 42.9118 29.3222 43.9574C29.3222 43.9574 35.2188 42.3997 36.1585 40.0781C36.2347 40.0012 36.2855 39.9244 36.3617 39.8476C36.4887 39.7196 36.6115 39.5702 36.7385 39.3654C37.2718 38.4435 37.7544 36.7108 38.0549 35.4305C38.3343 34.1545 38.4359 33.3393 38.4867 32.8272C38.5375 32.3193 38.5121 32.1401 38.2327 32.0121C37.9533 31.9096 37.4242 31.8584 36.967 31.9096C36.6623 31.9609 35.7776 31.2951 35.803 31.5768C35.8284 32.1913 35.2188 32.7504 35.1426 32.9296C35.0707 33.0833 34.9945 33.1857 34.8929 33.2881C34.4103 33.749 34.3595 34.0051 33.9023 34.5642C33.8515 34.6666 33.3986 34.6666 33.3224 34.7434C33.2462 34.7946 33.1954 34.897 33.0684 35.0251C32.9414 35.1531 32.7637 35.3067 32.6367 35.4092C32.5097 35.5073 32.4335 35.5329 32.2345 35.6354C32.0313 35.7378 31.752 35.9426 31.5234 36.0707C31.2948 36.1731 31.1424 36.1987 31.0154 36.3011C30.8673 36.4036 30.7149 36.5572 30.5371 36.6852C30.3847 36.809 30.2069 36.8858 30.0545 36.9626C29.9021 37.0138 29.7497 37.0394 29.5762 37.0907C29.4238 37.1419 29.2206 37.2187 29.0936 37.2187C28.992 37.2187 28.9412 37.1931 28.6873 37.1419C28.4333 37.0907 28.0057 37.0394 27.6502 36.9626C27.2692 36.8602 26.9644 36.762 26.7401 36.6084C26.5115 36.4548 26.3845 36.2499 26.1813 36.1475C26.0035 36.0195 25.8003 35.9939 25.5718 35.9426C25.3728 35.8658 25.1188 35.789 24.941 35.6354C24.7378 35.5073 24.5601 35.3324 24.3569 35.1787C24.1537 35.0251 23.9293 34.897 23.7516 34.7946C23.5992 34.6922 23.523 34.6154 23.4722 34.513C23.396 34.4361 23.3706 34.3593 23.142 34.2057C22.9388 34.0776 22.5621 33.9027 22.2827 33.6466C22.0287 33.3905 21.8509 33.0833 21.7239 32.8528C21.6223 32.6224 21.5461 32.473 21.4953 32.3706C21.4446 32.2681 21.4192 32.2169 21.3684 32.1913C20.7884 32.0377 20.8646 32.4986 20.636 32.473ZM19.0402 25.0685C19.091 25.0685 19.1926 25.2221 19.345 25.3245C19.4974 25.427 19.7005 25.4782 19.7767 25.5038C19.8783 25.555 19.8275 25.6062 19.8021 25.7044C19.7513 25.8068 19.7005 25.9604 19.7005 26.0885C19.7259 26.1141 19.7513 26.1141 19.7767 26.1397C19.9545 26.2933 20.0265 26.447 20.1027 26.575C20.1789 26.703 20.2297 26.8054 20.3567 26.8311C20.4075 26.8311 20.4837 26.8054 20.5599 26.7798C20.5345 26.6518 20.4837 26.5238 20.4329 26.4214C20.3821 26.2933 20.3567 26.1653 20.4075 25.8068C20.4583 25.4782 20.6106 24.8892 20.6868 24.4283C20.636 24.5308 20.5852 24.6076 20.5599 24.6076C20.4837 24.6588 20.5345 24.4283 20.5345 24.2021C20.5345 23.9973 20.4583 23.818 20.3059 23.6644C20.2551 23.6132 20.1789 23.5876 20.1281 23.5364C20.1281 23.562 20.1281 23.562 20.1281 23.5876C20.0773 23.7156 19.9037 23.8949 19.8783 23.9973C19.8275 24.0997 19.8783 24.1509 19.9545 24.2277C20.0265 24.3003 20.1281 24.4027 20.1535 24.5308C20.2043 24.6332 20.2043 24.7612 20.1789 24.8892C20.1281 24.9917 20.0773 25.1197 19.9799 25.1197C19.9037 25.1453 19.8021 25.0685 19.7005 24.9661C19.599 24.8636 19.4974 24.7356 19.3958 24.4795C19.3196 24.2277 19.2688 23.8436 19.2434 23.5364C19.2434 23.3827 19.2434 23.2547 19.2688 23.1523C19.0402 23.0499 18.837 22.9474 18.6846 22.7981C18.4603 22.5932 18.3333 22.3627 18.3079 22.3627C18.2825 22.3627 18.3333 22.6188 18.4095 22.8749C18.5111 23.1267 18.6338 23.4083 18.7608 23.6644C18.8624 23.9205 18.9894 24.1509 18.9894 24.2277C18.964 24.279 18.837 24.1765 18.6846 24.0485C18.5365 23.9205 18.3333 23.7924 18.1809 23.562C18.0539 23.3571 17.9523 23.0499 17.8253 22.7212C17.6983 22.3627 17.5459 21.9787 17.419 21.6202C17.3174 21.2659 17.2454 20.9587 17.22 20.677C17.1692 20.3697 17.1692 20.0667 17.22 19.7338C17.2666 19.4266 17.3428 19.1193 17.4443 19.0169C17.5713 18.9144 17.6983 19.0425 17.8507 19.2473C18.0285 19.4778 18.2063 19.7594 18.3079 19.9643C18.3841 20.1393 18.4095 20.2417 18.3841 20.1137C18.3587 20.0155 18.2825 19.6826 18.2063 19.4009C18.1301 19.0937 18.0031 18.812 17.8761 18.5858C17.7491 18.381 17.5967 18.2017 17.4697 18.0225C17.3682 17.8432 17.2666 17.664 17.292 17.4591C17.292 17.2586 17.419 17.0025 17.4951 16.8489C17.5713 16.6696 17.6475 16.5672 17.6983 16.3879C17.7745 16.2087 17.8253 15.9526 17.9777 15.6496C18.0793 15.4192 18.2063 14.8558 18.5873 15.0607C18.6381 15.0863 18.5873 14.6254 18.6127 14.5998C19.3958 13.503 19.9291 13.7846 20.2805 14.5528C20.2551 14.348 20.2805 14.1943 20.2805 14.0663C20.2805 13.9127 20.2551 13.8102 20.1535 13.6566C20.0307 13.503 19.8529 13.2981 19.8783 13.1487C19.8783 12.9695 20.1027 12.8159 20.1789 12.6622C20.2805 12.5086 20.2043 12.3549 20.2805 12.1501C20.3567 11.9196 20.5852 11.6678 20.8392 11.4886C21.0678 11.3093 21.3218 11.2581 21.4446 11.2069C21.5969 11.1557 21.6477 11.1301 21.6731 11.3093C21.6731 11.5142 21.6477 11.9196 21.7239 11.8684C21.8001 11.7916 21.9779 11.2581 22.1303 10.9765C22.2573 10.6948 22.3335 10.6436 22.5113 10.5668C22.7145 10.4899 22.9896 10.3918 23.2182 10.315C23.4468 10.2382 23.5738 10.2125 23.7262 10.2638C23.8785 10.3406 24.0309 10.5156 24.0817 10.7204C24.1071 10.5924 24.1791 10.4387 24.2553 10.3406C24.3569 10.2125 24.4839 10.1357 24.5855 10.0589C24.7124 10.0077 24.814 9.98209 24.941 9.98209C25.068 9.98209 25.2204 10.0077 25.3728 10.0077C25.4998 9.98209 25.5971 9.95648 25.7241 9.90527C25.8511 9.85406 26.0035 9.80284 26.1559 9.80284C26.3083 9.77724 26.4861 9.80284 26.6639 9.82845C26.8417 9.85406 26.9898 9.90527 27.193 9.90527C27.3962 9.90527 27.6248 9.87966 27.7772 9.87966C27.9295 9.90527 28.0057 9.98209 28.1581 10.1613C28.1835 10.1869 28.2343 10.2382 28.2597 10.2638C28.2343 10.2382 28.2343 10.1869 28.2343 10.1357C28.2089 10.0589 28.2851 9.93087 28.3317 9.87966C28.4079 9.80284 28.4841 9.80284 28.6365 9.80284C28.7888 9.82845 28.992 9.87966 29.246 9.87966C29.5 9.90527 29.7751 9.87966 30.0291 9.90527C30.2831 9.93087 30.5371 10.0077 30.8165 10.0845C31.0916 10.1613 31.3964 10.2125 31.5996 10.2638C31.8028 10.2894 31.9044 10.2894 32.1075 10.4174C32.2091 10.4643 32.3361 10.5668 32.4589 10.6948C32.4843 10.6436 32.5097 10.5924 32.5351 10.5668C32.6367 10.4643 32.8398 10.4643 33.17 10.5412C33.5256 10.618 34.0039 10.746 34.3341 10.9765C34.6897 11.1813 34.8675 11.4886 34.9691 11.8215C35.0707 12.1501 35.0707 12.5342 35.1976 12.8671C35.3204 13.2256 35.5744 13.503 35.7776 13.7846C35.9554 14.0663 36.1077 14.348 36.1585 14.3736C36.2093 14.4248 36.2093 14.2199 36.1331 14.0151C36.0823 13.8102 35.93 13.6054 35.7776 13.4005C35.6506 13.1999 35.4982 13.0207 35.422 12.8415C35.3712 12.6878 35.3966 12.5342 35.3458 12.3549C35.3204 12.2013 35.2188 11.9965 35.2696 11.9965C35.3204 11.9708 35.4982 12.1245 35.6506 12.3549C35.8284 12.5598 35.9554 12.8415 36.2347 13.0719C36.5395 13.2981 36.9416 13.5286 37.2464 13.8358C37.5512 14.1687 37.729 14.604 37.7798 14.9839C37.8306 15.3423 37.7544 15.624 37.7544 15.9057C37.7544 16.1831 37.8306 16.4391 37.856 16.4135C37.8814 16.3879 37.8052 16.0807 37.856 15.9825C37.9068 15.9057 38.0803 16.0294 38.2073 16.3879C38.3089 16.7208 38.4105 17.3098 38.4867 17.8176C38.5375 18.3298 38.5883 18.7651 38.5883 19.0681C38.5883 19.3753 38.5375 19.529 38.4613 19.6826C38.4105 19.8106 38.3343 19.9387 38.2835 20.1179C38.2327 20.2929 38.1819 20.4978 38.0041 20.7794C37.856 21.0355 37.5766 21.3684 37.2972 21.6202C37.0686 21.825 36.8147 21.9787 36.6369 22.1323C36.7131 22.5164 36.8655 23.1011 36.8909 23.2035C36.9163 23.3059 36.9416 23.9205 36.9163 24.0229C36.8909 24.1509 36.7893 24.3046 36.5861 24.4027C36.4125 24.5051 36.1331 24.582 35.9808 24.582C35.9554 24.6332 35.9554 24.6844 35.93 24.7356C35.8792 24.9405 35.7776 25.0941 35.7268 25.2733C35.676 25.4782 35.676 25.7086 35.7268 25.858C35.7522 26.0117 35.803 26.0373 35.803 26.0373C35.8284 26.0373 35.7776 25.9604 35.803 25.858C35.8538 25.73 35.93 25.6062 36.0061 25.4782C36.1077 25.3758 36.2093 25.2733 36.2601 25.1709C36.2855 25.0685 36.2855 24.9661 36.3617 25.0173C36.3871 25.0429 36.3871 25.0429 36.4125 25.0685C36.4633 24.9917 36.5141 24.9405 36.5607 24.8892C36.6877 24.7612 36.7385 24.6844 36.8655 24.582C36.967 24.4539 37.1194 24.3046 37.221 24.0485C37.3226 23.7924 37.3734 23.4339 37.4496 23.1523C37.5004 22.8749 37.5766 22.67 37.602 22.6188C37.6274 22.5676 37.602 22.6956 37.6274 22.9474C37.6274 23.2291 37.6782 23.6388 37.6528 23.9461C37.6274 24.279 37.5512 24.5051 37.4242 24.6844C37.3226 24.8636 37.1702 24.9917 37.0432 25.1197C36.9163 25.2733 36.7893 25.427 36.6877 25.6062C36.7385 25.8324 36.7639 26.0373 36.7131 26.2421C36.6877 26.4726 36.5861 26.703 36.5649 26.9591C36.5649 27.2109 36.6623 27.4925 36.6877 27.723C36.7131 27.9535 36.6877 28.1327 36.6623 28.2607C36.6115 28.4144 36.5607 28.5125 36.5395 28.615C36.5141 28.7174 36.5395 28.7942 36.5395 28.9222C36.5141 29.0759 36.4887 29.2295 36.4379 29.4344C36.4125 29.6136 36.3617 29.7929 36.2347 29.9422C36.1077 30.0959 35.93 30.2239 35.803 30.3775C35.7014 30.5056 35.6252 30.6592 35.5998 30.7872C35.5744 30.8897 35.5744 30.9665 35.5236 30.9409C35.4982 30.8897 35.422 30.7616 35.3458 30.608C35.2696 30.4543 35.1722 30.3007 35.1468 30.1215C35.096 29.9166 35.0707 29.6648 35.1214 29.46C35.1468 29.2551 35.2442 29.0759 35.2442 28.9991C35.2696 28.9478 35.2188 28.9991 35.1468 29.1015C35.0707 29.2295 34.9691 29.4344 34.9183 29.6648C34.8675 29.891 34.8421 30.1471 34.9183 30.4543C34.9945 30.736 35.1468 31.0945 35.1934 31.4231C35.2188 31.756 35.1214 32.0889 34.9691 32.3449C34.8421 32.5754 34.6389 32.7504 34.4865 32.9296C34.3595 33.1089 34.2833 33.2881 34.2325 33.4161C34.1817 33.5442 34.1563 33.6466 34.0801 33.7234C33.9785 33.8258 33.8261 33.9027 33.7034 33.9795C33.5764 34.0307 33.4748 34.0776 33.3986 34.1289C33.3478 34.1801 33.3224 34.2569 33.3224 34.2057C33.3478 34.1801 33.3732 34.052 33.4494 33.9027C33.5256 33.749 33.6272 33.5698 33.6526 33.3905C33.7034 33.2113 33.7034 33.0321 33.678 32.8272C33.678 32.6522 33.6526 32.473 33.6272 32.4986C33.6018 32.5498 33.5764 32.8016 33.5256 33.0064C33.4748 33.1857 33.3986 33.2881 33.3478 33.4418C33.2716 33.5954 33.2208 33.7746 33.17 33.9283C33.1446 34.0776 33.1192 34.2057 33.043 34.3081C32.9922 34.4105 32.8906 34.513 32.7637 34.6154C32.6621 34.6922 32.5351 34.769 32.3869 34.8714C32.2091 34.9739 32.0059 35.1019 31.7012 35.3324C31.371 35.5329 30.9942 35.8658 30.7149 36.0451C30.4101 36.1987 30.2323 36.2243 30.1561 36.1987C30.1053 36.1731 30.1815 36.0963 30.2577 35.9938C30.3339 35.8658 30.4101 35.6866 30.4609 35.5073C30.4863 35.3324 30.4863 35.1275 30.4609 34.9227C30.4609 34.7434 30.4101 34.5642 30.4609 34.4361C30.5117 34.2825 30.6387 34.1545 30.7403 34.0307C30.8419 33.9283 30.9181 33.8258 30.8673 33.8258C30.8165 33.8515 30.6387 33.9795 30.4609 34.1033C30.2831 34.2313 30.1307 34.3849 30.0545 34.5898C30.0037 34.7946 30.0291 35.0507 30.0037 35.2811C29.9783 35.5073 29.9021 35.6866 29.8005 35.8402C29.7032 35.9682 29.6016 36.0451 29.4492 36.1219C29.2968 36.1987 29.0936 36.2499 28.9158 36.3011C28.8142 36.3267 28.738 36.3523 28.6873 36.3523C28.6111 36.3779 28.5349 36.3779 28.4587 36.3779C28.4079 36.3779 28.3571 36.3779 28.2851 36.3779C28.2089 36.3523 28.1327 36.3267 28.0565 36.3011C27.9549 36.2755 27.828 36.2499 27.7772 36.2499C27.7264 36.2755 27.7264 36.3267 27.6502 36.3011C27.5486 36.2755 27.3708 36.1731 27.1676 36.0707C26.9644 35.9682 26.7401 35.8402 26.5877 35.6866C26.4353 35.5329 26.3591 35.358 26.2829 35.1531C26.2067 34.9739 26.1305 34.769 26.0289 34.6154C25.9527 34.4617 25.8511 34.3337 25.6987 34.2057C25.5506 34.0776 25.3474 33.9539 25.3474 34.0307C25.3728 34.0776 25.576 34.3337 25.6987 34.5642C25.8511 34.7946 25.8765 34.9739 25.9273 35.1275C25.9527 35.3067 25.9527 35.4348 26.0289 35.5585C26.0797 35.6866 26.2067 35.789 26.1305 35.7634C26.0543 35.7378 25.8257 35.5842 25.6479 35.4561C25.4744 35.3324 25.3474 35.2043 25.2204 35.1019C25.0934 34.9995 24.9664 34.9227 24.8394 34.8458C24.7124 34.7946 24.6109 34.7178 24.5347 34.641C24.4839 34.5898 24.4331 34.513 24.4077 34.4873C24.3823 34.4617 24.3569 34.4617 24.2807 34.4617C24.2087 34.4617 24.0563 34.4361 23.8785 34.3337C23.7008 34.2313 23.523 34.0307 23.4214 33.8258C23.3198 33.621 23.3452 33.3905 23.4722 33.3137C23.5738 33.2369 23.7769 33.3137 23.9039 33.3393C24.0309 33.3905 24.0563 33.4161 24.0055 33.3393C23.9547 33.2625 23.8023 33.0577 23.6754 32.9552C23.523 32.8272 23.3706 32.8016 23.269 32.8016C23.142 32.8016 23.0404 32.8272 22.888 32.8016C22.7145 32.8016 22.4605 32.7504 22.3081 32.6522C22.1303 32.5498 22.0541 32.4218 21.9525 32.2681C21.8509 32.1145 21.7239 31.9609 21.6985 31.8584C21.6731 31.756 21.7239 31.7048 21.8255 31.628C21.9017 31.5512 22.0033 31.4487 22.0541 31.2994C22.1303 31.1457 22.1303 30.9665 22.1303 30.7872C22.1049 30.6336 22.0795 30.48 22.0541 30.5056C22.0033 30.5312 21.9525 30.7104 21.8763 30.8384C21.8001 30.9665 21.7239 31.0177 21.6477 31.0945C21.5715 31.1713 21.5207 31.2737 21.4742 31.2994C21.4234 31.3207 21.3726 31.2738 21.2964 31.1969C21.2456 31.0945 21.144 30.9665 21.0678 30.8128C20.9662 30.6336 20.8392 30.4287 20.6614 30.1215C20.4837 29.7929 20.2297 29.3832 20.1789 28.9478C20.1069 28.5168 20.2297 28.0815 20.3313 27.7486C20.3567 27.6718 20.3821 27.595 20.4075 27.5438C20.2805 27.4669 20.1281 27.3389 20.0307 27.1853C19.9291 27.0103 19.9037 26.8054 19.7513 26.6006C19.5736 26.3701 19.3196 26.1397 19.1672 25.9092C19.0148 25.7086 18.964 25.5038 18.9132 25.2477C18.8878 25.0173 18.8624 24.71 18.8878 24.6844C18.9132 24.6588 18.964 24.8636 19.0148 25.0685H19.0402ZM29.4746 25.555C29.4746 25.4526 29.4238 25.3502 29.373 25.1965C29.3222 25.0685 29.2714 24.9405 29.246 24.838C29.2206 24.71 29.2206 24.6332 29.246 24.6332C29.246 24.6332 29.2968 24.7356 29.373 24.8636C29.4492 24.9661 29.6016 25.0941 29.7497 25.2477C29.9021 25.4014 30.0799 25.555 30.2323 25.7044C30.3593 25.8324 30.4609 25.9604 30.5371 26.0885C30.6387 26.2165 30.7149 26.3701 30.7403 26.447C30.7657 26.5494 30.7403 26.575 30.7149 26.575C30.6641 26.5494 30.6133 26.4726 30.5625 26.3957C30.5117 26.3189 30.4609 26.2677 30.4101 26.2165C30.4101 26.3701 30.4101 26.5238 30.4101 26.703C30.3847 26.8823 30.3593 27.1597 30.2323 27.3133C30.1053 27.4413 29.9021 27.4413 29.7497 27.4157C29.6016 27.3901 29.5254 27.3389 29.4492 27.3133C29.373 27.2877 29.3222 27.3133 29.1952 27.3901C29.0682 27.4925 28.865 27.6462 28.7127 27.6974C28.5857 27.7486 28.5095 27.6974 28.3825 27.6206C28.2555 27.5694 28.1073 27.4925 27.9803 27.4669C27.8533 27.4413 27.7518 27.4669 27.6756 27.4925C27.574 27.5182 27.4724 27.5438 27.32 27.5438C27.1676 27.5438 26.9644 27.5182 26.8163 27.4925C26.6893 27.4413 26.6131 27.3901 26.5369 27.3389C26.4353 27.3133 26.3337 27.2621 26.2829 27.1597C26.1051 26.9079 26.0035 26.7286 26.0289 26.5494C26.0035 26.575 26.0035 26.575 25.9781 26.6262C25.9273 26.6774 25.8257 26.7798 25.7495 26.8567C25.6733 26.9335 25.6225 26.9847 25.6225 26.9335C25.6479 26.8823 25.6987 26.7286 25.8003 26.5238C25.9273 26.3189 26.0543 26.0373 26.2575 25.8068C26.4861 25.6062 26.7401 25.4526 26.9136 25.2477C27.0914 25.0429 27.193 24.7868 27.2438 24.6844C27.2946 24.582 27.3454 24.6332 27.32 24.8124C27.2692 24.9917 27.1676 25.2989 27.193 25.5806C27.193 25.858 27.2946 26.0117 26.9136 26.0885C26.8163 26.1141 26.7147 26.1653 26.6131 26.2677C26.5369 26.3701 26.4861 26.5238 26.4607 26.6774C26.4353 26.8567 26.4607 27.0359 26.5369 27.1085C26.6131 27.1597 26.7401 27.1341 26.8925 27.0828C27.0406 27.0103 27.193 26.9591 27.3708 26.9591C27.5486 26.9335 27.7264 26.9847 27.9041 27.0615C28.1073 27.1341 28.3063 27.2365 28.4587 27.2877C28.6111 27.3133 28.6873 27.2877 28.8142 27.2109C28.9412 27.1597 29.0682 27.0615 29.1952 26.9847C29.3222 26.9079 29.4492 26.8823 29.5762 26.8567C29.6735 26.8311 29.7497 26.8567 29.8513 26.8567C29.9275 26.8823 30.0291 26.8823 30.0799 26.7798C30.1307 26.6774 30.1307 26.447 30.1307 26.3189C30.0545 25.73 29.4492 26.2677 29.4746 25.555ZM32.4081 30.2751C32.4335 30.2495 32.5097 30.1215 32.5605 29.9678C32.6367 29.8441 32.6875 29.716 32.7637 29.588C32.8398 29.46 32.916 29.2807 32.9668 29.1015C33.0176 28.9222 33.043 28.7174 32.9668 28.5125C32.8906 28.312 32.7383 28.1071 32.6367 27.9535C32.5351 27.7998 32.4589 27.6974 32.4335 27.5694C32.4081 27.4669 32.4335 27.3389 32.2345 27.1597C32.0567 26.9847 31.6758 26.7542 31.7266 26.7286C31.8028 26.703 32.3107 26.8823 32.5351 26.9335C32.7637 27.0103 32.6875 26.9335 32.5605 26.7542C32.4589 26.575 32.3107 26.2933 32.4081 26.0885C32.5351 25.858 32.9414 25.73 33.2716 25.5294C33.6018 25.3245 33.8515 25.0173 34.0293 24.7356C34.1817 24.4539 34.2579 24.2021 34.2579 23.9461C34.2579 23.7156 34.1817 23.4852 34.2071 23.2547C34.2325 23.0242 34.3595 22.7724 34.4357 22.542C34.5373 22.3371 34.5881 22.1579 34.5881 21.9274C34.5119 21.7738 34.4611 21.6202 34.4103 21.4452C34.3087 21.0611 34.2833 20.5746 34.3595 20.1649C34.4357 19.7338 34.5881 19.4009 34.6897 19.1705C34.7405 18.9144 34.7405 18.7651 34.6389 18.4834C34.5627 18.2273 34.3849 17.8432 34.3595 17.4591C34.3595 17.4335 34.3595 17.4079 34.3341 17.3823C34.3087 17.4847 34.2579 17.5872 34.2071 17.7152C34.1055 17.9713 34.0039 18.2273 34.0039 18.4322C33.9785 18.637 34.0293 18.7864 34.1309 18.94C34.2071 19.0681 34.3087 19.2217 34.3595 19.2985C34.3849 19.3753 34.3341 19.3497 34.1563 19.2473C34.0039 19.1193 33.7499 18.9144 33.5764 18.6626C33.424 18.4066 33.3478 18.0993 33.3732 17.7664C33.3986 17.4591 33.5002 17.1305 33.5256 16.8489C33.551 16.5672 33.5002 16.3623 33.4494 16.1831C33.3986 16.0294 33.3478 15.9313 33.2716 15.8289C33.2208 15.7264 33.1446 15.624 33.1192 15.624C33.1192 15.6496 33.17 15.7777 33.2208 15.9057C33.2716 16.0551 33.297 16.2343 33.297 16.4135C33.2716 16.5928 33.2462 16.7976 33.17 17.0537C33.0938 17.2842 32.9668 17.5616 32.916 17.792C32.8652 18.0481 32.8906 18.2529 32.916 18.381C32.9668 18.4834 33.0176 18.509 32.9414 18.381C32.8652 18.2273 32.6621 17.9457 32.5351 17.7664C32.4081 17.5616 32.3615 17.5103 32.3107 17.3866C32.2599 17.2842 32.2091 17.1305 32.2345 16.8745C32.2345 16.6184 32.2853 16.2855 32.3107 16.0038C32.3361 15.7264 32.3107 15.5216 32.2091 15.3167C32.0821 15.1119 31.879 14.9326 31.6758 14.8046C31.4472 14.7022 31.244 14.651 31.0154 14.5784C30.7911 14.5016 30.5879 14.3736 30.4355 14.2968C30.3085 14.2199 30.2577 14.1687 30.3085 14.1943C30.3593 14.2455 30.4863 14.348 30.6133 14.476C30.7403 14.5998 30.8165 14.7278 30.8673 14.779C30.9435 14.8558 30.9435 14.8814 30.9181 14.8558C30.8673 14.8558 30.7657 14.779 30.6133 14.7022C30.4863 14.651 30.3085 14.5784 30.0037 14.5016C29.7243 14.4248 29.3476 14.3224 28.992 14.1175C28.6365 13.9127 28.3317 13.6054 28.2089 13.2213C28.0819 12.8671 28.0819 12.4318 28.1327 12.0477C28.1073 12.1245 28.0819 12.2013 28.0565 12.2525C27.9295 12.6622 27.9549 12.9951 28.0565 13.2981C28.1581 13.631 28.3571 13.9383 28.5349 14.2199C28.7127 14.5016 28.865 14.7534 28.8904 15.0863C28.9158 15.4192 28.8142 15.8289 28.5349 16.2087C28.2301 16.6184 27.7264 17.0025 27.2946 17.2586C26.8882 17.5103 26.5623 17.664 26.4861 17.664C26.4099 17.664 26.5877 17.536 26.7147 17.3866C26.8628 17.2586 26.939 17.1049 26.939 17.0793C26.939 17.0281 26.8628 17.1049 26.7401 17.2586C26.5877 17.3866 26.4099 17.5872 26.2067 17.7152C26.0035 17.8688 25.7749 17.9457 25.5718 18.0225C25.3982 18.0737 25.2204 18.1505 25.1442 18.1505C25.0934 18.1249 25.1442 18.0481 25.2458 17.9457C25.322 17.8176 25.4236 17.6384 25.4956 17.4591C25.5464 17.2842 25.5464 17.1049 25.4702 16.9257C25.3982 16.7208 25.2712 16.4904 25.2458 16.4648C25.195 16.4392 25.2712 16.6184 25.2966 16.772C25.3474 16.9257 25.3474 17.0537 25.3474 17.0793C25.3474 17.1049 25.3474 17.0537 25.2204 16.9001C25.0934 16.7464 24.8648 16.4904 24.6363 16.2343C24.4077 16.0038 24.2045 15.752 24.0563 15.4448C23.9039 15.1631 23.8023 14.8046 23.8023 14.4248C23.8023 14.0407 23.8531 13.6054 23.8531 13.3493C23.8277 13.2725 23.8277 13.1999 23.8023 13.1487C23.8023 13.3237 23.8023 13.5286 23.7516 13.7078C23.6754 14.1687 23.396 14.651 23.269 15.0351C23.1166 15.3936 23.0658 15.624 23.0404 15.8289C22.9896 16.0294 22.9642 16.2343 22.888 16.4135C22.8118 16.5928 22.6891 16.772 22.6129 16.8745C22.5367 17.0025 22.4859 17.0793 22.4605 16.9769C22.4605 16.8745 22.4605 16.6184 22.4605 16.5928C22.4605 16.5672 22.4351 16.7976 22.3335 17.0025C22.2319 17.2073 22.0795 17.4079 21.9779 17.6384C21.9017 17.8432 21.8763 18.0481 21.9017 18.3041C21.9271 18.5346 21.9779 18.7864 21.9525 18.8632C21.9525 18.9144 21.8509 18.7864 21.7493 18.6114C21.6731 18.4578 21.5969 18.2529 21.5207 18.0481C21.4446 17.8432 21.3938 17.6384 21.343 17.3823C21.3218 17.1305 21.3218 16.8232 21.1948 16.516C21.0678 16.2087 20.8392 15.9313 20.6614 15.5984C20.6614 15.5728 20.636 15.5472 20.6106 15.5216C20.9154 16.6952 21.017 18.0481 21.017 18.0481C20.763 17.5103 20.9662 18.381 20.9916 18.509C21.0424 18.812 21.1694 19.1193 21.2964 19.4266C21.3938 19.7338 21.5207 20.0155 21.5715 20.3441C21.6223 20.6514 21.5969 21.0099 21.5715 21.2659C21.5207 21.522 21.47 21.6458 21.4446 21.7738C21.4192 21.9018 21.4192 22.0043 21.3938 22.1835C21.3938 22.3115 21.3684 22.4396 21.3684 22.5676C21.3684 22.67 21.3938 22.7468 21.4192 22.8493C21.5461 23.3059 21.8001 23.6388 21.9525 23.8949C22.0795 24.1509 22.0541 24.3259 22.0795 24.5308C22.1049 24.7356 22.1557 24.9917 22.5113 25.2221C22.888 25.4782 23.5992 25.7044 23.9039 26.0885C24.2045 26.4726 24.1029 26.9847 24.1791 27.1341C24.2553 27.3133 24.5093 27.1085 24.6616 27.0103C24.814 26.8823 24.8648 26.8567 24.7886 26.9847C24.687 27.1341 24.4839 27.4669 24.3061 27.6718C24.1537 27.9022 24.0563 28.0047 24.0309 28.1327C23.9801 28.2351 24.0309 28.3888 24.0563 28.5125C24.0817 28.6662 24.1029 28.7942 24.0563 28.9222C24.0309 29.0503 23.9547 29.1783 23.9547 29.3063C23.9547 29.4344 24.0309 29.5624 24.1029 29.6904C24.2045 29.8441 24.3315 29.9678 24.4077 30.0446C24.4331 30.0703 24.4585 30.0959 24.4585 30.0959C24.4839 30.0703 24.4839 30.019 24.5093 29.9678C24.5347 29.8697 24.5855 29.7929 24.6616 29.6904C24.7378 29.6136 24.8394 29.5368 24.8902 29.4088C24.9664 29.3063 24.9918 29.1783 25.0172 29.0759C25.0426 28.9734 25.0172 28.9222 24.9918 28.8454C24.9918 28.7686 24.9664 28.6662 24.941 28.5894C24.941 28.4869 24.941 28.4144 24.941 28.3376C24.9664 28.2607 25.0172 28.2095 25.0172 28.2095C25.0426 28.2095 25.0426 28.2863 25.0426 28.3376C25.068 28.3888 25.0934 28.44 25.1188 28.5125C25.195 28.5894 25.2966 28.6918 25.3474 28.7686C25.3982 28.8454 25.3474 28.9478 25.3728 28.9222C25.4194 28.8966 25.4956 28.7942 25.6225 28.6662C25.7495 28.5637 25.9019 28.4656 26.0035 28.44C26.1305 28.3888 26.2067 28.3888 26.2575 28.3888C26.3337 28.3632 26.3591 28.3632 26.3591 28.4144C26.3591 28.44 26.3083 28.5125 26.2575 28.5637C26.2321 28.615 26.2321 28.6406 26.2321 28.6406C26.2321 28.6406 26.2321 28.6406 26.3083 28.5894C26.3845 28.5637 26.4861 28.4656 26.5623 28.44C26.6385 28.3888 26.6893 28.4144 26.7866 28.3632C26.9136 28.3376 27.1168 28.2863 27.2438 28.1839C27.3708 28.0559 27.4724 27.8766 27.4978 27.851C27.5486 27.851 27.574 27.9791 27.6502 28.1071C27.7264 28.2351 27.8533 28.3632 28.0057 28.3888C28.1327 28.4144 28.3063 28.312 28.4079 28.312C28.5095 28.2863 28.5603 28.3632 28.6365 28.312C28.7127 28.2863 28.8142 28.1327 28.865 28.0815C28.9158 28.0303 28.9158 28.0303 28.992 28.0815C29.0428 28.1071 29.1444 28.1583 29.2206 28.1839C29.2968 28.2095 29.3222 28.2351 29.3222 28.2351C29.3222 28.2351 29.2968 28.2095 29.2968 28.1583C29.2968 28.1327 29.2968 28.0559 29.3222 28.0303C29.3222 28.0047 29.3222 27.9791 29.4746 28.0303C29.5974 28.0815 29.8513 28.2095 29.9783 28.1583C30.1053 28.1071 30.1053 27.8766 30.1053 27.7998C30.1053 27.723 30.1561 27.7742 30.2069 27.9022C30.2577 28.0559 30.3339 28.2607 30.4355 28.3632C30.5117 28.4656 30.5879 28.4912 30.6387 28.5168C30.6895 28.5381 30.7149 28.5637 30.7403 28.5637C30.7657 28.5637 30.7657 28.5381 30.7911 28.3888C30.8165 28.2351 30.8419 27.9535 30.8673 27.9791C30.8927 28.0303 30.9138 28.3632 30.9138 28.5637C30.9392 28.7686 30.9392 28.8454 30.99 28.9222C31.0662 28.9734 31.1424 29.0759 31.2694 29.1271C31.371 29.1783 31.4726 29.2295 31.4726 29.1783C31.4726 29.1527 31.371 29.0247 31.3456 28.8966C31.3202 28.7942 31.371 28.6406 31.3964 28.615C31.4218 28.615 31.4218 28.7174 31.4726 28.7942C31.5234 28.8966 31.625 28.9734 31.7266 29.0503C31.8536 29.1015 31.9805 29.1783 32.1075 29.3063C32.2091 29.4088 32.2811 29.5624 32.3319 29.716C32.3573 29.8697 32.3827 29.9934 32.3827 30.1471C32.3827 30.1983 32.4081 30.2495 32.4081 30.3007C32.4081 30.3007 32.4081 30.3007 32.4081 30.2751ZM35.7014 22.8749C35.7522 23.0242 35.803 23.1523 35.8284 23.2547C35.9046 23.5364 35.9808 23.7668 35.9808 24.0229C36.0061 24.0741 36.0061 24.1253 36.0061 24.2021C36.0569 24.1509 36.1077 24.0997 36.1839 24.0741C36.3109 23.9717 36.4379 23.8949 36.4633 23.818C36.4633 23.7412 36.4379 23.6388 36.4379 23.5364H36.4125C36.3871 23.4852 36.3363 23.4083 36.2855 23.3315C36.2601 23.2547 36.2601 23.1523 36.2601 23.0499C36.2855 22.9474 36.3109 22.8493 36.3363 22.7468C36.3617 22.6444 36.3617 22.542 36.3617 22.4652C36.3617 22.4396 36.3363 22.414 36.2855 22.3627C36.1839 22.4652 36.0823 22.542 36.0061 22.6444C35.8792 22.7981 35.803 22.9474 35.7776 22.973C35.7268 22.973 35.7522 22.8493 35.7268 22.8237C35.7268 22.7981 35.7268 22.8237 35.7014 22.8749ZM25.8511 29.0503C25.7749 29.1015 25.6479 29.1783 25.5718 29.2807C25.4236 29.4344 25.3728 29.6904 25.3728 29.8441C25.3728 29.9934 25.4702 30.019 25.521 30.0959C25.5718 30.1471 25.5971 30.2239 25.5718 30.3263C25.5718 30.4543 25.5464 30.5824 25.5971 30.7104C25.6225 30.8384 25.7495 30.9665 25.9273 31.0433C26.0797 31.1457 26.2575 31.2225 26.3591 31.3207C26.4861 31.3975 26.5623 31.5255 26.6639 31.5768C26.7909 31.628 26.939 31.628 27.0914 31.5512C27.2438 31.4487 27.3962 31.2695 27.447 31.1201C27.4978 30.9409 27.4724 30.7872 27.3962 30.6592C27.32 30.5056 27.2184 30.3775 27.1676 30.2495C27.0914 30.1471 27.0914 30.019 27.066 29.9166C27.0406 29.8185 27.0152 29.7672 26.9136 29.716C26.7909 29.6392 26.6131 29.588 26.6639 29.588C26.7401 29.588 27.0406 29.6392 27.3454 29.6648C27.6248 29.716 27.9295 29.7416 28.1581 29.7416C28.3825 29.7672 28.5603 29.7672 28.8142 29.7672C29.0682 29.7672 29.373 29.7416 29.6228 29.716C29.9021 29.6648 30.1053 29.588 30.1307 29.6136C30.1561 29.6392 30.0291 29.7416 29.9021 29.8185C29.7751 29.9166 29.6735 29.9934 29.6482 30.0959C29.6228 30.1983 29.6735 30.3007 29.7497 30.3519C29.8513 30.4287 29.9529 30.4287 30.0545 30.4287C30.1561 30.4031 30.2577 30.3775 30.2831 30.4031C30.2831 30.4287 30.1815 30.5056 30.0545 30.608C29.9529 30.7104 29.8259 30.8384 29.7497 30.864C29.6481 30.8897 29.5508 30.8384 29.5508 30.8897C29.5508 30.9409 29.6228 31.0945 29.6735 31.2225C29.7497 31.3719 29.8005 31.4743 29.9275 31.5255C30.0291 31.5512 30.2069 31.5255 30.3339 31.4743C30.4863 31.3975 30.6133 31.2951 30.7911 31.2481C30.9689 31.1969 31.1932 31.1713 31.3964 31.1201C31.5742 31.0689 31.7012 30.9665 31.7774 30.6848C31.8028 30.4287 31.8028 30.0703 31.8536 29.8697C31.8282 29.8697 31.8282 29.8697 31.8028 29.8441C31.625 29.7672 31.3964 29.716 31.2186 29.6392C31.0408 29.5624 30.9435 29.4856 30.8673 29.3831C30.7657 29.2807 30.7149 29.1783 30.6133 29.1015C30.5117 29.0503 30.3593 29.0503 30.1815 28.9991C29.9783 28.9478 29.7243 28.8454 29.5 28.7942C29.2714 28.743 29.0682 28.743 28.865 28.743C28.6619 28.7686 28.4841 28.8198 28.3571 28.8198C28.2089 28.8454 28.1327 28.8454 28.0311 28.7942C27.9295 28.7686 27.8026 28.7174 27.5994 28.6918C27.4216 28.6918 27.193 28.743 26.9898 28.7942C26.7909 28.8454 26.5877 28.9222 26.4353 28.9478C26.3083 28.9991 26.1813 28.9991 26.0797 29.0247C26.0035 29.0247 25.9273 29.0247 25.8511 29.0503ZM23.7262 12.9951C23.7262 13.0207 23.7262 13.0207 23.7262 13.0463C23.7262 13.0207 23.7262 13.0207 23.7262 12.9951ZM35.9554 21.3684C36.0062 21.2403 36.1839 20.805 36.4125 20.4465C36.6369 20.1179 36.9416 19.8619 37.0686 19.4522C37.1956 19.0169 37.1702 18.4578 37.0686 17.9457C36.9924 17.4335 36.8401 17.0025 36.7131 16.6696C36.5607 16.3623 36.4125 16.1831 36.3363 15.9569C36.2601 15.752 36.2601 15.496 36.3109 15.4704C36.3617 15.4704 36.4887 15.7008 36.6877 16.0294C36.9163 16.3879 37.2464 16.8489 37.4242 17.2842C37.602 17.6896 37.6274 18.0737 37.602 18.4834C37.5512 18.8888 37.4242 19.2985 37.2464 19.6058C37.0686 19.9131 36.8655 20.1179 36.6623 20.3697C36.4633 20.6002 36.2855 20.8818 36.1585 21.1123C36.0315 21.3172 35.93 21.4964 35.9554 21.3684ZM23.7516 13.0463V13.0719V13.0463ZM23.7516 13.0719H23.7769C23.7769 13.0975 23.8023 13.1231 23.8023 13.1487C23.8023 13.1231 23.7769 13.0975 23.7769 13.0719H23.7516ZM19.1926 15.2911C18.964 15.1375 18.7608 15.0863 18.71 15.1887C18.6338 15.2911 18.71 15.5216 18.837 15.7264C18.964 15.9313 19.1672 16.1063 19.3196 16.3367C19.4466 16.5672 19.5482 16.8489 19.6751 17.0793C19.7767 17.3354 19.9037 17.5103 20.1027 17.6384C20.3313 17.7664 20.636 17.8176 20.6106 17.7408C20.5852 17.6384 20.2551 17.4335 20.0773 17.1049C19.8783 16.7976 19.8275 16.4135 19.7259 16.0807C19.599 15.7264 19.3958 15.4448 19.1926 15.2911ZM21.6985 12.6878C21.6985 12.8159 21.6477 12.9951 21.6985 13.1743C21.7239 13.3237 21.8255 13.4774 21.9525 13.6054C22.0795 13.759 22.2065 13.8871 22.2573 14.0407C22.3081 14.1943 22.2573 14.3736 22.1811 14.5528C22.1303 14.7278 22.0287 14.907 21.9779 15.1119C21.9525 15.3423 21.9271 15.5984 21.9525 15.7777C21.9779 15.9569 22.0033 16.0807 21.9525 15.9569C21.9271 15.8545 21.8255 15.496 21.8001 15.1631C21.8001 14.8302 21.9017 14.5272 21.8763 14.2711C21.8509 14.0151 21.7239 13.8614 21.6223 13.7078C21.5207 13.5798 21.4446 13.4774 21.4446 13.2725C21.4192 13.0975 21.5207 12.8159 21.5715 12.6622C21.6223 12.5086 21.6477 12.483 21.6731 12.483C21.6985 12.5086 21.7239 12.5598 21.6985 12.6878ZM30.0291 11.1045C30.0291 11.1557 30.1053 11.3606 30.1053 11.4886C30.1053 11.6422 30.0291 11.7447 29.9783 11.894C29.9021 12.0477 29.8513 12.2781 29.8767 12.483C29.8767 12.6622 29.9783 12.8415 30.1053 12.9951C30.2069 13.1487 30.3593 13.2725 30.5117 13.4005C30.6895 13.5286 30.8927 13.6566 31.0662 13.759C31.244 13.8358 31.371 13.8871 31.371 13.8614C31.3456 13.8358 31.1932 13.7334 30.9689 13.5542C30.7657 13.4005 30.4863 13.1957 30.3339 12.9951C30.1815 12.7646 30.1307 12.5854 30.1561 12.4062C30.1815 12.2269 30.2831 12.0733 30.3339 11.9452C30.3847 11.8172 30.4355 11.6934 30.4101 11.591C30.3847 11.463 30.3339 11.335 30.2323 11.2325C30.1561 11.1301 30.0545 11.0533 30.0291 11.1045ZM26.6385 19.7082C26.9136 19.7338 27.3962 19.785 27.8787 19.785C28.3571 19.785 28.8396 19.7338 29.2206 19.6826C29.6016 19.6058 29.9021 19.529 30.0291 19.5034C30.1815 19.4778 30.1815 19.5034 29.9783 19.6058C29.7751 19.7082 29.373 19.8875 28.8904 19.9899C28.4079 20.0667 27.8533 20.0667 27.3962 20.0155C26.939 19.9643 26.6131 19.8363 26.4861 19.7594C26.3337 19.7082 26.3845 19.6826 26.6385 19.7082ZM24.0309 19.1449C24.2553 19.0937 24.687 18.9656 25.1188 18.9144C25.5464 18.8632 25.9527 18.8632 26.3591 18.9144C26.7401 18.9656 27.0914 19.0681 27.6756 19.0937C28.2301 19.1193 29.0428 19.0425 29.6989 18.94C30.3593 18.8376 30.9181 18.6626 31.2186 18.5602C31.5234 18.4322 31.625 18.4066 31.4218 18.4322C31.2186 18.4578 30.7403 18.5858 30.0545 18.6114C29.373 18.6626 28.5095 18.637 27.7772 18.6114C27.066 18.5602 26.5115 18.509 26.0035 18.5602C25.4956 18.5858 25.0172 18.6882 24.6363 18.812C24.2553 18.94 23.9547 19.0681 23.8531 19.1449C23.7262 19.2217 23.7769 19.2217 24.0309 19.1449ZM28.6873 21.4964C28.6619 21.522 28.7634 21.5946 28.8396 21.6714C28.8904 21.7482 28.9158 21.825 28.9158 21.9018C28.9158 21.9787 28.8904 22.0811 28.8904 22.1835C28.8904 22.2859 28.9158 22.3884 28.9666 22.7468C28.992 23.1011 29.0682 23.7156 29.0936 23.8693C29.119 24.0229 29.1444 23.7156 29.1444 23.3571C29.1444 22.9986 29.1444 22.6188 29.1444 22.3884C29.1698 22.1579 29.2206 22.0811 29.2714 22.0299C29.2968 22.0043 29.3476 22.0043 29.3476 22.0555C29.3476 22.1067 29.3476 22.2091 29.3222 22.2859C29.3222 22.3627 29.3222 22.4396 29.3476 22.4652C29.373 22.4908 29.3984 22.4908 29.5 22.4652C29.5762 22.4396 29.6989 22.3884 29.8259 22.414C29.9529 22.414 30.0799 22.4652 30.2577 22.542C30.4101 22.6188 30.6133 22.6956 30.8419 22.7212C31.0662 22.7725 31.3202 22.7981 31.5742 22.7724C31.8028 22.7468 32.0059 22.67 32.2091 22.5164C32.3827 22.3884 32.5605 22.1579 32.6367 22.0299C32.6875 21.8762 32.6621 21.825 32.5859 21.7482C32.5097 21.6714 32.3827 21.5433 32.2345 21.4708C32.0821 21.3684 31.879 21.3172 31.5996 21.2915C31.3202 21.2659 30.9689 21.2915 30.7149 21.3428C30.4609 21.4196 30.3339 21.4964 30.2577 21.569C30.1561 21.6202 30.1307 21.6458 30.2069 21.569C30.2831 21.4964 30.4863 21.2915 30.7149 21.1379C30.9435 21.0099 31.1932 20.9331 31.498 20.9331C31.7774 20.9587 32.0821 21.0355 32.3107 21.1891C32.5351 21.3172 32.6621 21.4964 32.7637 21.6202C32.8652 21.7482 32.9668 21.8762 33.0938 21.8762C33.2208 21.9018 33.3986 21.825 33.551 21.7226C33.678 21.6202 33.7753 21.4964 33.8515 21.394C33.9023 21.2916 33.9277 21.2403 33.8515 21.1123C33.7753 20.9843 33.6272 20.805 33.551 20.7026C33.4494 20.6002 33.3986 20.5746 33.4494 20.6258C33.4748 20.677 33.551 20.8306 33.6018 20.9331C33.678 21.0611 33.7034 21.1379 33.6272 21.2403C33.5256 21.3428 33.3478 21.4708 33.1954 21.4708C33.0176 21.4708 32.8906 21.3428 32.7383 21.1635C32.5859 20.9587 32.4589 20.7026 32.2853 20.5234C32.1329 20.3697 31.9297 20.2929 31.625 20.3185C31.3202 20.3441 30.9435 20.4209 30.6387 20.5234C30.3339 20.6258 30.1307 20.7282 29.9529 20.7794C29.7751 20.8562 29.6228 20.8562 29.5254 20.8818C29.4238 20.9075 29.373 20.9331 29.3222 21.0099C29.2714 21.0867 29.246 21.2147 29.1952 21.2915C29.1444 21.3684 29.119 21.4196 28.992 21.4452C28.8904 21.4708 28.7127 21.4708 28.6873 21.4964ZM30.0799 22.1323C30.1307 22.0555 30.2577 21.9018 30.3847 21.7994C30.5117 21.697 30.6641 21.5946 30.8927 21.5433C31.0916 21.4964 31.371 21.4708 31.625 21.522C31.8536 21.5433 32.0821 21.6458 32.2091 21.7226C32.3361 21.825 32.3827 21.8762 32.4081 21.9274C32.4335 21.953 32.4335 21.9787 32.4081 22.0555C32.3615 22.1067 32.2853 22.2091 32.1837 22.3115C32.0821 22.3884 31.9298 22.4652 31.752 22.5164C31.5488 22.542 31.2948 22.5676 31.0916 22.542C30.8673 22.542 30.6895 22.4652 30.5371 22.414C30.3847 22.3627 30.2323 22.3115 30.1561 22.2859C30.0545 22.2347 30.0291 22.2091 30.0799 22.1323ZM26.1559 22.2347C26.0797 22.1579 25.9527 22.0299 25.7749 21.9274C25.5971 21.8506 25.3728 21.7994 25.1696 21.7738C24.941 21.7738 24.7378 21.825 24.5347 21.8762C24.3315 21.953 24.1537 22.0811 24.0309 22.1579C23.9293 22.2603 23.8785 22.3371 23.9039 22.3884C23.9293 22.4652 24.0309 22.542 24.1537 22.6188C24.3061 22.67 24.4585 22.7212 24.6363 22.7468C24.814 22.7724 24.9664 22.7724 25.1442 22.7468C25.322 22.7212 25.4998 22.67 25.6733 22.6188C25.8257 22.5676 26.0035 22.4908 26.0797 22.414C26.1813 22.3627 26.2067 22.3115 26.1559 22.2347Z" fill="#111E6C"/>
<path d="M5.03711 16.1321L5.31649 15.573L8.76217 15.9571L8.48279 16.5161L7.77164 16.4393L7.16632 17.6386L7.64465 18.1763L7.34411 18.7652L5.03711 16.1321ZM5.95144 16.2601L6.73455 17.1563L7.14092 16.3881L5.95144 16.2601ZM8.15261 11.4376L8.58438 10.9254C8.81296 10.6694 9.01192 10.4901 9.16431 10.4176C9.31669 10.3408 9.46908 10.3151 9.64687 10.3408C9.82466 10.3664 9.97705 10.4389 10.1294 10.5669C10.3072 10.7206 10.4046 10.8998 10.43 11.0791C10.4808 11.2839 10.4554 11.4632 10.3538 11.668C10.3072 11.7704 10.1802 11.9454 9.97705 12.2015L11.0141 13.0977L10.6078 13.5543L8.15261 11.4376ZM9.51988 11.796L9.64687 11.6424C9.74846 11.54 9.82466 11.4376 9.82466 11.3863C9.85005 11.3095 9.87545 11.2583 9.85006 11.2071C9.82466 11.1303 9.79926 11.0791 9.74846 11.0279C9.64687 10.951 9.54528 10.9254 9.44368 10.9766C9.36749 11.0023 9.2659 11.0791 9.13891 11.2327L9.01192 11.3607L9.51988 11.796ZM12.1782 7.48138L12.6862 7.09729L14.6842 9.67499L14.2058 10.0591L12.1782 7.48138ZM17.1182 8.04045L17.1436 6.20534L15.6493 5.12987L17.4187 4.21231L17.6727 4.75004L16.788 5.20669L17.7235 5.89806L17.6981 7.04608L18.6336 6.55956L18.913 7.1229L17.1182 8.04045ZM20.6104 3.01308L22.3332 2.50095L22.511 3.0899L21.9269 3.26914L22.638 5.82124L22.0539 5.97488L21.3215 3.42278L20.7628 3.59776L20.6104 3.01308ZM27.5991 1.71143C28.0563 1.71143 28.433 1.86506 28.7886 2.19368C29.1188 2.50095 29.2966 2.91066 29.322 3.39718C29.322 3.87943 29.1696 4.28913 28.8394 4.62201C28.5346 4.95063 28.1579 5.12987 27.6753 5.15548C27.1927 5.15548 26.7906 5.00184 26.4604 4.67322C26.1303 4.34034 25.9525 3.93064 25.9525 3.47399C25.9271 3.16672 26.0033 2.85944 26.1557 2.60338C26.2826 2.34732 26.4858 2.11686 26.7398 1.96749C27.015 1.81385 27.2943 1.71143 27.5991 1.71143ZM27.5991 2.32171C27.2943 2.32171 27.0404 2.44974 26.8668 2.65459C26.6636 2.88505 26.562 3.14111 26.562 3.47399C26.5874 3.82822 26.7144 4.10988 26.9642 4.31473C27.1673 4.46837 27.3959 4.54519 27.6753 4.54519C27.9547 4.54519 28.2087 4.41716 28.4076 4.21231C28.6108 3.98185 28.687 3.72579 28.687 3.42278C28.687 3.0899 28.56 2.83384 28.3568 2.62899C28.1579 2.42413 27.9039 2.32171 27.5991 2.32171ZM32.6872 2.09125L34.4354 2.39853L34.3339 3.01308L33.7539 2.91066L33.2968 5.51396L32.6618 5.41154L33.1444 2.78262L32.5602 2.6802L32.6872 2.09125ZM38.2071 3.62336L39.8537 4.26352L39.6505 4.85247L38.5626 4.41716L38.3595 4.95063L39.4219 5.38593L39.223 5.94927L38.1309 5.51396L37.8303 6.30349L38.8928 6.7388L38.6642 7.30214L37.0176 6.66198L38.2071 3.62336ZM37.9277 3.42278L37.5509 4.1867L37.1446 4.00746L37.3732 3.19232L37.9277 3.42278ZM43.0962 10.1103L43.7523 7.63502L41.6273 9.03483L41.094 8.65501L43.9809 6.7388L44.4889 7.09729L43.6253 10.4901L43.0962 10.1103ZM48.1335 10.4389L48.5399 10.9254L47.6001 11.7192L48.3113 12.56L49.2468 11.7448L49.6532 12.2271L47.198 14.3481L46.7916 13.8872L47.8795 12.9441L47.1726 12.1247L46.0847 13.0465L45.6783 12.5856L48.1335 10.4389ZM48.8193 16.849L50.6394 16.8746L51.7019 15.3681L52.6163 17.1563L52.0575 17.4337L51.6046 16.5418L50.9442 17.4849L49.8055 17.4593L50.2627 18.4067L49.7294 18.6884L48.8193 16.849Z" fill="#F8F8F8"/>
<path d="M8.25449 40.8719C8.45768 41.2774 8.48307 41.7127 8.33068 42.1736C8.1783 42.6046 7.87352 42.9375 7.44598 43.1424C7.03961 43.3472 6.60785 43.3984 6.15491 43.2448C5.72314 43.0911 5.39297 42.8095 5.18978 42.3742C4.9866 41.9431 4.9612 41.5078 5.11359 41.0469C5.29138 40.6159 5.57076 40.3086 5.97713 40.1037C6.25227 39.9501 6.55705 39.8989 6.86183 39.9245C7.1666 39.9501 7.42059 40.0269 7.67033 40.2062C7.92432 40.3854 8.1275 40.5903 8.25449 40.8719ZM7.69573 41.1237C7.57297 40.8719 7.36979 40.6927 7.09041 40.5903C6.81103 40.4878 6.53165 40.5134 6.25227 40.6671C5.92633 40.8207 5.72314 41.0725 5.64695 41.3798C5.59615 41.6358 5.62155 41.8919 5.72314 42.1224C5.87553 42.3742 6.07872 42.5534 6.35386 42.6558C6.63324 42.7327 6.91262 42.707 7.192 42.579C7.47138 42.451 7.64494 42.2504 7.74653 41.9687C7.84812 41.6871 7.84812 41.4054 7.69573 41.1237ZM9.95193 43.6545L10.3287 44.0855L9.62176 46.5608L11.243 45.1567L11.6494 45.6432L9.18999 47.7643L8.81325 47.3034L9.52016 44.8537L7.89892 46.2578L7.49678 45.7713L9.95193 43.6545ZM13.042 47.0729L13.495 47.4826L11.7721 49.497L12.4579 50.1115L12.0769 50.5468L10.9382 49.5482L13.042 47.0729ZM15.6242 49.1172L16.1279 49.4458L14.3839 52.1771L13.8759 51.8485L15.6242 49.1172ZM17.9015 50.5212L18.4095 50.7474L18.7862 53.3038L19.7006 51.3364L20.2551 51.618L18.8878 54.5798L18.3587 54.3238L17.9777 51.7973L17.093 53.7348L16.5343 53.4788L17.9015 50.5212ZM22.1557 52.2283L23.8532 52.7405L23.7008 53.3294L22.5875 52.9965L22.4097 53.5556L23.523 53.8885L23.3706 54.4518L22.2573 54.1445L22.0033 54.9597L23.1166 55.2926L22.9642 55.8815L21.2456 55.3694L22.1557 52.2283ZM27.6502 53.1758L28.2809 53.2014L29.4238 56.5174L28.7889 56.4918L28.5349 55.8047L27.2184 55.7791L26.939 56.4406L26.3083 56.415L27.6502 53.1758ZM27.9296 54.0677L27.4724 55.1645L28.3317 55.1901L27.9296 54.0677ZM34.1055 53.2014L33.7542 53.6836C33.424 53.4318 33.0685 53.3294 32.6875 53.4062C32.3827 53.4574 32.1584 53.6068 31.9806 53.8629C31.8282 54.0933 31.752 54.375 31.8282 54.6823C31.8536 54.9085 31.9298 55.0877 32.0568 55.2413C32.1838 55.395 32.3361 55.4974 32.5097 55.5486C32.7129 55.6254 32.9161 55.6254 33.1193 55.5998C33.297 55.5486 33.4494 55.4974 33.5764 55.395C33.7034 55.2926 33.8516 55.1645 34.004 54.9341L34.4865 55.2926C34.2833 55.5742 34.1055 55.7791 33.9024 55.9071C33.7288 56.0351 33.4748 56.1376 33.2208 56.1888C32.7129 56.2613 32.2853 56.1888 31.9044 55.9327C31.5234 55.6766 31.2948 55.2925 31.2186 54.8103C31.1424 54.4774 31.1678 54.1957 31.2694 53.9141C31.371 53.6324 31.5488 53.4062 31.7774 53.2014C32.0314 52.9965 32.2853 52.8685 32.6113 52.8173C32.8653 52.7661 33.1193 52.7661 33.3986 52.8429C33.6526 52.8941 33.9024 53.0221 34.1055 53.2014ZM36.6115 51.8741L37.1957 51.6437L39.5238 54.247L38.9185 54.4774L38.4359 53.9397L37.1957 54.4262V55.1389L36.6115 55.3694V51.8741ZM37.2211 52.5612L37.1957 53.7604L38.0296 53.4574L37.2211 52.5612ZM39.9048 50.3932L40.5397 50.0347C40.9419 49.7787 41.272 49.6506 41.526 49.6506C41.8054 49.625 42.0552 49.7018 42.3091 49.8555C42.5631 50.0091 42.7917 50.2396 42.9695 50.5468C43.0965 50.7474 43.1727 50.9779 43.1981 51.2083C43.2489 51.4388 43.2235 51.6437 43.1727 51.8229C43.1219 52.0277 43.0203 52.1771 42.9187 52.3308C42.7917 52.4588 42.5377 52.638 42.1822 52.8429L41.5514 53.227L39.9048 50.3932ZM40.7387 50.5981L41.78 52.382L42.0086 52.2283C42.2583 52.1003 42.4107 51.9509 42.4869 51.8485C42.5631 51.7205 42.6139 51.5668 42.5885 51.3876C42.5885 51.234 42.5377 51.0291 42.4107 50.8499C42.2583 50.5468 42.0298 50.3676 41.78 50.2908C41.526 50.2396 41.2467 50.2908 40.9165 50.4956L40.7387 50.5981ZM43.524 47.9393L44.8659 46.7913L45.2469 47.2522L44.3876 48.0161L44.7643 48.4514L45.6278 47.6875L46.0088 48.1441L45.1453 48.9123L45.704 49.5738L46.5633 48.8099L46.9697 49.2708L45.6278 50.4444L43.524 47.9393ZM46.2839 45.4128L46.6395 44.9305L48.8957 45.7201L47.575 43.7313L47.9306 43.2448L50.8429 44.8025L50.4619 45.2847L48.6417 44.2904L49.8312 46.1041L49.501 46.5352L47.4777 45.8225L48.8703 47.3802L48.4894 47.8411L46.2839 45.4128ZM49.0185 41.6102L49.3233 40.9957L50.6143 40.9701L49.8566 39.9245L50.136 39.3142L51.3763 40.9957L52.6165 41.6358L52.3626 42.1992L51.0969 41.559L49.0185 41.6102Z" fill="#F8F8F8"/>
<path d="M3.77151 33.6212C3.79691 33.7748 3.82231 33.9285 3.84771 34.1291C3.8985 34.2827 3.9239 34.4363 3.9493 34.6412L4.02549 34.9229L4.30487 34.846L5.34197 34.6156L5.59595 34.5388L5.54515 34.2571C5.51975 34.1291 5.49436 34.0053 5.46896 33.8517C5.44356 33.7236 5.41816 33.5956 5.39276 33.4164C5.34197 33.2627 5.34197 33.1347 5.31657 33.0067C5.29117 32.9042 5.26577 32.7506 5.24037 32.6012L5.21498 32.2939L4.9356 32.3452C4.60965 32.3964 4.27948 32.4476 3.9493 32.4988L2.58203 32.6994L2.60743 32.981C2.63283 33.2371 2.68362 33.4932 2.70902 33.7492C2.75982 33.9797 2.81062 34.2315 2.86141 34.4876C2.91221 34.718 2.963 34.9741 3.0138 35.2301C3.08999 35.4819 3.14079 35.7124 3.21699 35.9685L3.29318 36.2501L3.56833 36.1733C4.15249 35.9941 4.73664 35.8404 5.31657 35.6868C5.36737 35.8148 5.39276 35.9428 5.44356 36.0709C5.49436 36.3013 5.57055 36.5318 5.64675 36.7366C5.72294 36.9628 5.82453 37.1677 5.90073 37.3981C5.95152 37.5262 6.00232 37.6286 6.05312 37.7566L4.63505 38.3413C4.60965 38.2901 4.58425 38.2389 4.55886 38.1919C4.50806 38.0383 4.45726 37.8847 4.38107 37.7566C4.35567 37.6286 4.27948 37.475 4.22868 37.3213L4.17788 37.1421L4.63505 36.9884C4.66045 37.0653 4.68585 37.1421 4.71125 37.2189C4.76204 37.3725 4.81284 37.5262 4.8848 37.7054L5.41816 37.5006C5.36737 37.3725 5.31657 37.1933 5.24037 37.014C5.18958 36.8604 5.13878 36.6854 5.08799 36.5318L4.98639 36.2757C4.48266 36.455 3.9747 36.6086 3.44557 36.7879L3.54293 37.0397C3.59373 37.2189 3.64452 37.3725 3.69532 37.5006C3.74611 37.6542 3.79691 37.7822 3.84771 37.9615C3.9239 38.0895 3.9747 38.2389 4.02549 38.3925C4.10169 38.5718 4.15249 38.6998 4.22868 38.8278L4.33027 39.0839C5.13878 38.751 5.97692 38.4181 6.78543 38.0895L6.68384 37.8078C6.60764 37.603 6.50605 37.3981 6.42986 37.1933C6.35366 36.9628 6.2563 36.7623 6.18011 36.5574C6.10391 36.3269 6.05312 36.1221 5.97692 35.9172C5.90073 35.6868 5.84993 35.4563 5.77374 35.2557L5.69754 34.9741C5.03719 35.1533 4.35567 35.3582 3.69532 35.5331C3.64452 35.3838 3.61912 35.2557 3.56833 35.1021C3.51753 34.846 3.47097 34.6156 3.42017 34.3595C3.36937 34.1291 3.31858 33.9029 3.26778 33.6468C3.26778 33.4932 3.24238 33.3395 3.21699 33.1859L4.73664 32.9554L4.76204 33.1091C4.78744 33.2627 4.81284 33.4164 4.81284 33.5188C4.83824 33.6468 4.86364 33.8005 4.9102 33.9541L4.9356 34.1035L4.45726 34.2315L4.40647 34.0053C4.38107 33.8517 4.35567 33.698 4.33027 33.4932L3.77151 33.6212Z" fill="white"/>
<path d="M52.7688 20.3699C52.8196 20.5236 52.8704 20.6772 52.9466 20.8564C52.9974 21.0101 53.0439 21.1893 53.0947 21.343L53.1963 21.6204L52.9212 21.7228L51.9053 22.0301L51.6513 22.1069L51.5539 21.8508C51.5031 21.7228 51.4777 21.5692 51.4269 21.4454C51.3761 21.3174 51.3253 21.1893 51.2745 21.0357C51.2237 20.8821 51.1729 20.754 51.1221 20.626C51.0967 20.5236 51.046 20.3955 50.9698 20.2419L50.8682 19.9645L51.1475 19.8621C51.4523 19.734 51.7529 19.6316 52.0576 19.5036L53.3487 18.9915L53.4503 19.2475C53.5519 19.478 53.6535 19.734 53.7297 19.9645C53.8313 20.1907 53.9075 20.4211 53.9837 20.6772C54.0853 20.9077 54.1361 21.1637 54.2123 21.3942C54.2885 21.646 54.3392 21.8764 54.4154 22.1325L54.4874 22.4142L54.2123 22.491C53.6281 22.6446 53.0482 22.7983 52.4386 22.9476C52.4894 23.0757 52.5148 23.2037 52.5402 23.3573C52.591 23.5878 52.6418 23.8182 52.6926 24.0487C52.7434 24.2792 52.7688 24.5054 52.7942 24.7358C52.8196 24.8638 52.845 24.9919 52.845 25.1199L54.3646 24.9151C54.3646 24.8382 54.3646 24.787 54.3392 24.7358C54.3392 24.5822 54.3138 24.4285 54.2884 24.2792C54.263 24.1255 54.2377 23.9719 54.2123 23.8183L54.1615 23.639L53.7043 23.7414C53.7043 23.8183 53.7297 23.8951 53.7297 23.9719C53.7551 24.1255 53.8059 24.3048 53.8313 24.4797L53.2725 24.5822C53.2471 24.4285 53.2217 24.2792 53.1709 24.0743C53.1455 23.8951 53.1201 23.7158 53.0947 23.5622L53.0228 23.3061C53.5519 23.1781 54.0853 23.0757 54.6144 22.9476L54.6652 23.2293C54.6906 23.4085 54.7414 23.5622 54.7668 23.7158C54.7922 23.8439 54.8176 23.9975 54.843 24.1767C54.8684 24.3261 54.8938 24.4797 54.9192 24.659C54.9192 24.8382 54.9446 24.9919 54.97 25.1199L54.9954 25.4016C54.1107 25.5296 53.2471 25.6576 52.3624 25.7814L52.337 25.4784C52.2862 25.2735 52.2608 25.0431 52.2354 24.8126C52.21 24.5822 52.1592 24.3517 52.1338 24.1511C52.083 23.8951 52.0322 23.6902 51.9815 23.4854C51.9307 23.2549 51.8799 23.0245 51.8291 22.7983L51.7529 22.5422C52.4386 22.363 53.1201 22.1837 53.7805 22.0045C53.7551 21.8508 53.7043 21.6972 53.6789 21.5692C53.6027 21.3174 53.5265 21.0869 53.4503 20.8564C53.3741 20.626 53.2979 20.3955 53.1963 20.1651C53.1455 20.0157 53.0947 19.8621 53.0482 19.734L51.6047 20.2931L51.6555 20.4211C51.7275 20.5748 51.7783 20.7028 51.8037 20.8308C51.8545 20.9589 51.9053 21.0869 51.9561 21.2405L52.0068 21.3942L52.464 21.2662L52.4132 21.0357C52.3624 20.8821 52.2862 20.7284 52.2354 20.5492L52.7688 20.3699Z" fill="white"/>
<path d="M3.44565 26.9079C3.44565 27.0828 3.42025 27.2365 3.42025 27.4413C3.39485 27.595 3.39485 27.7742 3.36945 27.9535V28.2351L3.6446 28.2607L4.71132 28.2863L4.98647 28.312V28.0303C5.01186 27.8766 5.01187 27.7486 5.01187 27.595C5.03726 27.4669 5.03726 27.3133 5.06266 27.1597C5.06266 27.0103 5.08806 26.8567 5.08806 26.7542C5.11346 26.6262 5.11346 26.4726 5.13886 26.3189L5.18965 26.0373L4.88487 25.986C4.55893 25.9604 4.25416 25.9348 3.92398 25.8836L2.53132 25.73L2.50592 26.0117C2.45512 26.2677 2.42972 26.5238 2.40433 26.7798C2.37893 27.0103 2.35353 27.2621 2.32813 27.5182C2.32813 27.7742 2.32813 28.0303 2.30273 28.2863C2.30273 28.5381 2.30273 28.7942 2.30273 29.0503V29.3319H2.60751C3.21707 29.3319 3.79699 29.3319 4.40654 29.3319C4.43194 29.46 4.43194 29.588 4.43194 29.7416C4.43194 29.9678 4.45734 30.2239 4.45734 30.4287C4.48274 30.6592 4.50814 30.8897 4.53353 31.1457C4.55893 31.2481 4.55893 31.3975 4.58433 31.5255L3.06468 31.7304C3.06468 31.6536 3.03928 31.6024 3.03928 31.5255C3.01388 31.3975 3.01388 31.2481 2.98848 31.0945C2.98848 30.9409 2.96308 30.7872 2.96308 30.608L2.93769 30.4287L3.42025 30.4031C3.42025 30.5056 3.42025 30.5824 3.44142 30.6592C3.44142 30.8128 3.46681 30.9665 3.49221 31.1713L4.05097 31.1201C4.02557 30.9665 4.02557 30.7872 4.00017 30.608C3.97478 30.4287 3.97478 30.2495 3.97478 30.0959L3.94938 29.8185C3.41602 29.8441 2.86149 29.8697 2.32813 29.891L2.35353 30.1727C2.35353 30.3519 2.37893 30.5312 2.37893 30.6592C2.40433 30.8128 2.40433 30.9665 2.42972 31.1457C2.42972 31.2951 2.45512 31.4487 2.48052 31.6024C2.50592 31.7816 2.53132 31.9352 2.55672 32.0889L2.58211 32.3706C3.46681 32.2425 4.35575 32.1401 5.24045 32.0377L5.18965 31.7304C5.16425 31.5255 5.13886 31.2951 5.08806 31.0689C5.06266 30.8384 5.06266 30.608 5.03726 30.4031C5.01186 30.1471 5.01186 29.9166 4.98647 29.716C4.98647 29.4856 4.98647 29.2551 4.98647 29.0247L4.96107 28.743C4.27955 28.743 3.56841 28.743 2.88689 28.7686C2.88689 28.615 2.88689 28.4656 2.88689 28.312C2.88689 28.0559 2.88689 27.8254 2.91229 27.5694C2.91229 27.3133 2.93769 27.0615 2.96308 26.8311C2.98848 26.6774 3.01388 26.5238 3.01388 26.3701L4.55893 26.5494L4.53353 26.6774C4.50814 26.8311 4.50814 26.9847 4.48274 27.1085C4.48274 27.2365 4.45734 27.3901 4.45734 27.5438V27.6974H3.94938L3.97478 27.4669C3.97478 27.3133 4.00017 27.1341 4.02557 26.9591L3.44142 26.9079H3.44565Z" fill="white"/>
<path d="M54.1867 26.9079C54.1867 27.0828 54.2121 27.2365 54.2121 27.4413C54.2375 27.595 54.2375 27.7742 54.2629 27.9535V28.2351L53.9835 28.2607L52.9211 28.2863L52.6417 28.312V28.0303C52.6163 27.8766 52.6163 27.7486 52.6163 27.595C52.5909 27.4669 52.5909 27.3133 52.5655 27.1597C52.5655 27.0103 52.5401 26.8567 52.5401 26.7542C52.5147 26.6262 52.5147 26.4726 52.4893 26.3189L52.4385 26.0373L52.7433 25.986C53.0692 25.9604 53.374 25.9348 53.7042 25.8836L55.0968 25.73L55.1222 26.0117C55.173 26.2677 55.1984 26.5238 55.2238 26.7798C55.2492 27.0103 55.2746 27.2621 55.3 27.5182C55.3 27.7742 55.3 28.0303 55.3254 28.2863C55.3254 28.5381 55.3254 28.7942 55.3254 29.0503V29.3319H55.0206C54.4111 29.3319 53.8312 29.3319 53.2216 29.3319C53.1962 29.46 53.1962 29.588 53.1962 29.7416C53.1962 29.9678 53.1708 30.2239 53.1708 30.4287C53.1454 30.6592 53.12 30.8897 53.0946 31.1457C53.0692 31.2481 53.0692 31.3975 53.0438 31.5255L54.5635 31.7304C54.5635 31.6536 54.5889 31.6024 54.5889 31.5255C54.6143 31.3975 54.6143 31.2481 54.6397 31.0945C54.6397 30.9409 54.6651 30.7872 54.6651 30.608L54.6905 30.4287L54.2121 30.4031C54.2121 30.5056 54.2121 30.5824 54.1867 30.6592C54.1867 30.8128 54.1613 30.9665 54.1359 31.1713L53.5772 31.1201C53.6026 30.9665 53.6026 30.7872 53.628 30.608C53.6534 30.4287 53.6534 30.2495 53.6534 30.0959L53.6788 29.8185C54.2121 29.8441 54.7667 29.8697 55.3 29.891L55.2746 30.1727C55.2746 30.3519 55.2492 30.5312 55.2492 30.6592C55.2238 30.8128 55.2238 30.9665 55.1984 31.1457C55.1984 31.2951 55.173 31.4487 55.1476 31.6024C55.1222 31.7816 55.0968 31.9352 55.0714 32.0889L55.046 32.3706C54.1613 32.2425 53.2724 32.1401 52.3877 32.0377L52.4385 31.7304C52.4639 31.5255 52.4893 31.2951 52.5401 31.0689C52.5655 30.8384 52.5655 30.608 52.5909 30.4031C52.6163 30.1471 52.6163 29.9166 52.6417 29.716C52.6417 29.4856 52.6417 29.2551 52.6417 29.0247L52.6671 28.743C53.3486 28.743 54.0597 28.743 54.7413 28.7686C54.7413 28.615 54.7413 28.4656 54.7413 28.312C54.7413 28.0559 54.7413 27.8254 54.7159 27.5694C54.7159 27.3133 54.6905 27.0615 54.6651 26.8311C54.6397 26.6774 54.6143 26.5238 54.6143 26.3701L53.0734 26.5494L53.0946 26.6774C53.12 26.8311 53.12 26.9847 53.1454 27.1085C53.1454 27.2365 53.1708 27.3901 53.1708 27.5438V27.6974H53.6788L53.6534 27.4669C53.6534 27.3133 53.628 27.1341 53.6026 26.9591L54.1867 26.9079Z" fill="white"/>
<path d="M4.85938 20.3699C4.81282 20.5236 4.73662 20.6772 4.68583 20.8564C4.63503 21.0101 4.58424 21.1893 4.53344 21.343L4.43185 21.6204L4.71123 21.7228L5.72292 22.0301L5.9769 22.1069L6.07849 21.8508C6.12929 21.7228 6.15469 21.5692 6.20125 21.4454C6.25205 21.3174 6.30284 21.1893 6.35364 21.0357C6.40444 20.8821 6.45523 20.754 6.50603 20.626C6.53143 20.5236 6.58222 20.3955 6.65842 20.2419L6.76001 19.9645L6.48063 19.8621C6.18009 19.734 5.87531 19.6316 5.57053 19.5036L4.27946 18.9915L4.17787 19.2475C4.07627 19.478 3.97468 19.734 3.89849 19.9645C3.79689 20.1907 3.7207 20.4211 3.6445 20.6772C3.54291 20.9077 3.49212 21.1637 3.42015 21.3942C3.34396 21.646 3.29316 21.8764 3.21697 22.1325L3.14078 22.4142L3.42015 22.491C4.00008 22.6446 4.58424 22.7983 5.18956 22.9476C5.13876 23.0757 5.11336 23.2037 5.08797 23.3573C5.03717 23.5878 4.98637 23.8182 4.93558 24.0487C4.88478 24.2792 4.85938 24.5054 4.83398 24.7358C4.80859 24.8638 4.78742 24.9919 4.78742 25.1199L3.26777 24.9151C3.26777 24.8382 3.26777 24.787 3.29316 24.7358C3.29316 24.5822 3.31856 24.4285 3.34396 24.2792C3.36936 24.1255 3.39476 23.9719 3.42015 23.8183L3.46672 23.639L3.92388 23.7414C3.92388 23.8183 3.89849 23.8951 3.89849 23.9719C3.87309 24.1255 3.82229 24.3048 3.79689 24.4797L4.35565 24.5822C4.38105 24.4285 4.40645 24.2792 4.45725 24.0743C4.48264 23.8951 4.50804 23.7158 4.53344 23.5622L4.60963 23.3061C4.07627 23.1781 3.54291 23.0757 3.01378 22.9476L2.96299 23.2293C2.93759 23.4085 2.88679 23.5622 2.8614 23.7158C2.836 23.8439 2.8106 23.9975 2.7852 24.1767C2.7598 24.3261 2.73441 24.4797 2.70901 24.659C2.70901 24.8382 2.68361 24.9919 2.65821 25.1199L2.63281 25.4016C3.51751 25.5296 4.38105 25.6576 5.26575 25.7814L5.29115 25.4784C5.34195 25.2735 5.36735 25.0431 5.39274 24.8126C5.41814 24.5822 5.46894 24.3517 5.49434 24.1511C5.54513 23.8951 5.59593 23.6902 5.64672 23.4854C5.69752 23.2549 5.74832 23.0245 5.79911 22.7983L5.87531 22.5422C5.18956 22.363 4.50804 22.1837 3.84769 22.0045C3.87309 21.8508 3.92388 21.6972 3.94928 21.5692C4.02548 21.3174 4.10167 21.0869 4.17787 20.8564C4.25406 20.626 4.33025 20.3955 4.43185 20.1651C4.48264 20.0157 4.53344 19.8621 4.58424 19.734L6.0277 20.2931L5.9769 20.4211C5.90071 20.5748 5.84991 20.7028 5.82451 20.8308C5.77372 20.9589 5.72292 21.0869 5.67212 21.2405L5.62133 21.3942L5.16416 21.2662L5.21496 21.0357C5.26575 20.8821 5.34195 20.7284 5.39274 20.5492L4.85938 20.3699Z" fill="white"/>
<path d="M53.8567 33.6212C53.8313 33.7748 53.8059 33.9285 53.7805 34.1291C53.7297 34.2827 53.7043 34.4363 53.6789 34.6412L53.6027 34.9229L53.3233 34.846L52.2862 34.6156L52.0323 34.5388L52.0831 34.2571C52.1085 34.1291 52.1338 34.0053 52.1592 33.8517C52.1846 33.7236 52.21 33.5956 52.2354 33.4164C52.2862 33.2627 52.2862 33.1347 52.3116 33.0067C52.337 32.9042 52.3624 32.7506 52.3878 32.6012L52.4132 32.2939L52.6926 32.3452C53.0186 32.3964 53.3487 32.4476 53.6789 32.4988L55.0462 32.6994L55.0208 32.981C54.9954 33.2371 54.9446 33.4932 54.9192 33.7492C54.8684 33.9797 54.8176 34.2315 54.7668 34.4876C54.716 34.718 54.6652 34.9741 54.6144 35.2301C54.5382 35.4819 54.4874 35.7124 54.4112 35.9685L54.3393 36.2501L54.0599 36.1733C53.4757 35.9941 52.8958 35.8404 52.3116 35.6868C52.2608 35.8148 52.2354 35.9428 52.1846 36.0709C52.1338 36.3013 52.0577 36.5318 51.9815 36.7366C51.9053 36.9628 51.8037 37.1677 51.7275 37.3981C51.6767 37.5262 51.6301 37.6286 51.5793 37.7566L52.9974 38.3413C53.0186 38.2901 53.044 38.2389 53.0694 38.1919C53.1201 38.0383 53.1709 37.8847 53.2471 37.7566C53.2725 37.6286 53.3487 37.475 53.3995 37.3213L53.4503 37.1421L52.9974 36.9884C52.972 37.0653 52.9466 37.1421 52.9212 37.2189C52.8704 37.3725 52.8196 37.5262 52.7434 37.7054L52.21 37.5006C52.2608 37.3725 52.3116 37.1933 52.3878 37.014C52.4386 36.8604 52.4894 36.6854 52.5402 36.5318L52.6418 36.2757C53.1455 36.455 53.6535 36.6086 54.1869 36.7879L54.0853 37.0397C54.0345 37.2189 53.9837 37.3725 53.9329 37.5006C53.8821 37.6542 53.8313 37.7822 53.7805 37.9615C53.7043 38.0895 53.6535 38.2389 53.6027 38.3925C53.5265 38.5718 53.4757 38.6998 53.3995 38.8278L53.2979 39.0839C52.4894 38.751 51.6513 38.4181 50.8428 38.0895L50.9444 37.8078C51.0206 37.603 51.1222 37.3981 51.1983 37.1933C51.2745 36.9628 51.3761 36.7623 51.4523 36.5574C51.5285 36.3269 51.5793 36.1221 51.6513 35.9172C51.7275 35.6868 51.7783 35.4563 51.8545 35.2557L51.9307 34.9741C52.591 35.1533 53.2725 35.3582 53.9329 35.5331C53.9837 35.3838 54.0091 35.2557 54.0599 35.1021C54.1107 34.846 54.1615 34.6156 54.2123 34.3595C54.2631 34.1291 54.3139 33.9029 54.3604 33.6468C54.3604 33.4932 54.3858 33.3395 54.4112 33.1859L52.8958 32.9554L52.8704 33.1091C52.845 33.2627 52.8196 33.4164 52.8196 33.5188C52.7942 33.6468 52.7688 33.8005 52.718 33.9541L52.6926 34.1035L53.1709 34.2315L53.2217 34.0053C53.2471 33.8517 53.2725 33.698 53.2979 33.4932L53.8567 33.6212Z" fill="white"/>
<path d="M76.2114 38.2004C77.2358 38.2004 78.1163 38.576 78.8528 39.3228C79.5893 40.0697 79.9576 40.983 79.9576 42.0585C79.9576 43.1211 79.5936 44.0259 78.8655 44.7599C78.1416 45.4982 77.2569 45.8695 76.2199 45.8695C75.132 45.8695 74.2303 45.4897 73.515 44.73C72.7954 43.9747 72.4355 43.0742 72.4355 42.0328C72.4355 41.3372 72.6006 40.6928 72.935 40.1081C73.2695 39.5234 73.7308 39.0583 74.315 38.7168C74.9034 38.3754 75.5341 38.2004 76.2114 38.2004ZM76.1902 39.5661C75.5214 39.5661 74.9627 39.8008 74.5097 40.2703C74.0526 40.7397 73.824 41.3372 73.824 42.0585C73.824 42.8651 74.1118 43.5052 74.6833 43.9747C75.132 44.3417 75.6399 44.5252 76.2156 44.5252C76.8675 44.5252 77.422 44.2862 77.8792 43.8125C78.3364 43.3345 78.565 42.7498 78.565 42.0499C78.565 41.3543 78.3364 40.7696 77.8707 40.2874C77.4136 39.8051 76.8506 39.5661 76.1902 39.5661Z" fill="black"/>
<path d="M83.8521 38.3838H85.1601L88.2798 43.1892V38.3838H89.6513V45.6859H88.3348L85.2236 40.8975V45.6859H83.8521V38.3838Z" fill="black"/>
<path d="M93.8672 38.3838H95.2387V44.3629H97.2663V45.6859H93.8672V38.3838Z" fill="black"/>
<path d="M100.792 38.3838H102.164V45.6859H100.792V38.3838Z" fill="black"/>
<path d="M106.304 38.3838H107.612L110.731 43.1892V38.3838H112.103V45.6859H110.782L107.675 40.8975V45.6859H106.304V38.3838Z" fill="black"/>
<path d="M116.34 38.3838H120.294V39.7495H117.712V41.0596H120.294V42.3997H117.712V44.3202H120.294V45.6859H116.34V38.3838Z" fill="black"/>
<path d="M132.007 38.3838H133.395L136.181 45.6859H134.75L134.183 44.1794H131.215L130.635 45.6859H129.205L132.007 38.3838ZM132.701 40.3256L131.723 42.8393H133.679L132.701 40.3256Z" fill="black"/>
<path d="M146.484 39.6643L145.519 40.5904C144.862 39.8947 144.122 39.5448 143.3 39.5448C142.61 39.5448 142.026 39.7838 141.552 40.2575C141.074 40.7355 140.837 41.3201 140.837 42.02C140.837 42.5066 140.943 42.9376 141.154 43.3132C141.366 43.693 141.662 43.9875 142.043 44.2051C142.428 44.4185 142.856 44.5252 143.326 44.5252C143.728 44.5252 144.092 44.4526 144.426 44.299C144.757 44.1496 145.121 43.8765 145.519 43.4796L146.454 44.4654C145.921 44.9904 145.413 45.3574 144.939 45.5623C144.465 45.7671 143.918 45.8695 143.309 45.8695C142.183 45.8695 141.26 45.5068 140.541 44.7898C139.825 44.0685 139.465 43.1467 139.465 42.0243C139.465 41.2945 139.63 40.6501 139.956 40.0825C140.282 39.5192 140.752 39.0625 141.362 38.7211C141.967 38.3754 142.623 38.2004 143.33 38.2004C143.927 38.2004 144.498 38.3285 145.053 38.5845C145.607 38.8363 146.086 39.1991 146.484 39.6643Z" fill="black"/>
<path d="M152.486 38.3838H153.87L156.66 45.6859H155.225L154.662 44.1794H151.695L151.115 45.6859H149.68L152.486 38.3838ZM153.18 40.3256L152.198 42.8393H154.158L153.18 40.3256Z" fill="black"/>
<path d="M160.317 38.3838H161.947C163.001 38.3838 163.784 38.5161 164.296 38.7807C164.804 39.041 165.228 39.4678 165.558 40.061C165.888 40.6542 166.053 41.3456 166.053 42.1351C166.053 42.6985 165.964 43.2149 165.778 43.6886C165.592 44.158 165.333 44.5506 165.008 44.8622C164.682 45.1695 164.33 45.3871 163.949 45.5066C163.573 45.6261 162.912 45.6859 161.972 45.6859H160.317V38.3838ZM161.689 39.7281V44.333H162.328C162.959 44.333 163.412 44.2604 163.695 44.1153C163.979 43.9702 164.212 43.7227 164.394 43.377C164.572 43.0356 164.665 42.6088 164.665 42.1052C164.665 41.3328 164.449 40.731 164.021 40.3043C163.632 39.9202 163.01 39.7281 162.155 39.7281H161.689Z" fill="black"/>
<path d="M169.956 38.3838H173.91V39.7495H171.328V41.0596H173.91V42.3997H171.328V44.3202H173.91V45.6859H169.956V38.3838Z" fill="black"/>
<path d="M178.46 38.3838H179.798L181.483 43.4752L183.176 38.3838H184.509L185.724 45.6859H184.391L183.62 41.0725L182.088 45.6859H180.869L179.345 41.0725L178.558 45.6859H177.211L178.46 38.3838Z" fill="black"/>
<path d="M188.898 38.3838H190.372L191.718 41.0084L193.059 38.3838H194.533L192.412 42.5235V45.6859H191.019V42.5235L188.898 38.3838Z" fill="black"/>
<path d="M77.693 15.8247H80.3005L85.5283 29.5241H82.8403L81.7778 26.6989H76.2114L75.1235 29.5241H72.4355L77.693 15.8247ZM79.001 19.4651L77.1596 24.1809H80.8339L79.001 19.4651Z" fill="black"/>
<path d="M91.2935 15.8247H94.0407C95.5265 15.8247 96.5974 15.9613 97.2536 16.2387C97.9097 16.5161 98.4303 16.9642 98.8071 17.5787C99.188 18.1976 99.3743 18.9401 99.3743 19.8022C99.3743 20.7625 99.1246 21.5563 98.6293 22.1879C98.134 22.8195 97.4567 23.2633 96.6017 23.5109C96.1022 23.656 95.1878 23.7243 93.8671 23.7243V29.5241H91.2935V15.8247ZM93.8671 21.185H94.6968C95.3487 21.185 95.8016 21.138 96.0556 21.0484C96.3138 20.9502 96.5128 20.7966 96.6609 20.5832C96.8049 20.3656 96.8768 20.1052 96.8768 19.798C96.8768 19.2645 96.6736 18.8761 96.263 18.6371C95.9667 18.4536 95.4122 18.364 94.6037 18.364H93.8671V21.185Z" fill="black"/>
<path d="M105.495 15.8247H108.069V29.5241H105.495V15.8247Z" fill="black"/>
<path d="M113.449 29.5241L117.043 22.7213L113.508 15.8247H121.835V18.3811H117.619L119.833 22.6957L117.559 26.9677H121.949V29.5241H113.449Z" fill="black"/>
<path d="M126.699 15.8247H134.208V18.4024H131.732V29.5241H129.099V18.4024H126.699V15.8247Z" fill="black"/>
<path d="M146.15 15.4834C148.071 15.4834 149.722 16.1833 151.106 17.5874C152.491 18.9872 153.181 20.6986 153.181 22.7172C153.181 24.7145 152.499 26.4088 151.136 27.7915C149.773 29.1743 148.114 29.8699 146.171 29.8699C144.13 29.8699 142.433 29.1572 141.087 27.736C139.737 26.3149 139.063 24.6249 139.063 22.6702C139.063 21.3601 139.377 20.1566 140.007 19.0555C140.634 17.9587 141.497 17.0881 142.594 16.4436C143.699 15.8035 144.884 15.4834 146.15 15.4834ZM146.111 18.0398C144.858 18.0398 143.809 18.4793 142.954 19.3628C142.099 20.2419 141.675 21.3601 141.675 22.7215C141.675 24.2365 142.213 25.4357 143.288 26.3149C144.122 27.0062 145.079 27.3477 146.158 27.3477C147.381 27.3477 148.423 26.8996 149.278 26.0076C150.141 25.1156 150.569 24.0146 150.569 22.7044C150.569 21.3985 150.137 20.2974 149.269 19.3926C148.406 18.4879 147.352 18.0398 146.111 18.0398Z" fill="black"/>
<path d="M158.086 15.8247H165.6V18.4024H163.124V29.5241H160.491V18.4024H158.086V15.8247Z" fill="black"/>
<path d="M172.669 15.8248H180.086V18.3812H175.243V20.8437H180.086V23.3616H175.243V26.9678H180.086V29.5242H172.669V15.8248ZM171.285 15.4834L170.891 19.0512H169.071L168.673 15.4834H171.285Z" fill="black"/>
<path d="M195.062 29.5241L191.295 19.4821L187.468 29.5241H184.721L189.97 15.8247H192.594L197.826 29.5241H195.062Z" fill="black"/>
<path d="M203.143 15.8247H205.776V20.9972H210.318V15.8247H212.929V29.5241H210.318V23.5151H205.776V29.5241H203.143V15.8247Z" fill="black"/>
<path d="M218.504 29.5241L222.098 22.7213L218.559 15.8247H226.89V18.3811H222.67L224.888 22.6957L222.615 26.9677H227V29.5241H218.504Z" fill="black"/>
</svg>
