<svg width="16" height="14" viewBox="0 0 16 14" fill="none" xmlns="http://www.w3.org/2000/svg">
<g clip-path="url(#clip0)">
<path d="M8.3754 3.27499C9.409 3.27499 10.2469 2.54186 10.2469 1.6375C10.2469 0.733132 9.409 0 8.3754 0C7.3418 0 6.50391 0.733132 6.50391 1.6375C6.50391 2.54186 7.3418 3.27499 8.3754 3.27499Z" fill="#C5D2DE"/>
<path d="M8.37473 14.0001C8.99482 14.0001 9.4975 13.5602 9.4975 13.0177C9.4975 12.4751 8.99482 12.0353 8.37473 12.0353C7.75464 12.0353 7.25195 12.4751 7.25195 13.0177C7.25195 13.5602 7.75464 14.0001 8.37473 14.0001Z" fill="#C5D2DE"/>
<path d="M3.77626 4.77754C4.70657 4.77754 5.46073 4.11767 5.46073 3.30369C5.46073 2.4897 4.70657 1.82983 3.77626 1.82983C2.84596 1.82983 2.0918 2.4897 2.0918 3.30369C2.0918 4.11767 2.84596 4.77754 3.77626 4.77754Z" fill="#C5D2DE"/>
<path d="M12.9748 12.1691C13.4916 12.1691 13.9106 11.8025 13.9106 11.3504C13.9106 10.8982 13.4916 10.5316 12.9748 10.5316C12.458 10.5316 12.0391 10.8982 12.0391 11.3504C12.0391 11.8025 12.458 12.1691 12.9748 12.1691Z" fill="#C5D2DE"/>
<path d="M1.87183 8.63742C2.69851 8.63742 3.36866 8.05106 3.36866 7.32774C3.36866 6.60443 2.69851 6.01807 1.87183 6.01807C1.04515 6.01807 0.375 6.60443 0.375 7.32774C0.375 8.05106 1.04515 8.63742 1.87183 8.63742Z" fill="#C5D2DE"/>
<path d="M14.877 7.98188C15.2902 7.98188 15.6251 7.68881 15.6251 7.3273C15.6251 6.96579 15.2902 6.67273 14.877 6.67273C14.4638 6.67273 14.1289 6.96579 14.1289 7.3273C14.1289 7.68881 14.4638 7.98188 14.877 7.98188Z" fill="#C5D2DE"/>
<path d="M2.85072 10.5412C2.33882 10.9891 2.33882 11.7138 2.85072 12.1617C3.36201 12.6095 4.19149 12.6095 4.70278 12.1617C5.21468 11.7138 5.21468 10.9891 4.70278 10.5412C4.19149 10.0927 3.36262 10.0885 2.85072 10.5412Z" fill="#C5D2DE"/>
<path d="M12.9732 3.7946C13.2831 3.7946 13.5343 3.57481 13.5343 3.30367C13.5343 3.03254 13.2831 2.81274 12.9732 2.81274C12.6633 2.81274 12.4121 3.03254 12.4121 3.30367C12.4121 3.57481 12.6633 3.7946 12.9732 3.7946Z" fill="#C5D2DE"/>
</g>
<defs>
<clipPath id="clip0">
<rect width="16" height="14" fill="white"/>
</clipPath>
</defs>
</svg>
