<svg width="12" height="12" viewBox="0 0 12 12" fill="none" xmlns="http://www.w3.org/2000/svg">
<path fill-rule="evenodd" clip-rule="evenodd" d="M0 5.99997C0 2.69154 2.69162 0 6 0C9.30844 0 12 2.69154 12 5.99997C12 9.30839 9.30838 12 6 12C2.69162 12 0 9.30839 0 5.99997ZM1.465 7H2.14469V5.3457H2.16031L3.36148 7H3.92789V4.18164H3.2482V5.82031H3.23258L2.03727 4.18164H1.465V7ZM6.44727 7V6.42188H5.23242V5.84766H6.375V5.32031H5.23242V4.75977H6.44727V4.18164H4.51562V7H6.44727ZM8.29086 7L8.76547 5.24023H8.78109L9.2557 7H9.93148L10.6678 4.18164H9.92758L9.54672 6.08594H9.53109L9.06039 4.18164H8.48617L8.01547 6.08594H7.99984L7.61898 4.18164H6.87875L7.61508 7H8.29086Z" fill="#F4F6F8"/>
</svg>
