<svg width="12" height="12" viewBox="0 0 12 12" fill="none" xmlns="http://www.w3.org/2000/svg">
<path fill-rule="evenodd" clip-rule="evenodd" d="M0 5.99997C0 2.69154 2.69162 0 6 0C9.30844 0 12 2.69154 12 5.99997C12 9.30839 9.30838 12 6 12C2.69162 12 0 9.30839 0 5.99997ZM3.09091 7C3.6934 7 4.18182 6.55228 4.18182 6C4.18182 5.44772 3.6934 5 3.09091 5C2.48842 5 2 5.44772 2 6C2 6.55228 2.48842 7 3.09091 7ZM7.09091 6C7.09091 6.55228 6.60249 7 6 7C5.39751 7 4.90909 6.55228 4.90909 6C4.90909 5.44772 5.39751 5 6 5C6.60249 5 7.09091 5.44772 7.09091 6ZM10 6C10 6.55228 9.51158 7 8.90909 7C8.3066 7 7.81818 6.55228 7.81818 6C7.81818 5.44772 8.3066 5 8.90909 5C9.51158 5 10 5.44772 10 6Z" fill="#B0BAC4"/>
</svg>
